<ttFont>
    <TTGlyph name="A" xMin="47" yMin="0" xMax="1221" yMax="1490">
      <contour>
        <pt x="1221" y="0" on="1"/>
        <pt x="1015" y="0" on="1"/>
        <pt x="902" y="381" on="1"/>
        <pt x="351" y="381" on="1"/>
        <pt x="242" y="0" on="1"/>
        <pt x="47" y="0" on="1"/>
        <pt x="504" y="1490" on="1"/>
        <pt x="775" y="1490" on="1"/>
      </contour>
      <contour>
        <pt x="860" y="525" on="1"/>
        <pt x="734" y="972" on="1"/>
        <pt x="630" y="1338" on="1"/>
        <pt x="572" y="1131" on="0"/>
        <pt x="528" y="982" on="1"/>
        <pt x="394" y="525" on="1"/>
      </contour>
    </TTGlyph>
    <TTGlyph name="AE" xMin="20" yMin="0" xMax="1856" yMax="1490">
      <contour>
        <pt x="1856" y="0" on="1"/>
        <pt x="981" y="0" on="1"/>
        <pt x="981" y="381" on="1"/>
        <pt x="433" y="381" on="1"/>
        <pt x="211" y="0" on="1"/>
        <pt x="20" y="0" on="1"/>
        <pt x="906" y="1490" on="1"/>
        <pt x="1837" y="1490" on="1"/>
        <pt x="1837" y="1323" on="1"/>
        <pt x="1182" y="1323" on="1"/>
        <pt x="1182" y="864" on="1"/>
        <pt x="1726" y="864" on="1"/>
        <pt x="1726" y="697" on="1"/>
        <pt x="1182" y="697" on="1"/>
        <pt x="1182" y="167" on="1"/>
        <pt x="1856" y="167" on="1"/>
      </contour>
      <contour>
        <pt x="982" y="1342" on="1"/>
        <pt x="787" y="995" on="1"/>
        <pt x="518" y="523" on="1"/>
        <pt x="981" y="523" on="1"/>
        <pt x="981" y="937" on="1"/>
        <pt x="981" y="1141" on="0"/>
      </contour>
    </TTGlyph>
    <TTGlyph name="Aacute" xMin="47" yMin="0" xMax="1221" yMax="1969">
      <component glyphName="glyph00393" x="47" y="0" flags="0x0"/>
      <component glyphName="A" x="0" y="0" flags="0x1004"/>
      <component glyphName="acute" x="296" y="329" flags="0x1004"/>
    </TTGlyph>
    <TTGlyph name="Abreve" xMin="47" yMin="0" xMax="1221" yMax="1916">
      <component glyphName="glyph00393" x="47" y="0" flags="0x0"/>
      <component glyphName="A" x="0" y="0" flags="0x1004"/>
      <component glyphName="breve" x="268" y="168" flags="0x1004"/>
    </TTGlyph>
    <TTGlyph name="Acircumflex" xMin="47" yMin="0" xMax="1221" yMax="2031">
      <component glyphName="glyph00393" x="47" y="0" flags="0x0"/>
      <component glyphName="A" x="0" y="0" flags="0x1004"/>
      <component glyphName="circumflex" x="240" y="225" flags="0x1004"/>
    </TTGlyph>
    <TTGlyph name="Adieresis" xMin="47" yMin="0" xMax="1221" yMax="1870">
      <component glyphName="glyph00393" x="47" y="0" flags="0x0"/>
      <component glyphName="A" x="0" y="0" flags="0x1004"/>
      <component glyphName="dieresis" x="154" y="1499" flags="0x1004"/>
    </TTGlyph>
    <TTGlyph name="Agrave" xMin="47" yMin="0" xMax="1221" yMax="1969">
      <component glyphName="glyph00393" x="47" y="0" flags="0x0"/>
      <component glyphName="A" x="0" y="0" flags="0x1004"/>
      <component glyphName="grave" x="314" y="329" flags="0x1004"/>
    </TTGlyph>
    <TTGlyph name="Amacron" xMin="47" yMin="0" xMax="1221" yMax="1743">
      <component glyphName="glyph00393" x="47" y="0" flags="0x0"/>
      <component glyphName="A" x="0" y="0" flags="0x1004"/>
      <component glyphName="macron" x="219" y="905" flags="0x1004"/>
    </TTGlyph>
    <TTGlyph name="Aogonek" xMin="47" yMin="-536" xMax="1249" yMax="1490">
      <component glyphName="glyph00393" x="47" y="0" flags="0x0"/>
      <component glyphName="A" x="0" y="0" flags="0x1004"/>
      <component glyphName="ogonek" x="666" y="18" flags="0x1004"/>
    </TTGlyph>
    <TTGlyph name="Aring" xMin="47" yMin="0" xMax="1221" yMax="2005">
      <component glyphName="glyph00393" x="47" y="0" flags="0x0"/>
      <component glyphName="A" x="0" y="0" flags="0x1004"/>
      <component glyphName="ring" x="273" y="1349" flags="0x1004"/>
    </TTGlyph>
    <TTGlyph name="Atilde" xMin="47" yMin="0" xMax="1221" yMax="1851">
      <component glyphName="glyph00393" x="47" y="0" flags="0x0"/>
      <component glyphName="A" x="0" y="0" flags="0x1004"/>
      <component glyphName="tilde" x="143" y="704" flags="0x1004"/>
    </TTGlyph>
    <TTGlyph name="B" xMin="166" yMin="0" xMax="1216" yMax="1490">
      <contour>
        <pt x="1216" y="429" on="1"/>
        <pt x="1215" y="366" on="0"/>
        <pt x="1208" y="271" on="0"/>
        <pt x="1192" y="187" on="0"/>
        <pt x="1174" y="129" on="0"/>
        <pt x="1135" y="78" on="0"/>
        <pt x="1099" y="47" on="0"/>
        <pt x="1032" y="22" on="0"/>
        <pt x="970" y="10" on="0"/>
        <pt x="867" y="2" on="0"/>
        <pt x="772" y="0" on="0"/>
        <pt x="700" y="0" on="1"/>
        <pt x="166" y="0" on="1"/>
        <pt x="166" y="1490" on="1"/>
        <pt x="732" y="1490" on="1"/>
        <pt x="845" y="1490" on="0"/>
        <pt x="994" y="1467" on="0"/>
        <pt x="1109" y="1407" on="0"/>
        <pt x="1161" y="1297" on="0"/>
        <pt x="1162" y="1212" on="1"/>
        <pt x="1163" y="1104" on="1"/>
        <pt x="1163" y="1036" on="0"/>
        <pt x="1153" y="950" on="0"/>
        <pt x="1128" y="880" on="0"/>
        <pt x="1078" y="840" on="0"/>
        <pt x="1007" y="813" on="0"/>
        <pt x="951" y="803" on="1"/>
        <pt x="1019" y="796" on="0"/>
        <pt x="1117" y="750" on="0"/>
        <pt x="1174" y="686" on="0"/>
        <pt x="1206" y="588" on="0"/>
        <pt x="1216" y="494" on="0"/>
      </contour>
      <contour>
        <pt x="965" y="1147" on="1"/>
        <pt x="965" y="1149" on="0"/>
        <pt x="965" y="1153" on="1"/>
        <pt x="965" y="1195" on="0"/>
        <pt x="965" y="1230" on="0"/>
        <pt x="954" y="1281" on="0"/>
        <pt x="943" y="1297" on="0"/>
        <pt x="904" y="1324" on="0"/>
        <pt x="866" y="1329" on="0"/>
        <pt x="785" y="1338" on="0"/>
        <pt x="705" y="1338" on="0"/>
        <pt x="636" y="1338" on="1"/>
        <pt x="367" y="1338" on="1"/>
        <pt x="367" y="860" on="1"/>
        <pt x="568" y="860" on="1"/>
        <pt x="699" y="860" on="0"/>
        <pt x="861" y="875" on="0"/>
        <pt x="940" y="912" on="0"/>
        <pt x="965" y="954" on="0"/>
        <pt x="965" y="989" on="1"/>
      </contour>
      <contour>
        <pt x="1018" y="477" on="1"/>
        <pt x="1016" y="596" on="0"/>
        <pt x="1009" y="627" on="1"/>
        <pt x="995" y="682" on="0"/>
        <pt x="940" y="702" on="1"/>
        <pt x="872" y="728" on="0"/>
        <pt x="636" y="729" on="1"/>
        <pt x="620" y="729" on="0"/>
        <pt x="601" y="729" on="1"/>
        <pt x="367" y="729" on="1"/>
        <pt x="367" y="151" on="1"/>
        <pt x="749" y="151" on="1"/>
        <pt x="865" y="151" on="0"/>
        <pt x="983" y="190" on="0"/>
        <pt x="1021" y="268" on="0"/>
        <pt x="1020" y="344" on="1"/>
      </contour>
    </TTGlyph>
    <TTGlyph name="C" xMin="132" yMin="-24" xMax="1216" yMax="1513">
      <contour>
        <pt x="1042" y="462" on="1"/>
        <pt x="1216" y="436" on="1"/>
        <pt x="1211" y="340" on="0"/>
        <pt x="1187" y="205" on="0"/>
        <pt x="1140" y="99" on="0"/>
        <pt x="1072" y="34" on="0"/>
        <pt x="965" y="-8" on="0"/>
        <pt x="832" y="-24" on="0"/>
        <pt x="738" y="-24" on="1"/>
        <pt x="648" y="-24" on="0"/>
        <pt x="506" y="-15" on="0"/>
        <pt x="389" y="16" on="0"/>
        <pt x="302" y="45" on="0"/>
        <pt x="235" y="113" on="0"/>
        <pt x="190" y="167" on="0"/>
        <pt x="159" y="278" on="0"/>
        <pt x="143" y="362" on="0"/>
        <pt x="134" y="522" on="0"/>
        <pt x="132" y="642" on="0"/>
        <pt x="132" y="748" on="1"/>
        <pt x="132" y="860" on="0"/>
        <pt x="134" y="996" on="0"/>
        <pt x="144" y="1156" on="0"/>
        <pt x="159" y="1244" on="0"/>
        <pt x="192" y="1349" on="0"/>
        <pt x="234" y="1400" on="0"/>
        <pt x="302" y="1460" on="0"/>
        <pt x="383" y="1483" on="0"/>
        <pt x="499" y="1507" on="0"/>
        <pt x="632" y="1513" on="0"/>
        <pt x="720" y="1513" on="1"/>
        <pt x="811" y="1513" on="0"/>
        <pt x="939" y="1500" on="0"/>
        <pt x="1051" y="1463" on="0"/>
        <pt x="1123" y="1402" on="0"/>
        <pt x="1178" y="1304" on="0"/>
        <pt x="1208" y="1171" on="0"/>
        <pt x="1215" y="1078" on="1"/>
        <pt x="1040" y="1044" on="1"/>
        <pt x="1035" y="1095" on="0"/>
        <pt x="1027" y="1163" on="0"/>
        <pt x="1012" y="1229" on="0"/>
        <pt x="1003" y="1270" on="0"/>
        <pt x="975" y="1309" on="0"/>
        <pt x="958" y="1329" on="0"/>
        <pt x="912" y="1347" on="0"/>
        <pt x="881" y="1354" on="0"/>
        <pt x="810" y="1360" on="0"/>
        <pt x="758" y="1360" on="0"/>
        <pt x="708" y="1360" on="1"/>
        <pt x="638" y="1360" on="0"/>
        <pt x="549" y="1357" on="0"/>
        <pt x="460" y="1346" on="0"/>
        <pt x="409" y="1325" on="0"/>
        <pt x="365" y="1290" on="0"/>
        <pt x="346" y="1239" on="0"/>
        <pt x="344" y="1203" on="1"/>
        <pt x="335" y="939" on="0"/>
        <pt x="335" y="664" on="1"/>
        <pt x="335" y="472" on="0"/>
        <pt x="344" y="289" on="1"/>
        <pt x="349" y="232" on="0"/>
        <pt x="404" y="168" on="0"/>
        <pt x="563" y="130" on="0"/>
        <pt x="709" y="130" on="1"/>
        <pt x="787" y="130" on="0"/>
        <pt x="893" y="139" on="0"/>
        <pt x="965" y="172" on="0"/>
        <pt x="1003" y="199" on="0"/>
        <pt x="1026" y="277" on="0"/>
        <pt x="1033" y="330" on="0"/>
        <pt x="1037" y="394" on="1"/>
        <pt x="1038" y="408" on="0"/>
        <pt x="1039" y="424" on="0"/>
        <pt x="1041" y="451" on="0"/>
      </contour>
    </TTGlyph>
    <TTGlyph name="Cacute" xMin="132" yMin="-24" xMax="1216" yMax="1969">
      <component glyphName="glyph00393" x="132" y="0" flags="0x0"/>
      <component glyphName="C" x="0" y="0" flags="0x1004"/>
      <component glyphName="acute" x="378" y="329" flags="0x1004"/>
    </TTGlyph>
    <TTGlyph name="Ccaron" xMin="132" yMin="-24" xMax="1216" yMax="2031">
      <component glyphName="glyph00393" x="132" y="0" flags="0x0"/>
      <component glyphName="C" x="0" y="0" flags="0x1004"/>
      <component glyphName="caron" x="321" y="225" flags="0x1004"/>
    </TTGlyph>
    <TTGlyph name="Ccedilla" xMin="132" yMin="-558" xMax="1216" yMax="1513">
      <component glyphName="glyph00393" x="132" y="0" flags="0x0"/>
      <component glyphName="C" x="0" y="0" flags="0x1004"/>
      <component glyphName="cedilla" x="362" y="-6" flags="0x1004"/>
    </TTGlyph>
    <TTGlyph name="Ccircumflex" xMin="132" yMin="-24" xMax="1216" yMax="2031">
      <component glyphName="glyph00393" x="132" y="0" flags="0x0"/>
      <component glyphName="C" x="0" y="0" flags="0x1004"/>
      <component glyphName="circumflex" x="321" y="225" flags="0x1004"/>
    </TTGlyph>
    <TTGlyph name="Cdotaccent" xMin="132" yMin="-24" xMax="1216" yMax="1844">
      <component glyphName="glyph00393" x="132" y="0" flags="0x0"/>
      <component glyphName="C" x="0" y="0" flags="0x1004"/>
      <component glyphName="dotaccent" x="501" y="409" flags="0x1004"/>
    </TTGlyph>
    <TTGlyph name="D" xMin="166" yMin="0" xMax="1273" yMax="1490">
      <contour>
        <pt x="1273" y="876" on="1"/>
        <pt x="1273" y="739" on="0"/>
        <pt x="1270" y="562" on="0"/>
        <pt x="1254" y="377" on="0"/>
        <pt x="1236" y="269" on="0"/>
        <pt x="1187" y="156" on="0"/>
        <pt x="1140" y="101" on="0"/>
        <pt x="1044" y="43" on="0"/>
        <pt x="952" y="23" on="0"/>
        <pt x="795" y="3" on="0"/>
        <pt x="644" y="0" on="0"/>
        <pt x="528" y="0" on="1"/>
        <pt x="166" y="0" on="1"/>
        <pt x="166" y="1490" on="1"/>
        <pt x="682" y="1490" on="1"/>
        <pt x="808" y="1490" on="0"/>
        <pt x="982" y="1469" on="0"/>
        <pt x="1119" y="1412" on="0"/>
        <pt x="1201" y="1326" on="0"/>
        <pt x="1254" y="1183" on="0"/>
        <pt x="1273" y="1005" on="0"/>
      </contour>
      <contour>
        <pt x="1072" y="873" on="1"/>
        <pt x="1072" y="965" on="0"/>
        <pt x="1071" y="1046" on="0"/>
        <pt x="1058" y="1168" on="0"/>
        <pt x="1035" y="1213" on="0"/>
        <pt x="985" y="1283" on="0"/>
        <pt x="918" y="1302" on="0"/>
        <pt x="809" y="1331" on="0"/>
        <pt x="675" y="1336" on="0"/>
        <pt x="579" y="1336" on="1"/>
        <pt x="369" y="1336" on="1"/>
        <pt x="369" y="153" on="1"/>
        <pt x="609" y="153" on="1"/>
        <pt x="695" y="153" on="0"/>
        <pt x="791" y="156" on="0"/>
        <pt x="903" y="170" on="0"/>
        <pt x="956" y="193" on="0"/>
        <pt x="1018" y="242" on="0"/>
        <pt x="1042" y="305" on="0"/>
        <pt x="1066" y="408" on="0"/>
        <pt x="1072" y="532" on="0"/>
        <pt x="1072" y="620" on="1"/>
      </contour>
    </TTGlyph>
    <TTGlyph name="Dcaron" xMin="166" yMin="0" xMax="1273" yMax="2031">
      <component glyphName="glyph00393" x="166" y="0" flags="0x0"/>
      <component glyphName="D" x="0" y="0" flags="0x1004"/>
      <component glyphName="caron" x="318" y="225" flags="0x1004"/>
    </TTGlyph>
    <TTGlyph name="Dcroat" xMin="78" yMin="0" xMax="1278" yMax="1490">
      <contour>
        <pt x="1278" y="876" on="1"/>
        <pt x="1278" y="739" on="0"/>
        <pt x="1275" y="562" on="0"/>
        <pt x="1259" y="377" on="0"/>
        <pt x="1241" y="269" on="0"/>
        <pt x="1192" y="156" on="0"/>
        <pt x="1145" y="101" on="0"/>
        <pt x="1049" y="43" on="0"/>
        <pt x="957" y="23" on="0"/>
        <pt x="800" y="3" on="0"/>
        <pt x="649" y="0" on="0"/>
        <pt x="533" y="0" on="1"/>
        <pt x="171" y="0" on="1"/>
        <pt x="171" y="689" on="1"/>
        <pt x="78" y="689" on="1"/>
        <pt x="78" y="826" on="1"/>
        <pt x="171" y="826" on="1"/>
        <pt x="171" y="1490" on="1"/>
        <pt x="687" y="1490" on="1"/>
        <pt x="813" y="1490" on="0"/>
        <pt x="987" y="1469" on="0"/>
        <pt x="1124" y="1412" on="0"/>
        <pt x="1206" y="1326" on="0"/>
        <pt x="1259" y="1183" on="0"/>
        <pt x="1278" y="1005" on="0"/>
      </contour>
      <contour>
        <pt x="1077" y="873" on="1"/>
        <pt x="1077" y="965" on="0"/>
        <pt x="1076" y="1046" on="0"/>
        <pt x="1063" y="1168" on="0"/>
        <pt x="1040" y="1213" on="0"/>
        <pt x="990" y="1283" on="0"/>
        <pt x="923" y="1302" on="0"/>
        <pt x="814" y="1331" on="0"/>
        <pt x="680" y="1336" on="0"/>
        <pt x="584" y="1336" on="1"/>
        <pt x="374" y="1336" on="1"/>
        <pt x="374" y="826" on="1"/>
        <pt x="642" y="826" on="1"/>
        <pt x="642" y="689" on="1"/>
        <pt x="374" y="689" on="1"/>
        <pt x="374" y="153" on="1"/>
        <pt x="614" y="153" on="1"/>
        <pt x="700" y="153" on="0"/>
        <pt x="796" y="156" on="0"/>
        <pt x="908" y="170" on="0"/>
        <pt x="961" y="193" on="0"/>
        <pt x="1023" y="242" on="0"/>
        <pt x="1047" y="305" on="0"/>
        <pt x="1071" y="408" on="0"/>
        <pt x="1077" y="532" on="0"/>
        <pt x="1077" y="620" on="1"/>
      </contour>
    </TTGlyph>
    <TTGlyph name="E" xMin="166" yMin="0" xMax="1030" yMax="1490">
      <contour>
        <pt x="1010" y="0" on="1"/>
        <pt x="166" y="0" on="1"/>
        <pt x="166" y="1490" on="1"/>
        <pt x="1001" y="1490" on="1"/>
        <pt x="1021" y="1336" on="1"/>
        <pt x="369" y="1336" on="1"/>
        <pt x="369" y="857" on="1"/>
        <pt x="926" y="857" on="1"/>
        <pt x="926" y="695" on="1"/>
        <pt x="369" y="695" on="1"/>
        <pt x="369" y="153" on="1"/>
        <pt x="1030" y="153" on="1"/>
      </contour>
    </TTGlyph>
    <TTGlyph name="Eacute" xMin="166" yMin="0" xMax="1030" yMax="1969">
      <component glyphName="glyph00393" x="166" y="0" flags="0x0"/>
      <component glyphName="E" x="0" y="0" flags="0x1004"/>
      <component glyphName="acute" x="238" y="329" flags="0x1004"/>
    </TTGlyph>
    <TTGlyph name="Ebreve" xMin="166" yMin="0" xMax="1030" yMax="1916">
      <component glyphName="glyph00393" x="166" y="0" flags="0x0"/>
      <component glyphName="E" x="0" y="0" flags="0x1004"/>
      <component glyphName="breve" x="210" y="168" flags="0x1004"/>
    </TTGlyph>
    <TTGlyph name="Ecaron" xMin="166" yMin="0" xMax="1030" yMax="2031">
      <component glyphName="glyph00393" x="166" y="0" flags="0x0"/>
      <component glyphName="E" x="0" y="0" flags="0x1004"/>
      <component glyphName="caron" x="182" y="225" flags="0x1004"/>
    </TTGlyph>
    <TTGlyph name="Ecircumflex" xMin="166" yMin="0" xMax="1030" yMax="2031">
      <component glyphName="glyph00393" x="166" y="0" flags="0x0"/>
      <component glyphName="E" x="0" y="0" flags="0x1004"/>
      <component glyphName="circumflex" x="182" y="225" flags="0x1004"/>
    </TTGlyph>
    <TTGlyph name="Edieresis" xMin="166" yMin="0" xMax="1030" yMax="1870">
      <component glyphName="glyph00393" x="166" y="0" flags="0x0"/>
      <component glyphName="E" x="0" y="0" flags="0x1004"/>
      <component glyphName="dieresis" x="96" y="1499" flags="0x1004"/>
    </TTGlyph>
    <TTGlyph name="Edotaccent" xMin="166" yMin="0" xMax="1030" yMax="1844">
      <component glyphName="glyph00393" x="166" y="0" flags="0x0"/>
      <component glyphName="E" x="0" y="0" flags="0x1004"/>
      <component glyphName="dotaccent" x="362" y="409" flags="0x1004"/>
    </TTGlyph>
    <TTGlyph name="Egrave" xMin="166" yMin="0" xMax="1030" yMax="1969">
      <component glyphName="glyph00393" x="166" y="0" flags="0x0"/>
      <component glyphName="E" x="0" y="0" flags="0x1004"/>
      <component glyphName="grave" x="256" y="329" flags="0x1004"/>
    </TTGlyph>
    <TTGlyph name="Emacron" xMin="166" yMin="0" xMax="1030" yMax="1743">
      <component glyphName="glyph00393" x="166" y="0" flags="0x0"/>
      <component glyphName="E" x="0" y="0" flags="0x1004"/>
      <component glyphName="macron" x="161" y="905" flags="0x1004"/>
    </TTGlyph>
    <TTGlyph name="Eogonek" xMin="166" yMin="-536" xMax="1030" yMax="1490">
      <component glyphName="glyph00393" x="166" y="0" flags="0x0"/>
      <component glyphName="E" x="0" y="0" flags="0x1004"/>
      <component glyphName="ogonek" x="219" y="18" flags="0x1004"/>
    </TTGlyph>
    <TTGlyph name="Eth" xMin="78" yMin="0" xMax="1278" yMax="1490">
      <contour>
        <pt x="1278" y="876" on="1"/>
        <pt x="1278" y="739" on="0"/>
        <pt x="1275" y="562" on="0"/>
        <pt x="1259" y="377" on="0"/>
        <pt x="1241" y="269" on="0"/>
        <pt x="1192" y="156" on="0"/>
        <pt x="1145" y="101" on="0"/>
        <pt x="1049" y="43" on="0"/>
        <pt x="957" y="23" on="0"/>
        <pt x="800" y="3" on="0"/>
        <pt x="649" y="0" on="0"/>
        <pt x="533" y="0" on="1"/>
        <pt x="171" y="0" on="1"/>
        <pt x="171" y="689" on="1"/>
        <pt x="78" y="689" on="1"/>
        <pt x="78" y="826" on="1"/>
        <pt x="171" y="826" on="1"/>
        <pt x="171" y="1490" on="1"/>
        <pt x="687" y="1490" on="1"/>
        <pt x="813" y="1490" on="0"/>
        <pt x="987" y="1469" on="0"/>
        <pt x="1124" y="1412" on="0"/>
        <pt x="1206" y="1326" on="0"/>
        <pt x="1259" y="1183" on="0"/>
        <pt x="1278" y="1005" on="0"/>
      </contour>
      <contour>
        <pt x="1077" y="873" on="1"/>
        <pt x="1077" y="965" on="0"/>
        <pt x="1076" y="1046" on="0"/>
        <pt x="1063" y="1168" on="0"/>
        <pt x="1040" y="1213" on="0"/>
        <pt x="990" y="1283" on="0"/>
        <pt x="923" y="1302" on="0"/>
        <pt x="814" y="1331" on="0"/>
        <pt x="680" y="1336" on="0"/>
        <pt x="584" y="1336" on="1"/>
        <pt x="374" y="1336" on="1"/>
        <pt x="374" y="826" on="1"/>
        <pt x="642" y="826" on="1"/>
        <pt x="642" y="689" on="1"/>
        <pt x="374" y="689" on="1"/>
        <pt x="374" y="153" on="1"/>
        <pt x="614" y="153" on="1"/>
        <pt x="700" y="153" on="0"/>
        <pt x="796" y="156" on="0"/>
        <pt x="908" y="170" on="0"/>
        <pt x="961" y="193" on="0"/>
        <pt x="1023" y="242" on="0"/>
        <pt x="1047" y="305" on="0"/>
        <pt x="1071" y="408" on="0"/>
        <pt x="1077" y="532" on="0"/>
        <pt x="1077" y="620" on="1"/>
      </contour>
    </TTGlyph>
    <TTGlyph name="Euro" xMin="58" yMin="-24" xMax="1216" yMax="1513">
      <contour>
        <pt x="58" y="823" on="1"/>
        <pt x="58" y="927" on="1"/>
        <pt x="972" y="928" on="1"/>
        <pt x="972" y="823" on="1"/>
      </contour>
      <contour>
        <pt x="58" y="650" on="1"/>
        <pt x="972" y="650" on="1"/>
        <pt x="972" y="549" on="1"/>
        <pt x="58" y="549" on="1"/>
      </contour>
      <contour>
        <pt x="1042" y="462" on="1"/>
        <pt x="1216" y="436" on="1"/>
        <pt x="1211" y="340" on="0"/>
        <pt x="1187" y="205" on="0"/>
        <pt x="1140" y="99" on="0"/>
        <pt x="1072" y="34" on="0"/>
        <pt x="965" y="-8" on="0"/>
        <pt x="832" y="-24" on="0"/>
        <pt x="738" y="-24" on="1"/>
        <pt x="648" y="-24" on="0"/>
        <pt x="506" y="-15" on="0"/>
        <pt x="389" y="16" on="0"/>
        <pt x="302" y="45" on="0"/>
        <pt x="235" y="113" on="0"/>
        <pt x="190" y="167" on="0"/>
        <pt x="159" y="278" on="0"/>
        <pt x="143" y="362" on="0"/>
        <pt x="134" y="522" on="0"/>
        <pt x="132" y="642" on="0"/>
        <pt x="132" y="748" on="1"/>
        <pt x="132" y="860" on="0"/>
        <pt x="134" y="996" on="0"/>
        <pt x="144" y="1156" on="0"/>
        <pt x="159" y="1244" on="0"/>
        <pt x="192" y="1349" on="0"/>
        <pt x="234" y="1400" on="0"/>
        <pt x="302" y="1460" on="0"/>
        <pt x="383" y="1483" on="0"/>
        <pt x="499" y="1507" on="0"/>
        <pt x="632" y="1513" on="0"/>
        <pt x="720" y="1513" on="1"/>
        <pt x="811" y="1513" on="0"/>
        <pt x="939" y="1500" on="0"/>
        <pt x="1051" y="1463" on="0"/>
        <pt x="1123" y="1402" on="0"/>
        <pt x="1178" y="1304" on="0"/>
        <pt x="1208" y="1171" on="0"/>
        <pt x="1215" y="1078" on="1"/>
        <pt x="1040" y="1044" on="1"/>
        <pt x="1035" y="1095" on="0"/>
        <pt x="1027" y="1163" on="0"/>
        <pt x="1012" y="1229" on="0"/>
        <pt x="1003" y="1270" on="0"/>
        <pt x="975" y="1309" on="0"/>
        <pt x="958" y="1329" on="0"/>
        <pt x="912" y="1347" on="0"/>
        <pt x="881" y="1354" on="0"/>
        <pt x="810" y="1360" on="0"/>
        <pt x="758" y="1360" on="0"/>
        <pt x="708" y="1360" on="1"/>
        <pt x="638" y="1360" on="0"/>
        <pt x="549" y="1357" on="0"/>
        <pt x="460" y="1346" on="0"/>
        <pt x="409" y="1325" on="0"/>
        <pt x="365" y="1290" on="0"/>
        <pt x="346" y="1239" on="0"/>
        <pt x="344" y="1203" on="1"/>
        <pt x="335" y="939" on="0"/>
        <pt x="335" y="664" on="1"/>
        <pt x="335" y="472" on="0"/>
        <pt x="344" y="289" on="1"/>
        <pt x="349" y="232" on="0"/>
        <pt x="404" y="168" on="0"/>
        <pt x="563" y="130" on="0"/>
        <pt x="709" y="130" on="1"/>
        <pt x="787" y="130" on="0"/>
        <pt x="893" y="139" on="0"/>
        <pt x="965" y="172" on="0"/>
        <pt x="1003" y="199" on="0"/>
        <pt x="1026" y="277" on="0"/>
        <pt x="1033" y="330" on="0"/>
        <pt x="1037" y="394" on="1"/>
        <pt x="1038" y="408" on="0"/>
        <pt x="1039" y="424" on="0"/>
        <pt x="1041" y="451" on="0"/>
      </contour>
    </TTGlyph>
    <TTGlyph name="F" xMin="171" yMin="0" xMax="989" yMax="1490">
      <contour>
        <pt x="989" y="1336" on="1"/>
        <pt x="374" y="1336" on="1"/>
        <pt x="374" y="850" on="1"/>
        <pt x="898" y="850" on="1"/>
        <pt x="898" y="688" on="1"/>
        <pt x="374" y="688" on="1"/>
        <pt x="374" y="0" on="1"/>
        <pt x="171" y="0" on="1"/>
        <pt x="171" y="1490" on="1"/>
        <pt x="969" y="1490" on="1"/>
      </contour>
    </TTGlyph>
    <TTGlyph name="G" xMin="132" yMin="-24" xMax="1236" yMax="1513">
      <contour>
        <pt x="1236" y="745" on="1"/>
        <pt x="1236" y="106" on="1"/>
        <pt x="1094" y="-24" on="0"/>
        <pt x="661" y="-24" on="1"/>
        <pt x="576" y="-24" on="0"/>
        <pt x="447" y="-10" on="0"/>
        <pt x="340" y="12" on="0"/>
        <pt x="264" y="65" on="0"/>
        <pt x="206" y="119" on="0"/>
        <pt x="170" y="222" on="0"/>
        <pt x="147" y="318" on="0"/>
        <pt x="136" y="480" on="0"/>
        <pt x="132" y="628" on="0"/>
        <pt x="132" y="744" on="1"/>
        <pt x="132" y="843" on="0"/>
        <pt x="135" y="983" on="0"/>
        <pt x="146" y="1129" on="0"/>
        <pt x="165" y="1226" on="0"/>
        <pt x="198" y="1325" on="0"/>
        <pt x="242" y="1386" on="0"/>
        <pt x="308" y="1446" on="0"/>
        <pt x="389" y="1478" on="0"/>
        <pt x="497" y="1504" on="0"/>
        <pt x="625" y="1513" on="0"/>
        <pt x="706" y="1513" on="1"/>
        <pt x="711" y="1513" on="0"/>
        <pt x="721" y="1513" on="1"/>
        <pt x="791" y="1513" on="0"/>
        <pt x="863" y="1511" on="0"/>
        <pt x="986" y="1498" on="0"/>
        <pt x="1052" y="1471" on="0"/>
        <pt x="1138" y="1418" on="0"/>
        <pt x="1180" y="1341" on="0"/>
        <pt x="1212" y="1223" on="0"/>
        <pt x="1212" y="1146" on="1"/>
        <pt x="1212" y="1128" on="0"/>
        <pt x="1210" y="1096" on="1"/>
        <pt x="1031" y="1062" on="1"/>
        <pt x="1020" y="1259" on="1"/>
        <pt x="1018" y="1323" on="0"/>
        <pt x="876" y="1360" on="0"/>
        <pt x="678" y="1360" on="1"/>
        <pt x="543" y="1360" on="0"/>
        <pt x="405" y="1327" on="0"/>
        <pt x="351" y="1259" on="0"/>
        <pt x="345" y="1192" on="1"/>
        <pt x="336" y="987" on="0"/>
        <pt x="336" y="772" on="1"/>
        <pt x="336" y="556" on="0"/>
        <pt x="345" y="352" on="1"/>
        <pt x="350" y="244" on="0"/>
        <pt x="362" y="212" on="1"/>
        <pt x="381" y="163" on="0"/>
        <pt x="449" y="146" on="1"/>
        <pt x="513" y="130" on="0"/>
        <pt x="672" y="130" on="1"/>
        <pt x="1014" y="130" on="0"/>
        <pt x="1051" y="176" on="1"/>
        <pt x="1050" y="279" on="0"/>
        <pt x="1050" y="594" on="1"/>
        <pt x="798" y="594" on="1"/>
        <pt x="781" y="745" on="1"/>
      </contour>
    </TTGlyph>
    <TTGlyph name="Gbreve" xMin="132" yMin="-24" xMax="1236" yMax="1916">
      <component glyphName="glyph00393" x="132" y="0" flags="0x0"/>
      <component glyphName="G" x="0" y="0" flags="0x1004"/>
      <component glyphName="breve" x="345" y="168" flags="0x1004"/>
    </TTGlyph>
    <TTGlyph name="Gcircumflex" xMin="132" yMin="-24" xMax="1236" yMax="2031">
      <component glyphName="glyph00393" x="132" y="0" flags="0x0"/>
      <component glyphName="G" x="0" y="0" flags="0x1004"/>
      <component glyphName="circumflex" x="316" y="225" flags="0x1004"/>
    </TTGlyph>
    <TTGlyph name="Gcommaaccent" xMin="132" yMin="-677" xMax="1236" yMax="1513">
      <component glyphName="glyph00393" x="132" y="0" flags="0x0"/>
      <component glyphName="G" x="0" y="0" flags="0x1004"/>
      <component glyphName="uni0326" x="324" y="14" flags="0x1004"/>
    </TTGlyph>
    <TTGlyph name="Gdotaccent" xMin="132" yMin="-24" xMax="1236" yMax="1844">
      <component glyphName="glyph00393" x="132" y="0" flags="0x0"/>
      <component glyphName="G" x="0" y="0" flags="0x1004"/>
      <component glyphName="dotaccent" x="496" y="409" flags="0x1004"/>
    </TTGlyph>
    <TTGlyph name="H" xMin="166" yMin="0" xMax="1238" yMax="1490">
      <contour>
        <pt x="1238" y="0" on="1"/>
        <pt x="1035" y="0" on="1"/>
        <pt x="1035" y="684" on="1"/>
        <pt x="369" y="684" on="1"/>
        <pt x="369" y="0" on="1"/>
        <pt x="166" y="0" on="1"/>
        <pt x="166" y="1490" on="1"/>
        <pt x="369" y="1490" on="1"/>
        <pt x="369" y="842" on="1"/>
        <pt x="1035" y="842" on="1"/>
        <pt x="1035" y="1490" on="1"/>
        <pt x="1238" y="1490" on="1"/>
      </contour>
    </TTGlyph>
    <TTGlyph name="Hbar" xMin="93" yMin="0" xMax="1320" yMax="1490">
      <contour>
        <pt x="1243" y="0" on="1"/>
        <pt x="1040" y="0" on="1"/>
        <pt x="1040" y="684" on="1"/>
        <pt x="374" y="684" on="1"/>
        <pt x="374" y="0" on="1"/>
        <pt x="171" y="0" on="1"/>
        <pt x="171" y="1083" on="1"/>
        <pt x="93" y="1083" on="1"/>
        <pt x="93" y="1189" on="1"/>
        <pt x="171" y="1189" on="1"/>
        <pt x="171" y="1490" on="1"/>
        <pt x="374" y="1490" on="1"/>
        <pt x="374" y="1189" on="1"/>
        <pt x="1040" y="1189" on="1"/>
        <pt x="1040" y="1490" on="1"/>
        <pt x="1243" y="1490" on="1"/>
        <pt x="1243" y="1189" on="1"/>
        <pt x="1320" y="1189" on="1"/>
        <pt x="1320" y="1083" on="1"/>
        <pt x="1243" y="1083" on="1"/>
      </contour>
      <contour>
        <pt x="374" y="1083" on="1"/>
        <pt x="374" y="842" on="1"/>
        <pt x="1040" y="842" on="1"/>
        <pt x="1040" y="1083" on="1"/>
      </contour>
    </TTGlyph>
    <TTGlyph name="Hcircumflex" xMin="166" yMin="0" xMax="1238" yMax="2031">
      <component glyphName="glyph00393" x="166" y="0" flags="0x0"/>
      <component glyphName="H" x="0" y="0" flags="0x1004"/>
      <component glyphName="circumflex" x="300" y="225" flags="0x1004"/>
    </TTGlyph>
    <TTGlyph name="I" xMin="172" yMin="0" xMax="375" yMax="1490">
      <contour>
        <pt x="375" y="0" on="1"/>
        <pt x="172" y="0" on="1"/>
        <pt x="172" y="1490" on="1"/>
        <pt x="375" y="1490" on="1"/>
      </contour>
    </TTGlyph>
    <TTGlyph name="IJ" xMin="172" yMin="-24" xMax="1107" yMax="1490">
      <component glyphName="glyph00393" x="172" y="0" flags="0x0"/>
      <component glyphName="I" x="0" y="0" flags="0x1004"/>
      <component glyphName="J" x="547" y="0" flags="0x1004"/>
    </TTGlyph>
    <TTGlyph name="Iacute" xMin="32" yMin="0" xMax="515" yMax="1969">
      <component glyphName="glyph00393" x="32" y="0" flags="0x0"/>
      <component glyphName="I" x="0" y="0" flags="0x1004"/>
      <component glyphName="acute" x="-77" y="329" flags="0x1004"/>
    </TTGlyph>
    <TTGlyph name="Ibreve" xMin="-22" yMin="0" xMax="569" yMax="1916">
      <component glyphName="glyph00393" x="0" y="0" flags="0x0"/>
      <component glyphName="I" x="0" y="0" flags="0x1004"/>
      <component glyphName="breve" x="-105" y="168" flags="0x1004"/>
    </TTGlyph>
    <TTGlyph name="Icircumflex" xMin="-13" yMin="0" xMax="559" yMax="2031">
      <component glyphName="glyph00393" x="0" y="0" flags="0x0"/>
      <component glyphName="I" x="0" y="0" flags="0x1004"/>
      <component glyphName="circumflex" x="-134" y="225" flags="0x1004"/>
    </TTGlyph>
    <TTGlyph name="Idieresis" xMin="-103" yMin="0" xMax="649" yMax="1870">
      <component glyphName="glyph00393" x="0" y="0" flags="0x0"/>
      <component glyphName="I" x="0" y="0" flags="0x1004"/>
      <component glyphName="dieresis" x="-220" y="1499" flags="0x1004"/>
    </TTGlyph>
    <TTGlyph name="Idotaccent" xMin="172" yMin="0" xMax="375" yMax="1844">
      <component glyphName="glyph00393" x="172" y="0" flags="0x0"/>
      <component glyphName="I" x="0" y="0" flags="0x1004"/>
      <component glyphName="dotaccent" x="46" y="409" flags="0x1004"/>
    </TTGlyph>
    <TTGlyph name="Igrave" xMin="32" yMin="0" xMax="515" yMax="1969">
      <component glyphName="glyph00393" x="32" y="0" flags="0x0"/>
      <component glyphName="I" x="0" y="0" flags="0x1004"/>
      <component glyphName="grave" x="-59" y="329" flags="0x1004"/>
    </TTGlyph>
    <TTGlyph name="Imacron" xMin="-25" yMin="0" xMax="572" yMax="1743">
      <component glyphName="glyph00393" x="0" y="0" flags="0x0"/>
      <component glyphName="I" x="0" y="0" flags="0x1004"/>
      <component glyphName="macron" x="-154" y="905" flags="0x1004"/>
    </TTGlyph>
    <TTGlyph name="Iogonek" xMin="-42" yMin="-536" xMax="429" yMax="1490">
      <component glyphName="glyph00393" x="0" y="0" flags="0x0"/>
      <component glyphName="I" x="0" y="0" flags="0x1004"/>
      <component glyphName="ogonek" x="-154" y="18" flags="0x1004"/>
    </TTGlyph>
    <TTGlyph name="Itilde" xMin="-65" yMin="0" xMax="612" yMax="1851">
      <component glyphName="glyph00393" x="0" y="0" flags="0x0"/>
      <component glyphName="I" x="0" y="0" flags="0x1004"/>
      <component glyphName="tilde" x="-230" y="704" flags="0x1004"/>
    </TTGlyph>
    <TTGlyph name="J" xMin="71" yMin="-24" xMax="560" yMax="1490">
      <contour>
        <pt x="560" y="1490" on="1"/>
        <pt x="560" y="432" on="1"/>
        <pt x="560" y="371" on="0"/>
        <pt x="558" y="292" on="0"/>
        <pt x="551" y="195" on="0"/>
        <pt x="536" y="134" on="0"/>
        <pt x="512" y="66" on="0"/>
        <pt x="475" y="26" on="0"/>
        <pt x="423" y="-9" on="0"/>
        <pt x="353" y="-24" on="0"/>
        <pt x="309" y="-24" on="1"/>
        <pt x="188" y="-24" on="0"/>
        <pt x="71" y="29" on="1"/>
        <pt x="92" y="183" on="1"/>
        <pt x="184" y="148" on="0"/>
        <pt x="247" y="148" on="1"/>
        <pt x="312" y="148" on="0"/>
        <pt x="357" y="230" on="0"/>
        <pt x="357" y="307" on="1"/>
        <pt x="357" y="1490" on="1"/>
      </contour>
    </TTGlyph>
    <TTGlyph name="Jcircumflex" xMin="71" yMin="-24" xMax="745" yMax="2031">
      <component glyphName="glyph00393" x="71" y="0" flags="0x0"/>
      <component glyphName="J" x="0" y="0" flags="0x1004"/>
      <component glyphName="circumflex" x="52" y="225" flags="0x1004"/>
    </TTGlyph>
    <TTGlyph name="K" xMin="166" yMin="0" xMax="1228" yMax="1490">
      <contour>
        <pt x="1228" y="0" on="1"/>
        <pt x="983" y="0" on="1"/>
        <pt x="446" y="732" on="1"/>
        <pt x="368" y="639" on="1"/>
        <pt x="368" y="0" on="1"/>
        <pt x="166" y="0" on="1"/>
        <pt x="166" y="1490" on="1"/>
        <pt x="368" y="1490" on="1"/>
        <pt x="368" y="983" on="1"/>
        <pt x="368" y="954" on="0"/>
        <pt x="367" y="829" on="0"/>
        <pt x="367" y="802" on="1"/>
        <pt x="382" y="821" on="0"/>
        <pt x="482" y="949" on="1"/>
        <pt x="921" y="1490" on="1"/>
        <pt x="1162" y="1490" on="1"/>
        <pt x="604" y="829" on="1"/>
      </contour>
    </TTGlyph>
    <TTGlyph name="Kcommaaccent" xMin="166" yMin="-653" xMax="1228" yMax="1490">
      <component glyphName="glyph00393" x="166" y="0" flags="0x0"/>
      <component glyphName="K" x="0" y="0" flags="0x1004"/>
      <component glyphName="uni0326" x="356" y="38" flags="0x1004"/>
    </TTGlyph>
    <TTGlyph name="L" xMin="166" yMin="0" xMax="943" yMax="1490">
      <contour>
        <pt x="923" y="0" on="1"/>
        <pt x="166" y="0" on="1"/>
        <pt x="166" y="1490" on="1"/>
        <pt x="369" y="1490" on="1"/>
        <pt x="369" y="153" on="1"/>
        <pt x="943" y="153" on="1"/>
      </contour>
    </TTGlyph>
    <TTGlyph name="Lacute" xMin="166" yMin="0" xMax="943" yMax="1969">
      <component glyphName="glyph00393" x="166" y="0" flags="0x0"/>
      <component glyphName="L" x="0" y="0" flags="0x1004"/>
      <component glyphName="acute" x="209" y="329" flags="0x1004"/>
    </TTGlyph>
    <TTGlyph name="Lcaron" xMin="166" yMin="0" xMax="943" yMax="1514">
      <component glyphName="glyph00393" x="166" y="0" flags="0x0"/>
      <component glyphName="L" x="0" y="0" flags="0x1004"/>
      <component glyphName="comma" x="520" y="1205" flags="0x1004"/>
    </TTGlyph>
    <TTGlyph name="Lcommaaccent" xMin="166" yMin="-653" xMax="943" yMax="1490">
      <component glyphName="glyph00393" x="166" y="0" flags="0x0"/>
      <component glyphName="L" x="0" y="0" flags="0x1004"/>
      <component glyphName="uni0326" x="210" y="38" flags="0x1004"/>
    </TTGlyph>
    <TTGlyph name="Ldot" xMin="166" yMin="0" xMax="943" yMax="1490">
      <component glyphName="glyph00393" x="166" y="0" flags="0x0"/>
      <component glyphName="L" x="0" y="0" flags="0x1004"/>
      <component glyphName="periodcentered" x="483" y="75" flags="0x1004"/>
    </TTGlyph>
    <TTGlyph name="Lslash" xMin="79" yMin="0" xMax="990" yMax="1490">
      <contour>
        <pt x="990" y="0" on="1"/>
        <pt x="213" y="0" on="1"/>
        <pt x="213" y="610" on="1"/>
        <pt x="79" y="540" on="1"/>
        <pt x="79" y="733" on="1"/>
        <pt x="213" y="803" on="1"/>
        <pt x="213" y="1490" on="1"/>
        <pt x="416" y="1490" on="1"/>
        <pt x="416" y="907" on="1"/>
        <pt x="713" y="1060" on="1"/>
        <pt x="713" y="867" on="1"/>
        <pt x="416" y="714" on="1"/>
        <pt x="416" y="171" on="1"/>
        <pt x="990" y="171" on="1"/>
      </contour>
    </TTGlyph>
    <TTGlyph name="M" xMin="113" yMin="0" xMax="1558" yMax="1499">
      <contour>
        <pt x="113" y="0" on="1"/>
        <pt x="187" y="1499" on="1"/>
        <pt x="407" y="1499" on="1"/>
        <pt x="837" y="326" on="1"/>
        <pt x="1259" y="1499" on="1"/>
        <pt x="1479" y="1499" on="1"/>
        <pt x="1558" y="0" on="1"/>
        <pt x="1360" y="0" on="1"/>
        <pt x="1308" y="1201" on="1"/>
        <pt x="894" y="0" on="1"/>
        <pt x="778" y="0" on="1"/>
        <pt x="344" y="1192" on="1"/>
        <pt x="300" y="0" on="1"/>
      </contour>
    </TTGlyph>
    <TTGlyph name="N" xMin="166" yMin="0" xMax="1265" yMax="1490">
      <contour>
        <pt x="1265" y="0" on="1"/>
        <pt x="1054" y="0" on="1"/>
        <pt x="344" y="1177" on="1"/>
        <pt x="344" y="0" on="1"/>
        <pt x="166" y="0" on="1"/>
        <pt x="166" y="1490" on="1"/>
        <pt x="371" y="1490" on="1"/>
        <pt x="1087" y="297" on="1"/>
        <pt x="1087" y="1490" on="1"/>
        <pt x="1265" y="1490" on="1"/>
      </contour>
    </TTGlyph>
    <TTGlyph name="Nacute" xMin="166" yMin="0" xMax="1265" yMax="1969">
      <component glyphName="glyph00393" x="166" y="0" flags="0x0"/>
      <component glyphName="N" x="0" y="0" flags="0x1004"/>
      <component glyphName="acute" x="370" y="329" flags="0x1004"/>
    </TTGlyph>
    <TTGlyph name="Ncaron" xMin="166" yMin="0" xMax="1265" yMax="2031">
      <component glyphName="glyph00393" x="166" y="0" flags="0x0"/>
      <component glyphName="N" x="0" y="0" flags="0x1004"/>
      <component glyphName="caron" x="314" y="225" flags="0x1004"/>
    </TTGlyph>
    <TTGlyph name="Ncommaaccent" xMin="166" yMin="-653" xMax="1265" yMax="1490">
      <component glyphName="glyph00393" x="166" y="0" flags="0x0"/>
      <component glyphName="N" x="0" y="0" flags="0x1004"/>
      <component glyphName="uni0326" x="381" y="38" flags="0x1004"/>
    </TTGlyph>
    <TTGlyph name="Ntilde" xMin="166" yMin="0" xMax="1265" yMax="1851">
      <component glyphName="glyph00393" x="166" y="0" flags="0x0"/>
      <component glyphName="N" x="0" y="0" flags="0x1004"/>
      <component glyphName="tilde" x="217" y="704" flags="0x1004"/>
    </TTGlyph>
    <TTGlyph name="O" xMin="132" yMin="-24" xMax="1288" yMax="1514">
      <contour>
        <pt x="710" y="-24" on="1"/>
        <pt x="623" y="-24" on="0"/>
        <pt x="488" y="-16" on="0"/>
        <pt x="374" y="15" on="0"/>
        <pt x="293" y="41" on="0"/>
        <pt x="228" y="114" on="0"/>
        <pt x="186" y="167" on="0"/>
        <pt x="156" y="290" on="0"/>
        <pt x="142" y="377" on="0"/>
        <pt x="133" y="559" on="0"/>
        <pt x="132" y="689" on="0"/>
        <pt x="132" y="812" on="1"/>
        <pt x="132" y="960" on="0"/>
        <pt x="148" y="1156" on="0"/>
        <pt x="195" y="1324" on="0"/>
        <pt x="272" y="1420" on="0"/>
        <pt x="405" y="1489" on="0"/>
        <pt x="582" y="1514" on="0"/>
        <pt x="710" y="1514" on="1"/>
        <pt x="831" y="1514" on="0"/>
        <pt x="1003" y="1490" on="0"/>
        <pt x="1136" y="1429" on="0"/>
        <pt x="1217" y="1338" on="0"/>
        <pt x="1269" y="1190" on="0"/>
        <pt x="1288" y="1007" on="0"/>
        <pt x="1288" y="876" on="1"/>
        <pt x="1288" y="506" on="0"/>
        <pt x="1277" y="389" on="1"/>
        <pt x="1258" y="189" on="0"/>
        <pt x="1185" y="103" on="1"/>
        <pt x="1108" y="11" on="0"/>
        <pt x="923" y="-13" on="1"/>
        <pt x="835" y="-24" on="0"/>
      </contour>
      <contour>
        <pt x="796" y="1360" on="0"/>
        <pt x="624" y="1360" on="0"/>
        <pt x="510" y="1352" on="0"/>
        <pt x="425" y="1326" on="0"/>
        <pt x="379" y="1294" on="0"/>
        <pt x="350" y="1227" on="0"/>
        <pt x="341" y="1157" on="0"/>
        <pt x="339" y="1097" on="1"/>
        <pt x="336" y="912" on="0"/>
        <pt x="336" y="725" on="1"/>
        <pt x="336" y="443" on="0"/>
        <pt x="351" y="339" on="1"/>
        <pt x="375" y="183" on="0"/>
        <pt x="442" y="159" on="1"/>
        <pt x="492" y="130" on="0"/>
        <pt x="928" y="130" on="0"/>
        <pt x="978" y="159" on="1"/>
        <pt x="997" y="166" on="0"/>
        <pt x="1028" y="198" on="0"/>
        <pt x="1049" y="252" on="0"/>
        <pt x="1065" y="307" on="0"/>
        <pt x="1075" y="393" on="0"/>
        <pt x="1081" y="462" on="0"/>
        <pt x="1083" y="569" on="0"/>
        <pt x="1084" y="639" on="0"/>
        <pt x="1084" y="697" on="1"/>
        <pt x="1084" y="899" on="0"/>
        <pt x="1081" y="1097" on="1"/>
        <pt x="1079" y="1157" on="0"/>
        <pt x="1070" y="1227" on="0"/>
        <pt x="1041" y="1294" on="0"/>
        <pt x="995" y="1326" on="0"/>
        <pt x="910" y="1352" on="0"/>
      </contour>
    </TTGlyph>
    <TTGlyph name="OE" xMin="137" yMin="0" xMax="1953" yMax="1490">
      <contour>
        <pt x="1933" y="0" on="1"/>
        <pt x="715" y="0" on="1"/>
        <pt x="628" y="0" on="0"/>
        <pt x="493" y="8" on="0"/>
        <pt x="379" y="38" on="0"/>
        <pt x="298" y="63" on="0"/>
        <pt x="233" y="134" on="0"/>
        <pt x="191" y="185" on="0"/>
        <pt x="161" y="305" on="0"/>
        <pt x="147" y="389" on="0"/>
        <pt x="138" y="566" on="0"/>
        <pt x="137" y="692" on="0"/>
        <pt x="137" y="812" on="1"/>
        <pt x="137" y="954" on="0"/>
        <pt x="153" y="1144" on="0"/>
        <pt x="200" y="1306" on="0"/>
        <pt x="277" y="1399" on="0"/>
        <pt x="410" y="1466" on="0"/>
        <pt x="587" y="1490" on="0"/>
        <pt x="715" y="1490" on="1"/>
        <pt x="1924" y="1490" on="1"/>
        <pt x="1944" y="1336" on="1"/>
        <pt x="1292" y="1336" on="1"/>
        <pt x="1292" y="857" on="1"/>
        <pt x="1849" y="857" on="1"/>
        <pt x="1849" y="695" on="1"/>
        <pt x="1292" y="695" on="1"/>
        <pt x="1292" y="153" on="1"/>
        <pt x="1953" y="153" on="1"/>
      </contour>
      <contour>
        <pt x="715" y="1337" on="1"/>
        <pt x="650" y="1337" on="0"/>
        <pt x="556" y="1333" on="0"/>
        <pt x="478" y="1321" on="0"/>
        <pt x="427" y="1306" on="0"/>
        <pt x="388" y="1275" on="0"/>
        <pt x="366" y="1244" on="0"/>
        <pt x="351" y="1191" on="0"/>
        <pt x="346" y="1138" on="0"/>
        <pt x="344" y="1097" on="1"/>
        <pt x="341" y="912" on="0"/>
        <pt x="341" y="725" on="1"/>
        <pt x="341" y="721" on="0"/>
        <pt x="341" y="712" on="1"/>
        <pt x="341" y="664" on="0"/>
        <pt x="341" y="614" on="0"/>
        <pt x="342" y="523" on="0"/>
        <pt x="345" y="472" on="0"/>
        <pt x="350" y="393" on="0"/>
        <pt x="358" y="347" on="0"/>
        <pt x="369" y="285" on="0"/>
        <pt x="385" y="248" on="0"/>
        <pt x="405" y="210" on="0"/>
        <pt x="431" y="188" on="0"/>
        <pt x="447" y="183" on="1"/>
        <pt x="497" y="154" on="0"/>
        <pt x="715" y="154" on="1"/>
        <pt x="1089" y="154" on="1"/>
        <pt x="1089" y="1337" on="1"/>
      </contour>
    </TTGlyph>
    <TTGlyph name="Oacute" xMin="132" yMin="-24" xMax="1288" yMax="1969">
      <component glyphName="glyph00393" x="132" y="0" flags="0x0"/>
      <component glyphName="O" x="0" y="0" flags="0x1004"/>
      <component glyphName="acute" x="364" y="329" flags="0x1004"/>
    </TTGlyph>
    <TTGlyph name="Obreve" xMin="132" yMin="-24" xMax="1288" yMax="1916">
      <component glyphName="glyph00393" x="132" y="0" flags="0x0"/>
      <component glyphName="O" x="0" y="0" flags="0x1004"/>
      <component glyphName="breve" x="336" y="168" flags="0x1004"/>
    </TTGlyph>
    <TTGlyph name="Ocircumflex" xMin="132" yMin="-24" xMax="1288" yMax="2031">
      <component glyphName="glyph00393" x="132" y="0" flags="0x0"/>
      <component glyphName="O" x="0" y="0" flags="0x1004"/>
      <component glyphName="circumflex" x="308" y="225" flags="0x1004"/>
    </TTGlyph>
    <TTGlyph name="Odieresis" xMin="132" yMin="-24" xMax="1288" yMax="1870">
      <component glyphName="glyph00393" x="132" y="0" flags="0x0"/>
      <component glyphName="O" x="0" y="0" flags="0x1004"/>
      <component glyphName="dieresis" x="222" y="1499" flags="0x1004"/>
    </TTGlyph>
    <TTGlyph name="Ograve" xMin="132" yMin="-24" xMax="1288" yMax="1969">
      <component glyphName="glyph00393" x="132" y="0" flags="0x0"/>
      <component glyphName="O" x="0" y="0" flags="0x1004"/>
      <component glyphName="grave" x="382" y="329" flags="0x1004"/>
    </TTGlyph>
    <TTGlyph name="Ohungarumlaut" xMin="132" yMin="-24" xMax="1324" yMax="1969">
      <component glyphName="glyph00393" x="132" y="0" flags="0x0"/>
      <component glyphName="O" x="0" y="0" flags="0x1004"/>
      <component glyphName="hungarumlaut" x="321" y="329" flags="0x1004"/>
    </TTGlyph>
    <TTGlyph name="Omacron" xMin="132" yMin="-24" xMax="1288" yMax="1743">
      <component glyphName="glyph00393" x="132" y="0" flags="0x0"/>
      <component glyphName="O" x="0" y="0" flags="0x1004"/>
      <component glyphName="macron" x="288" y="905" flags="0x1004"/>
    </TTGlyph>
    <TTGlyph name="Oslash" xMin="137" yMin="-300" xMax="1293" yMax="1759">
      <contour>
        <pt x="1060" y="1759" on="1"/>
        <pt x="469" y="-300" on="1"/>
        <pt x="336" y="-300" on="1"/>
        <pt x="927" y="1759" on="1"/>
      </contour>
      <contour>
        <pt x="715" y="-24" on="1"/>
        <pt x="628" y="-24" on="0"/>
        <pt x="493" y="-16" on="0"/>
        <pt x="379" y="15" on="0"/>
        <pt x="298" y="41" on="0"/>
        <pt x="233" y="114" on="0"/>
        <pt x="191" y="167" on="0"/>
        <pt x="161" y="290" on="0"/>
        <pt x="147" y="377" on="0"/>
        <pt x="138" y="559" on="0"/>
        <pt x="137" y="689" on="0"/>
        <pt x="137" y="812" on="1"/>
        <pt x="137" y="960" on="0"/>
        <pt x="153" y="1156" on="0"/>
        <pt x="200" y="1324" on="0"/>
        <pt x="277" y="1420" on="0"/>
        <pt x="410" y="1489" on="0"/>
        <pt x="587" y="1514" on="0"/>
        <pt x="715" y="1514" on="1"/>
        <pt x="836" y="1514" on="0"/>
        <pt x="1008" y="1490" on="0"/>
        <pt x="1141" y="1429" on="0"/>
        <pt x="1222" y="1338" on="0"/>
        <pt x="1274" y="1190" on="0"/>
        <pt x="1293" y="1007" on="0"/>
        <pt x="1293" y="876" on="1"/>
        <pt x="1293" y="506" on="0"/>
        <pt x="1282" y="389" on="1"/>
        <pt x="1263" y="189" on="0"/>
        <pt x="1190" y="103" on="1"/>
        <pt x="1113" y="11" on="0"/>
        <pt x="928" y="-13" on="1"/>
        <pt x="840" y="-24" on="0"/>
      </contour>
      <contour>
        <pt x="801" y="1360" on="0"/>
        <pt x="629" y="1360" on="0"/>
        <pt x="515" y="1352" on="0"/>
        <pt x="430" y="1326" on="0"/>
        <pt x="384" y="1294" on="0"/>
        <pt x="355" y="1227" on="0"/>
        <pt x="346" y="1157" on="0"/>
        <pt x="344" y="1097" on="1"/>
        <pt x="341" y="912" on="0"/>
        <pt x="341" y="725" on="1"/>
        <pt x="341" y="443" on="0"/>
        <pt x="356" y="339" on="1"/>
        <pt x="380" y="183" on="0"/>
        <pt x="447" y="159" on="1"/>
        <pt x="497" y="130" on="0"/>
        <pt x="933" y="130" on="0"/>
        <pt x="983" y="159" on="1"/>
        <pt x="1002" y="166" on="0"/>
        <pt x="1033" y="198" on="0"/>
        <pt x="1054" y="252" on="0"/>
        <pt x="1070" y="307" on="0"/>
        <pt x="1080" y="393" on="0"/>
        <pt x="1086" y="462" on="0"/>
        <pt x="1088" y="569" on="0"/>
        <pt x="1089" y="639" on="0"/>
        <pt x="1089" y="697" on="1"/>
        <pt x="1089" y="899" on="0"/>
        <pt x="1086" y="1097" on="1"/>
        <pt x="1084" y="1157" on="0"/>
        <pt x="1075" y="1227" on="0"/>
        <pt x="1046" y="1294" on="0"/>
        <pt x="1000" y="1326" on="0"/>
        <pt x="915" y="1352" on="0"/>
      </contour>
    </TTGlyph>
    <TTGlyph name="Otilde" xMin="132" yMin="-24" xMax="1288" yMax="1851">
      <component glyphName="glyph00393" x="132" y="0" flags="0x0"/>
      <component glyphName="O" x="0" y="0" flags="0x1004"/>
      <component glyphName="tilde" x="212" y="704" flags="0x1004"/>
    </TTGlyph>
    <TTGlyph name="P" xMin="166" yMin="0" xMax="1172" yMax="1490">
      <contour>
        <pt x="1172" y="1004" on="1"/>
        <pt x="1172" y="913" on="0"/>
        <pt x="1152" y="771" on="0"/>
        <pt x="1119" y="670" on="0"/>
        <pt x="1062" y="598" on="0"/>
        <pt x="999" y="554" on="0"/>
        <pt x="910" y="529" on="0"/>
        <pt x="823" y="521" on="0"/>
        <pt x="765" y="521" on="1"/>
        <pt x="368" y="521" on="1"/>
        <pt x="368" y="0" on="1"/>
        <pt x="166" y="0" on="1"/>
        <pt x="166" y="1490" on="1"/>
        <pt x="706" y="1490" on="1"/>
        <pt x="799" y="1490" on="0"/>
        <pt x="928" y="1475" on="0"/>
        <pt x="1038" y="1435" on="0"/>
        <pt x="1104" y="1367" on="0"/>
        <pt x="1152" y="1257" on="0"/>
        <pt x="1171" y="1108" on="0"/>
      </contour>
      <contour>
        <pt x="970" y="1015" on="1"/>
        <pt x="969" y="1087" on="0"/>
        <pt x="963" y="1177" on="0"/>
        <pt x="946" y="1257" on="0"/>
        <pt x="919" y="1299" on="0"/>
        <pt x="872" y="1330" on="0"/>
        <pt x="809" y="1340" on="0"/>
        <pt x="762" y="1340" on="1"/>
        <pt x="368" y="1340" on="1"/>
        <pt x="368" y="672" on="1"/>
        <pt x="721" y="672" on="1"/>
        <pt x="799" y="672" on="0"/>
        <pt x="897" y="698" on="0"/>
        <pt x="952" y="759" on="0"/>
        <pt x="971" y="841" on="0"/>
        <pt x="971" y="906" on="1"/>
        <pt x="971" y="922" on="0"/>
        <pt x="970" y="994" on="0"/>
      </contour>
    </TTGlyph>
    <TTGlyph name="Q" xMin="132" yMin="-358" xMax="1288" yMax="1514">
      <contour>
        <pt x="796" y="1360" on="0"/>
        <pt x="624" y="1360" on="0"/>
        <pt x="510" y="1352" on="0"/>
        <pt x="425" y="1326" on="0"/>
        <pt x="379" y="1294" on="0"/>
        <pt x="350" y="1227" on="0"/>
        <pt x="341" y="1157" on="0"/>
        <pt x="339" y="1097" on="1"/>
        <pt x="336" y="912" on="0"/>
        <pt x="336" y="725" on="1"/>
        <pt x="336" y="443" on="0"/>
        <pt x="351" y="339" on="1"/>
        <pt x="375" y="183" on="0"/>
        <pt x="442" y="159" on="1"/>
        <pt x="492" y="130" on="0"/>
        <pt x="928" y="130" on="0"/>
        <pt x="978" y="159" on="1"/>
        <pt x="997" y="166" on="0"/>
        <pt x="1028" y="198" on="0"/>
        <pt x="1049" y="252" on="0"/>
        <pt x="1065" y="307" on="0"/>
        <pt x="1075" y="393" on="0"/>
        <pt x="1081" y="462" on="0"/>
        <pt x="1083" y="569" on="0"/>
        <pt x="1084" y="639" on="0"/>
        <pt x="1084" y="697" on="1"/>
        <pt x="1084" y="899" on="0"/>
        <pt x="1081" y="1097" on="1"/>
        <pt x="1079" y="1157" on="0"/>
        <pt x="1070" y="1227" on="0"/>
        <pt x="1041" y="1294" on="0"/>
        <pt x="995" y="1326" on="0"/>
        <pt x="910" y="1352" on="0"/>
      </contour>
      <contour>
        <pt x="710" y="-24" on="1"/>
        <pt x="623" y="-24" on="0"/>
        <pt x="488" y="-16" on="0"/>
        <pt x="374" y="15" on="0"/>
        <pt x="293" y="41" on="0"/>
        <pt x="228" y="114" on="0"/>
        <pt x="186" y="167" on="0"/>
        <pt x="156" y="290" on="0"/>
        <pt x="142" y="377" on="0"/>
        <pt x="133" y="559" on="0"/>
        <pt x="132" y="689" on="0"/>
        <pt x="132" y="812" on="1"/>
        <pt x="132" y="960" on="0"/>
        <pt x="148" y="1156" on="0"/>
        <pt x="195" y="1324" on="0"/>
        <pt x="272" y="1420" on="0"/>
        <pt x="405" y="1489" on="0"/>
        <pt x="582" y="1514" on="0"/>
        <pt x="710" y="1514" on="1"/>
        <pt x="831" y="1514" on="0"/>
        <pt x="1003" y="1490" on="0"/>
        <pt x="1136" y="1429" on="0"/>
        <pt x="1217" y="1338" on="0"/>
        <pt x="1269" y="1190" on="0"/>
        <pt x="1288" y="1007" on="0"/>
        <pt x="1288" y="876" on="1"/>
        <pt x="1288" y="865" on="0"/>
        <pt x="1288" y="843" on="1"/>
        <pt x="1288" y="719" on="0"/>
        <pt x="1287" y="604" on="0"/>
        <pt x="1282" y="418" on="0"/>
        <pt x="1270" y="335" on="0"/>
        <pt x="1249" y="208" on="0"/>
        <pt x="1216" y="149" on="0"/>
        <pt x="1167" y="75" on="0"/>
        <pt x="1102" y="34" on="0"/>
        <pt x="1059" y="18" on="1"/>
        <pt x="1226" y="-243" on="1"/>
        <pt x="1087" y="-358" on="1"/>
        <pt x="864" y="-19" on="1"/>
        <pt x="806" y="-24" on="0"/>
      </contour>
    </TTGlyph>
    <TTGlyph name="R" xMin="166" yMin="0" xMax="1231" yMax="1490">
      <contour>
        <pt x="1199" y="1080" on="1"/>
        <pt x="1199" y="889" on="0"/>
        <pt x="1055" y="704" on="0"/>
        <pt x="926" y="683" on="1"/>
        <pt x="1118" y="644" on="0"/>
        <pt x="1154" y="439" on="1"/>
        <pt x="1231" y="0" on="1"/>
        <pt x="1014" y="0" on="1"/>
        <pt x="1006" y="46" on="0"/>
        <pt x="985" y="221" on="0"/>
        <pt x="967" y="342" on="0"/>
        <pt x="937" y="478" on="0"/>
        <pt x="888" y="570" on="0"/>
        <pt x="854" y="592" on="1"/>
        <pt x="800" y="615" on="0"/>
        <pt x="677" y="615" on="1"/>
        <pt x="368" y="615" on="1"/>
        <pt x="368" y="0" on="1"/>
        <pt x="166" y="0" on="1"/>
        <pt x="166" y="1490" on="1"/>
        <pt x="621" y="1490" on="1"/>
        <pt x="693" y="1490" on="0"/>
        <pt x="794" y="1487" on="0"/>
        <pt x="906" y="1477" on="0"/>
        <pt x="982" y="1459" on="0"/>
        <pt x="1061" y="1429" on="0"/>
        <pt x="1112" y="1385" on="0"/>
        <pt x="1158" y="1324" on="0"/>
        <pt x="1184" y="1245" on="0"/>
        <pt x="1199" y="1143" on="0"/>
      </contour>
      <contour>
        <pt x="999" y="1001" on="1"/>
        <pt x="999" y="1140" on="1"/>
        <pt x="999" y="1178" on="0"/>
        <pt x="996" y="1221" on="0"/>
        <pt x="984" y="1270" on="0"/>
        <pt x="959" y="1295" on="0"/>
        <pt x="918" y="1320" on="0"/>
        <pt x="853" y="1330" on="0"/>
        <pt x="766" y="1337" on="0"/>
        <pt x="705" y="1337" on="1"/>
        <pt x="368" y="1337" on="1"/>
        <pt x="368" y="774" on="1"/>
        <pt x="717" y="774" on="1"/>
        <pt x="794" y="774" on="0"/>
        <pt x="894" y="790" on="0"/>
        <pt x="957" y="819" on="0"/>
        <pt x="989" y="878" on="0"/>
        <pt x="999" y="945" on="0"/>
      </contour>
    </TTGlyph>
    <TTGlyph name="Racute" xMin="166" yMin="0" xMax="1231" yMax="1969">
      <component glyphName="glyph00393" x="166" y="0" flags="0x0"/>
      <component glyphName="R" x="0" y="0" flags="0x1004"/>
      <component glyphName="acute" x="452" y="329" flags="0x1004"/>
    </TTGlyph>
    <TTGlyph name="Rcaron" xMin="166" yMin="0" xMax="1231" yMax="2031">
      <component glyphName="glyph00393" x="166" y="0" flags="0x0"/>
      <component glyphName="R" x="0" y="0" flags="0x1004"/>
      <component glyphName="caron" x="296" y="225" flags="0x1004"/>
    </TTGlyph>
    <TTGlyph name="Rcommaaccent" xMin="166" yMin="-653" xMax="1231" yMax="1490">
      <component glyphName="glyph00393" x="166" y="0" flags="0x0"/>
      <component glyphName="R" x="0" y="0" flags="0x1004"/>
      <component glyphName="uni0326" x="364" y="38" flags="0x1004"/>
    </TTGlyph>
    <TTGlyph name="S" xMin="119" yMin="-24" xMax="1144" yMax="1513">
      <contour>
        <pt x="1144" y="437" on="1"/>
        <pt x="1144" y="372" on="0"/>
        <pt x="1136" y="267" on="0"/>
        <pt x="1115" y="180" on="0"/>
        <pt x="1091" y="114" on="0"/>
        <pt x="1047" y="63" on="0"/>
        <pt x="1004" y="27" on="0"/>
        <pt x="935" y="2" on="0"/>
        <pt x="871" y="-13" on="0"/>
        <pt x="775" y="-21" on="0"/>
        <pt x="688" y="-24" on="0"/>
        <pt x="625" y="-24" on="1"/>
        <pt x="506" y="-24" on="0"/>
        <pt x="345" y="-10" on="0"/>
        <pt x="232" y="36" on="0"/>
        <pt x="170" y="85" on="0"/>
        <pt x="134" y="192" on="0"/>
        <pt x="123" y="290" on="0"/>
        <pt x="119" y="380" on="1"/>
        <pt x="304" y="410" on="1"/>
        <pt x="307" y="388" on="0"/>
        <pt x="310" y="348" on="1"/>
        <pt x="316" y="286" on="0"/>
        <pt x="327" y="235" on="0"/>
        <pt x="359" y="173" on="0"/>
        <pt x="427" y="154" on="0"/>
        <pt x="537" y="140" on="0"/>
        <pt x="629" y="140" on="1"/>
        <pt x="705" y="140" on="0"/>
        <pt x="803" y="148" on="0"/>
        <pt x="877" y="173" on="0"/>
        <pt x="915" y="205" on="0"/>
        <pt x="938" y="272" on="0"/>
        <pt x="944" y="344" on="0"/>
        <pt x="943" y="404" on="1"/>
        <pt x="942" y="536" on="0"/>
        <pt x="915" y="637" on="0"/>
        <pt x="871" y="646" on="1"/>
        <pt x="373" y="733" on="1"/>
        <pt x="243" y="755" on="0"/>
        <pt x="141" y="909" on="0"/>
        <pt x="138" y="1081" on="1"/>
        <pt x="138" y="1173" on="0"/>
        <pt x="157" y="1304" on="0"/>
        <pt x="204" y="1403" on="0"/>
        <pt x="273" y="1463" on="0"/>
        <pt x="386" y="1500" on="0"/>
        <pt x="521" y="1513" on="0"/>
        <pt x="619" y="1513" on="1"/>
        <pt x="699" y="1513" on="0"/>
        <pt x="814" y="1506" on="0"/>
        <pt x="923" y="1488" on="0"/>
        <pt x="995" y="1456" on="0"/>
        <pt x="1056" y="1405" on="0"/>
        <pt x="1090" y="1332" on="0"/>
        <pt x="1108" y="1234" on="0"/>
        <pt x="1108" y="1170" on="1"/>
        <pt x="930" y="1129" on="1"/>
        <pt x="920" y="1239" on="0"/>
        <pt x="917" y="1254" on="1"/>
        <pt x="905" y="1305" on="0"/>
        <pt x="860" y="1323" on="1"/>
        <pt x="810" y="1344" on="0"/>
        <pt x="651" y="1344" on="1"/>
        <pt x="564" y="1344" on="0"/>
        <pt x="451" y="1334" on="0"/>
        <pt x="379" y="1315" on="0"/>
        <pt x="344" y="1277" on="0"/>
        <pt x="332" y="1234" on="0"/>
        <pt x="332" y="1199" on="1"/>
        <pt x="332" y="1026" on="1"/>
        <pt x="332" y="932" on="0"/>
        <pt x="414" y="918" on="1"/>
        <pt x="772" y="857" on="1"/>
        <pt x="822" y="849" on="0"/>
        <pt x="882" y="837" on="0"/>
        <pt x="960" y="817" on="0"/>
        <pt x="1004" y="795" on="0"/>
        <pt x="1058" y="761" on="0"/>
        <pt x="1088" y="719" on="0"/>
        <pt x="1119" y="661" on="0"/>
        <pt x="1134" y="588" on="0"/>
        <pt x="1144" y="495" on="0"/>
      </contour>
    </TTGlyph>
    <TTGlyph name="Sacute" xMin="119" yMin="-24" xMax="1144" yMax="1969">
      <component glyphName="glyph00393" x="119" y="0" flags="0x0"/>
      <component glyphName="S" x="0" y="0" flags="0x1004"/>
      <component glyphName="acute" x="428" y="329" flags="0x1004"/>
    </TTGlyph>
    <TTGlyph name="Scaron" xMin="119" yMin="-24" xMax="1144" yMax="2031">
      <component glyphName="glyph00393" x="119" y="0" flags="0x0"/>
      <component glyphName="S" x="0" y="0" flags="0x1004"/>
      <component glyphName="caron" x="224" y="225" flags="0x1004"/>
    </TTGlyph>
    <TTGlyph name="Scedilla" xMin="119" yMin="-558" xMax="1144" yMax="1513">
      <component glyphName="glyph00393" x="119" y="0" flags="0x0"/>
      <component glyphName="S" x="0" y="0" flags="0x1004"/>
      <component glyphName="cedilla" x="254" y="-6" flags="0x1004"/>
    </TTGlyph>
    <TTGlyph name="Scircumflex" xMin="119" yMin="-24" xMax="1144" yMax="2031">
      <component glyphName="glyph00393" x="119" y="0" flags="0x0"/>
      <component glyphName="S" x="0" y="0" flags="0x1004"/>
      <component glyphName="circumflex" x="224" y="225" flags="0x1004"/>
    </TTGlyph>
    <TTGlyph name="Scommaaccent" xMin="119" yMin="-677" xMax="1144" yMax="1513">
      <component glyphName="glyph00393" x="119" y="0" flags="0x0"/>
      <component glyphName="S" x="0" y="0" flags="0x1004"/>
      <component glyphName="uni0326" x="298" y="14" flags="0x1004"/>
    </TTGlyph>
    <TTGlyph name="T" xMin="3" yMin="0" xMax="976" yMax="1490">
      <contour>
        <pt x="976" y="1336" on="1"/>
        <pt x="587" y="1336" on="1"/>
        <pt x="587" y="0" on="1"/>
        <pt x="384" y="0" on="1"/>
        <pt x="384" y="1336" on="1"/>
        <pt x="3" y="1336" on="1"/>
        <pt x="3" y="1490" on="1"/>
        <pt x="976" y="1490" on="1"/>
      </contour>
    </TTGlyph>
    <TTGlyph name="Tcaron" xMin="3" yMin="0" xMax="976" yMax="2031">
      <component glyphName="glyph00393" x="3" y="0" flags="0x0"/>
      <component glyphName="T" x="0" y="0" flags="0x1004"/>
      <component glyphName="caron" x="92" y="225" flags="0x1004"/>
    </TTGlyph>
    <TTGlyph name="Tcommaaccent" xMin="3" yMin="-534" xMax="976" yMax="1490">
      <component glyphName="glyph00393" x="3" y="0" flags="0x0"/>
      <component glyphName="T" x="0" y="0" flags="0x1004"/>
      <component glyphName="cedilla" x="111" y="18" flags="0x1004"/>
    </TTGlyph>
    <TTGlyph name="Thorn" xMin="171" yMin="0" xMax="1176" yMax="1489">
      <contour>
        <pt x="1176" y="832" on="1"/>
        <pt x="1176" y="737" on="0"/>
        <pt x="1142" y="588" on="0"/>
        <pt x="1077" y="492" on="0"/>
        <pt x="998" y="427" on="0"/>
        <pt x="892" y="394" on="0"/>
        <pt x="795" y="381" on="0"/>
        <pt x="736" y="381" on="1"/>
        <pt x="709" y="381" on="0"/>
        <pt x="611" y="383" on="0"/>
        <pt x="589" y="383" on="1"/>
        <pt x="371" y="383" on="1"/>
        <pt x="371" y="0" on="1"/>
        <pt x="171" y="0" on="1"/>
        <pt x="171" y="1489" on="1"/>
        <pt x="371" y="1489" on="1"/>
        <pt x="371" y="1284" on="1"/>
        <pt x="616" y="1284" on="1"/>
        <pt x="728" y="1284" on="0"/>
        <pt x="883" y="1270" on="0"/>
        <pt x="1015" y="1232" on="0"/>
        <pt x="1096" y="1170" on="0"/>
        <pt x="1153" y="1067" on="0"/>
        <pt x="1176" y="929" on="0"/>
      </contour>
      <contour>
        <pt x="977" y="832" on="1"/>
        <pt x="977" y="886" on="0"/>
        <pt x="973" y="958" on="0"/>
        <pt x="956" y="1023" on="0"/>
        <pt x="937" y="1061" on="0"/>
        <pt x="891" y="1093" on="0"/>
        <pt x="845" y="1108" on="0"/>
        <pt x="757" y="1118" on="0"/>
        <pt x="672" y="1120" on="0"/>
        <pt x="603" y="1120" on="1"/>
        <pt x="371" y="1120" on="1"/>
        <pt x="371" y="551" on="1"/>
        <pt x="694" y="551" on="1"/>
        <pt x="765" y="551" on="0"/>
        <pt x="862" y="562" on="0"/>
        <pt x="925" y="599" on="0"/>
        <pt x="959" y="630" on="0"/>
        <pt x="974" y="709" on="0"/>
        <pt x="977" y="763" on="0"/>
        <pt x="977" y="824" on="1"/>
        <pt x="977" y="829" on="0"/>
      </contour>
    </TTGlyph>
    <TTGlyph name="U" xMin="152" yMin="-24" xMax="1277" yMax="1490">
      <contour>
        <pt x="1277" y="1490" on="1"/>
        <pt x="1277" y="557" on="1"/>
        <pt x="1277" y="437" on="0"/>
        <pt x="1256" y="265" on="0"/>
        <pt x="1202" y="132" on="0"/>
        <pt x="1121" y="49" on="0"/>
        <pt x="990" y="-4" on="0"/>
        <pt x="828" y="-24" on="0"/>
        <pt x="713" y="-24" on="1"/>
        <pt x="602" y="-24" on="0"/>
        <pt x="446" y="-6" on="0"/>
        <pt x="314" y="43" on="0"/>
        <pt x="233" y="124" on="0"/>
        <pt x="175" y="255" on="0"/>
        <pt x="152" y="433" on="0"/>
        <pt x="152" y="557" on="1"/>
        <pt x="152" y="1490" on="1"/>
        <pt x="355" y="1490" on="1"/>
        <pt x="355" y="531" on="1"/>
        <pt x="355" y="448" on="0"/>
        <pt x="356" y="374" on="0"/>
        <pt x="366" y="267" on="0"/>
        <pt x="382" y="228" on="0"/>
        <pt x="419" y="170" on="0"/>
        <pt x="466" y="155" on="0"/>
        <pt x="548" y="133" on="0"/>
        <pt x="643" y="130" on="0"/>
        <pt x="714" y="130" on="1"/>
        <pt x="798" y="130" on="0"/>
        <pt x="911" y="140" on="0"/>
        <pt x="995" y="170" on="0"/>
        <pt x="1040" y="209" on="0"/>
        <pt x="1067" y="285" on="0"/>
        <pt x="1075" y="367" on="0"/>
        <pt x="1075" y="435" on="1"/>
        <pt x="1074" y="1490" on="1"/>
      </contour>
    </TTGlyph>
    <TTGlyph name="Uacute" xMin="152" yMin="-24" xMax="1277" yMax="1969">
      <component glyphName="glyph00393" x="152" y="0" flags="0x0"/>
      <component glyphName="U" x="0" y="0" flags="0x1004"/>
      <component glyphName="acute" x="369" y="329" flags="0x1004"/>
    </TTGlyph>
    <TTGlyph name="Ubreve" xMin="152" yMin="-24" xMax="1277" yMax="1916">
      <component glyphName="glyph00393" x="152" y="0" flags="0x0"/>
      <component glyphName="U" x="0" y="0" flags="0x1004"/>
      <component glyphName="breve" x="341" y="168" flags="0x1004"/>
    </TTGlyph>
    <TTGlyph name="Ucircumflex" xMin="152" yMin="-24" xMax="1277" yMax="2031">
      <component glyphName="glyph00393" x="152" y="0" flags="0x0"/>
      <component glyphName="U" x="0" y="0" flags="0x1004"/>
      <component glyphName="circumflex" x="312" y="225" flags="0x1004"/>
    </TTGlyph>
    <TTGlyph name="Udieresis" xMin="152" yMin="-24" xMax="1277" yMax="1870">
      <component glyphName="glyph00393" x="152" y="0" flags="0x0"/>
      <component glyphName="U" x="0" y="0" flags="0x1004"/>
      <component glyphName="dieresis" x="226" y="1499" flags="0x1004"/>
    </TTGlyph>
    <TTGlyph name="Ugrave" xMin="152" yMin="-24" xMax="1277" yMax="1969">
      <component glyphName="glyph00393" x="152" y="0" flags="0x0"/>
      <component glyphName="U" x="0" y="0" flags="0x1004"/>
      <component glyphName="grave" x="387" y="329" flags="0x1004"/>
    </TTGlyph>
    <TTGlyph name="Uhungarumlaut" xMin="152" yMin="-24" xMax="1310" yMax="1969">
      <component glyphName="glyph00393" x="152" y="0" flags="0x0"/>
      <component glyphName="U" x="0" y="0" flags="0x1004"/>
      <component glyphName="hungarumlaut" x="307" y="329" flags="0x1004"/>
    </TTGlyph>
    <TTGlyph name="Umacron" xMin="152" yMin="-24" xMax="1277" yMax="1743">
      <component glyphName="glyph00393" x="152" y="0" flags="0x0"/>
      <component glyphName="U" x="0" y="0" flags="0x1004"/>
      <component glyphName="macron" x="292" y="905" flags="0x1004"/>
    </TTGlyph>
    <TTGlyph name="Uogonek" xMin="152" yMin="-560" xMax="1277" yMax="1490">
      <component glyphName="glyph00393" x="152" y="0" flags="0x0"/>
      <component glyphName="U" x="0" y="0" flags="0x1004"/>
      <component glyphName="ogonek" x="290" y="-6" flags="0x1004"/>
    </TTGlyph>
    <TTGlyph name="Uring" xMin="152" yMin="-24" xMax="1277" yMax="2124">
      <component glyphName="glyph00393" x="152" y="0" flags="0x0"/>
      <component glyphName="U" x="0" y="0" flags="0x1004"/>
      <component glyphName="ring" x="346" y="1468" flags="0x1004"/>
    </TTGlyph>
    <TTGlyph name="Utilde" xMin="152" yMin="-24" xMax="1277" yMax="1851">
      <component glyphName="glyph00393" x="152" y="0" flags="0x0"/>
      <component glyphName="U" x="0" y="0" flags="0x1004"/>
      <component glyphName="tilde" x="216" y="704" flags="0x1004"/>
    </TTGlyph>
    <TTGlyph name="V" xMin="25" yMin="0" xMax="1202" yMax="1490">
      <contour>
        <pt x="1202" y="1490" on="1"/>
        <pt x="712" y="0" on="1"/>
        <pt x="502" y="0" on="1"/>
        <pt x="25" y="1490" on="1"/>
        <pt x="240" y="1490" on="1"/>
        <pt x="611" y="259" on="1"/>
        <pt x="982" y="1490" on="1"/>
      </contour>
    </TTGlyph>
    <TTGlyph name="W" xMin="45" yMin="0" xMax="1688" yMax="1490">
      <contour>
        <pt x="1688" y="1490" on="1"/>
        <pt x="1372" y="0" on="1"/>
        <pt x="1155" y="0" on="1"/>
        <pt x="871" y="1173" on="1"/>
        <pt x="589" y="0" on="1"/>
        <pt x="373" y="0" on="1"/>
        <pt x="45" y="1490" on="1"/>
        <pt x="259" y="1490" on="1"/>
        <pt x="493" y="279" on="1"/>
        <pt x="778" y="1490" on="1"/>
        <pt x="979" y="1490" on="1"/>
        <pt x="1272" y="279" on="1"/>
        <pt x="1500" y="1490" on="1"/>
      </contour>
    </TTGlyph>
    <TTGlyph name="Wcircumflex" xMin="45" yMin="0" xMax="1688" yMax="2031">
      <component glyphName="glyph00393" x="45" y="0" flags="0x0"/>
      <component glyphName="W" x="0" y="0" flags="0x1004"/>
      <component glyphName="circumflex" x="470" y="225" flags="0x1004"/>
    </TTGlyph>
    <TTGlyph name="X" xMin="50" yMin="0" xMax="1140" yMax="1490">
      <contour>
        <pt x="1140" y="0" on="1"/>
        <pt x="918" y="0" on="1"/>
        <pt x="594" y="590" on="1"/>
        <pt x="271" y="0" on="1"/>
        <pt x="50" y="0" on="1"/>
        <pt x="479" y="766" on="1"/>
        <pt x="71" y="1490" on="1"/>
        <pt x="288" y="1490" on="1"/>
        <pt x="594" y="934" on="1"/>
        <pt x="902" y="1490" on="1"/>
        <pt x="1119" y="1490" on="1"/>
        <pt x="712" y="766" on="1"/>
      </contour>
    </TTGlyph>
    <TTGlyph name="Y" xMin="-5" yMin="0" xMax="1086" yMax="1490">
      <contour>
        <pt x="1086" y="1490" on="1"/>
        <pt x="635" y="518" on="1"/>
        <pt x="635" y="0" on="1"/>
        <pt x="433" y="0" on="1"/>
        <pt x="433" y="518" on="1"/>
        <pt x="-5" y="1490" on="1"/>
        <pt x="216" y="1490" on="1"/>
        <pt x="541" y="727" on="1"/>
        <pt x="872" y="1490" on="1"/>
      </contour>
    </TTGlyph>
    <TTGlyph name="Yacute" xMin="-5" yMin="0" xMax="1086" yMax="1969">
      <component glyphName="glyph00393" x="0" y="0" flags="0x0"/>
      <component glyphName="Y" x="0" y="0" flags="0x1004"/>
      <component glyphName="acute" x="194" y="329" flags="0x1004"/>
    </TTGlyph>
    <TTGlyph name="Ycircumflex" xMin="-5" yMin="0" xMax="1086" yMax="2031">
      <component glyphName="glyph00393" x="0" y="0" flags="0x0"/>
      <component glyphName="Y" x="0" y="0" flags="0x1004"/>
      <component glyphName="circumflex" x="138" y="225" flags="0x1004"/>
    </TTGlyph>
    <TTGlyph name="Ydieresis" xMin="-5" yMin="0" xMax="1086" yMax="1870">
      <component glyphName="glyph00393" x="0" y="0" flags="0x0"/>
      <component glyphName="Y" x="0" y="0" flags="0x1004"/>
      <component glyphName="dieresis" x="52" y="1499" flags="0x1004"/>
    </TTGlyph>
    <TTGlyph name="Z" xMin="91" yMin="0" xMax="990" yMax="1490">
      <contour>
        <pt x="990" y="0" on="1"/>
        <pt x="101" y="0" on="1"/>
        <pt x="91" y="176" on="1"/>
        <pt x="662" y="1128" on="1"/>
        <pt x="790" y="1338" on="1"/>
        <pt x="156" y="1338" on="1"/>
        <pt x="139" y="1490" on="1"/>
        <pt x="979" y="1490" on="1"/>
        <pt x="990" y="1311" on="1"/>
        <pt x="431" y="361" on="1"/>
        <pt x="305" y="151" on="1"/>
        <pt x="990" y="151" on="1"/>
      </contour>
    </TTGlyph>
    <TTGlyph name="Zacute" xMin="91" yMin="0" xMax="990" yMax="1969">
      <component glyphName="glyph00393" x="91" y="0" flags="0x0"/>
      <component glyphName="Z" x="0" y="0" flags="0x1004"/>
      <component glyphName="acute" x="222" y="329" flags="0x1004"/>
    </TTGlyph>
    <TTGlyph name="Zcaron" xMin="91" yMin="0" xMax="990" yMax="2031">
      <component glyphName="glyph00393" x="91" y="0" flags="0x0"/>
      <component glyphName="Z" x="0" y="0" flags="0x1004"/>
      <component glyphName="caron" x="166" y="225" flags="0x1004"/>
    </TTGlyph>
    <TTGlyph name="Zdotaccent" xMin="91" yMin="0" xMax="990" yMax="1844">
      <component glyphName="glyph00393" x="91" y="0" flags="0x0"/>
      <component glyphName="Z" x="0" y="0" flags="0x1004"/>
      <component glyphName="dotaccent" x="346" y="409" flags="0x1004"/>
    </TTGlyph>
    <TTGlyph name="a" xMin="101" yMin="-15" xMax="960" yMax="1128">
      <contour>
        <pt x="960" y="0" on="1"/>
        <pt x="804" y="0" on="1"/>
        <pt x="772" y="157" on="1"/>
        <pt x="742" y="54" on="0"/>
        <pt x="585" y="-15" on="0"/>
        <pt x="434" y="-15" on="1"/>
        <pt x="334" y="-15" on="0"/>
        <pt x="206" y="24" on="0"/>
        <pt x="130" y="116" on="0"/>
        <pt x="101" y="249" on="0"/>
        <pt x="101" y="354" on="1"/>
        <pt x="101" y="401" on="0"/>
        <pt x="134" y="475" on="0"/>
        <pt x="191" y="527" on="0"/>
        <pt x="286" y="565" on="0"/>
        <pt x="388" y="587" on="0"/>
        <pt x="533" y="600" on="0"/>
        <pt x="671" y="604" on="0"/>
        <pt x="763" y="604" on="1"/>
        <pt x="763" y="901" on="1"/>
        <pt x="763" y="952" on="0"/>
        <pt x="667" y="991" on="0"/>
        <pt x="544" y="991" on="1"/>
        <pt x="458" y="991" on="0"/>
        <pt x="372" y="983" on="0"/>
        <pt x="327" y="944" on="0"/>
        <pt x="320" y="906" on="0"/>
        <pt x="319" y="854" on="1"/>
        <pt x="318" y="835" on="0"/>
        <pt x="318" y="824" on="1"/>
        <pt x="165" y="830" on="1"/>
        <pt x="163" y="846" on="0"/>
        <pt x="163" y="877" on="1"/>
        <pt x="163" y="944" on="0"/>
        <pt x="202" y="1037" on="0"/>
        <pt x="264" y="1090" on="0"/>
        <pt x="372" y="1120" on="0"/>
        <pt x="478" y="1128" on="0"/>
        <pt x="557" y="1128" on="1"/>
        <pt x="677" y="1128" on="0"/>
        <pt x="827" y="1091" on="0"/>
        <pt x="923" y="995" on="0"/>
        <pt x="960" y="846" on="0"/>
        <pt x="960" y="726" on="1"/>
      </contour>
      <contour>
        <pt x="763" y="314" on="1"/>
        <pt x="763" y="485" on="1"/>
        <pt x="566" y="485" on="0"/>
        <pt x="354" y="455" on="0"/>
        <pt x="283" y="402" on="0"/>
        <pt x="283" y="354" on="1"/>
        <pt x="283" y="352" on="0"/>
        <pt x="283" y="348" on="1"/>
        <pt x="283" y="196" on="0"/>
        <pt x="333" y="122" on="0"/>
        <pt x="461" y="122" on="1"/>
        <pt x="570" y="122" on="0"/>
        <pt x="706" y="174" on="0"/>
        <pt x="759" y="255" on="0"/>
      </contour>
    </TTGlyph>
    <TTGlyph name="aacute" xMin="101" yMin="-15" xMax="960" yMax="1583">
      <component glyphName="glyph00393" x="101" y="0" flags="0x0"/>
      <component glyphName="a" x="0" y="0" flags="0x1004"/>
      <component glyphName="acute" x="206" y="-57" flags="0x1004"/>
    </TTGlyph>
    <TTGlyph name="abreve" xMin="101" yMin="-15" xMax="960" yMax="1530">
      <component glyphName="glyph00393" x="101" y="0" flags="0x0"/>
      <component glyphName="a" x="0" y="0" flags="0x1004"/>
      <component glyphName="breve" x="178" y="-218" flags="0x1004"/>
    </TTGlyph>
    <TTGlyph name="acircumflex" xMin="101" yMin="-15" xMax="960" yMax="1645">
      <component glyphName="glyph00393" x="101" y="0" flags="0x0"/>
      <component glyphName="a" x="0" y="0" flags="0x1004"/>
      <component glyphName="circumflex" x="150" y="-161" flags="0x1004"/>
    </TTGlyph>
    <TTGlyph name="acute" xMin="109" yMin="1287" xMax="592" yMax="1640">
      <contour>
        <pt x="405" y="1605" on="1"/>
        <pt x="445" y="1640" on="0"/>
        <pt x="489" y="1640" on="1"/>
        <pt x="536" y="1640" on="0"/>
        <pt x="592" y="1581" on="0"/>
        <pt x="592" y="1540" on="1"/>
        <pt x="592" y="1509" on="0"/>
        <pt x="556" y="1451" on="0"/>
        <pt x="521" y="1436" on="1"/>
        <pt x="510" y="1431" on="0"/>
        <pt x="312" y="1357" on="0"/>
        <pt x="219" y="1322" on="1"/>
        <pt x="126" y="1287" on="1"/>
        <pt x="109" y="1308" on="1"/>
        <pt x="366" y="1574" on="0"/>
      </contour>
    </TTGlyph>
    <TTGlyph name="adieresis" xMin="101" yMin="-15" xMax="960" yMax="1484">
      <component glyphName="glyph00393" x="101" y="0" flags="0x0"/>
      <component glyphName="a" x="0" y="0" flags="0x1004"/>
      <component glyphName="dieresis" x="64" y="1113" flags="0x1004"/>
    </TTGlyph>
    <TTGlyph name="ae" xMin="101" yMin="-15" xMax="1601" yMax="1128">
      <contour>
        <pt x="952" y="399" on="1"/>
        <pt x="952" y="354" on="0"/>
        <pt x="954" y="303" on="0"/>
        <pt x="961" y="239" on="0"/>
        <pt x="975" y="205" on="0"/>
        <pt x="1002" y="165" on="0"/>
        <pt x="1040" y="147" on="0"/>
        <pt x="1097" y="128" on="0"/>
        <pt x="1172" y="122" on="0"/>
        <pt x="1221" y="122" on="1"/>
        <pt x="1262" y="122" on="0"/>
        <pt x="1324" y="130" on="0"/>
        <pt x="1365" y="143" on="0"/>
        <pt x="1392" y="168" on="0"/>
        <pt x="1407" y="191" on="0"/>
        <pt x="1414" y="231" on="0"/>
        <pt x="1416" y="262" on="0"/>
        <pt x="1419" y="315" on="0"/>
        <pt x="1421" y="334" on="1"/>
        <pt x="1574" y="306" on="1"/>
        <pt x="1572" y="236" on="0"/>
        <pt x="1558" y="139" on="0"/>
        <pt x="1524" y="65" on="0"/>
        <pt x="1478" y="22" on="0"/>
        <pt x="1400" y="-6" on="0"/>
        <pt x="1307" y="-15" on="0"/>
        <pt x="1238" y="-15" on="1"/>
        <pt x="1066" y="-15" on="0"/>
        <pt x="873" y="59" on="0"/>
        <pt x="828" y="139" on="1"/>
        <pt x="785" y="47" on="0"/>
        <pt x="599" y="-15" on="0"/>
        <pt x="434" y="-15" on="1"/>
        <pt x="334" y="-15" on="0"/>
        <pt x="206" y="24" on="0"/>
        <pt x="130" y="116" on="0"/>
        <pt x="101" y="249" on="0"/>
        <pt x="101" y="354" on="1"/>
        <pt x="101" y="409" on="0"/>
        <pt x="142" y="491" on="0"/>
        <pt x="229" y="545" on="0"/>
        <pt x="334" y="580" on="0"/>
        <pt x="494" y="598" on="0"/>
        <pt x="648" y="604" on="0"/>
        <pt x="755" y="604" on="1"/>
        <pt x="755" y="901" on="1"/>
        <pt x="755" y="952" on="0"/>
        <pt x="663" y="991" on="0"/>
        <pt x="544" y="991" on="1"/>
        <pt x="458" y="991" on="0"/>
        <pt x="372" y="983" on="0"/>
        <pt x="327" y="944" on="0"/>
        <pt x="320" y="906" on="0"/>
        <pt x="319" y="854" on="1"/>
        <pt x="318" y="835" on="0"/>
        <pt x="318" y="824" on="1"/>
        <pt x="165" y="830" on="1"/>
        <pt x="163" y="846" on="0"/>
        <pt x="163" y="877" on="1"/>
        <pt x="163" y="944" on="0"/>
        <pt x="202" y="1037" on="0"/>
        <pt x="264" y="1090" on="0"/>
        <pt x="372" y="1120" on="0"/>
        <pt x="478" y="1128" on="0"/>
        <pt x="557" y="1128" on="1"/>
        <pt x="667" y="1128" on="0"/>
        <pt x="812" y="1074" on="0"/>
        <pt x="857" y="1013" on="1"/>
        <pt x="905" y="1077" on="0"/>
        <pt x="1071" y="1128" on="0"/>
        <pt x="1209" y="1128" on="1"/>
        <pt x="1278" y="1128" on="0"/>
        <pt x="1379" y="1119" on="0"/>
        <pt x="1463" y="1091" on="0"/>
        <pt x="1518" y="1055" on="0"/>
        <pt x="1560" y="985" on="0"/>
        <pt x="1583" y="910" on="0"/>
        <pt x="1597" y="786" on="0"/>
        <pt x="1601" y="659" on="0"/>
        <pt x="1601" y="564" on="1"/>
        <pt x="1587" y="563" on="0"/>
        <pt x="1523" y="554" on="0"/>
        <pt x="1474" y="550" on="0"/>
        <pt x="1452" y="550" on="1"/>
        <pt x="952" y="550" on="1"/>
      </contour>
      <contour>
        <pt x="755" y="314" on="1"/>
        <pt x="755" y="485" on="1"/>
        <pt x="561" y="485" on="0"/>
        <pt x="352" y="455" on="0"/>
        <pt x="283" y="402" on="0"/>
        <pt x="283" y="354" on="1"/>
        <pt x="283" y="352" on="0"/>
        <pt x="283" y="348" on="1"/>
        <pt x="283" y="196" on="0"/>
        <pt x="333" y="122" on="0"/>
        <pt x="461" y="122" on="1"/>
        <pt x="755" y="122" on="0"/>
      </contour>
      <contour>
        <pt x="952" y="655" on="1"/>
        <pt x="1404" y="655" on="1"/>
        <pt x="1402" y="783" on="0"/>
        <pt x="1394" y="889" on="1"/>
        <pt x="1390" y="950" on="0"/>
        <pt x="1313" y="991" on="0"/>
        <pt x="1208" y="991" on="1"/>
        <pt x="1161" y="991" on="0"/>
        <pt x="1090" y="985" on="0"/>
        <pt x="1036" y="968" on="0"/>
        <pt x="1000" y="949" on="0"/>
        <pt x="976" y="911" on="0"/>
        <pt x="963" y="875" on="0"/>
        <pt x="956" y="814" on="0"/>
        <pt x="954" y="758" on="0"/>
        <pt x="953" y="714" on="1"/>
        <pt x="953" y="676" on="0"/>
      </contour>
    </TTGlyph>
    <TTGlyph name="agrave" xMin="101" yMin="-15" xMax="960" yMax="1583">
      <component glyphName="glyph00393" x="101" y="0" flags="0x0"/>
      <component glyphName="a" x="0" y="0" flags="0x1004"/>
      <component glyphName="grave" x="224" y="-57" flags="0x1004"/>
    </TTGlyph>
    <TTGlyph name="amacron" xMin="101" yMin="-15" xMax="960" yMax="1357">
      <component glyphName="glyph00393" x="101" y="0" flags="0x0"/>
      <component glyphName="a" x="0" y="0" flags="0x1004"/>
      <component glyphName="macron" x="130" y="519" flags="0x1004"/>
    </TTGlyph>
    <TTGlyph name="ampersand" xMin="112" yMin="-23" xMax="1312" yMax="1522">
      <contour>
        <pt x="1179" y="250" on="1"/>
        <pt x="1179" y="196" on="0"/>
        <pt x="1144" y="111" on="0"/>
        <pt x="1090" y="54" on="0"/>
        <pt x="997" y="14" on="0"/>
        <pt x="910" y="-8" on="0"/>
        <pt x="780" y="-20" on="0"/>
        <pt x="679" y="-23" on="0"/>
        <pt x="606" y="-23" on="1"/>
        <pt x="491" y="-23" on="0"/>
        <pt x="337" y="-2" on="0"/>
        <pt x="214" y="51" on="0"/>
        <pt x="146" y="148" on="0"/>
        <pt x="112" y="295" on="0"/>
        <pt x="112" y="402" on="1"/>
        <pt x="112" y="584" on="0"/>
        <pt x="223" y="804" on="0"/>
        <pt x="326" y="825" on="1"/>
        <pt x="175" y="872" on="0"/>
        <pt x="175" y="1183" on="1"/>
        <pt x="178" y="1253" on="0"/>
        <pt x="208" y="1360" on="0"/>
        <pt x="249" y="1431" on="0"/>
        <pt x="325" y="1480" on="0"/>
        <pt x="389" y="1506" on="0"/>
        <pt x="502" y="1519" on="0"/>
        <pt x="580" y="1522" on="0"/>
        <pt x="648" y="1522" on="1"/>
        <pt x="743" y="1522" on="0"/>
        <pt x="860" y="1518" on="0"/>
        <pt x="986" y="1505" on="0"/>
        <pt x="1058" y="1479" on="0"/>
        <pt x="1121" y="1434" on="0"/>
        <pt x="1150" y="1368" on="0"/>
        <pt x="1154" y="1322" on="1"/>
        <pt x="1161" y="1269" on="0"/>
        <pt x="1161" y="1208" on="1"/>
        <pt x="1009" y="1183" on="1"/>
        <pt x="1007" y="1226" on="0"/>
        <pt x="992" y="1286" on="0"/>
        <pt x="962" y="1324" on="0"/>
        <pt x="925" y="1345" on="0"/>
        <pt x="864" y="1355" on="0"/>
        <pt x="800" y="1357" on="0"/>
        <pt x="752" y="1357" on="1"/>
        <pt x="723" y="1357" on="0"/>
        <pt x="707" y="1357" on="1"/>
        <pt x="518" y="1356" on="0"/>
        <pt x="469" y="1344" on="1"/>
        <pt x="407" y="1330" on="0"/>
        <pt x="388" y="1281" on="1"/>
        <pt x="372" y="1232" on="0"/>
        <pt x="372" y="1089" on="1"/>
        <pt x="372" y="992" on="0"/>
        <pt x="408" y="886" on="0"/>
        <pt x="466" y="853" on="0"/>
        <pt x="515" y="853" on="1"/>
        <pt x="996" y="853" on="1"/>
        <pt x="996" y="962" on="1"/>
        <pt x="1179" y="962" on="1"/>
        <pt x="1179" y="853" on="1"/>
        <pt x="1312" y="853" on="1"/>
        <pt x="1312" y="728" on="1"/>
        <pt x="1178" y="727" on="1"/>
        <pt x="1179" y="359" on="0"/>
      </contour>
      <contour>
        <pt x="996" y="236" on="1"/>
        <pt x="996" y="728" on="1"/>
        <pt x="459" y="728" on="1"/>
        <pt x="427" y="728" on="0"/>
        <pt x="381" y="711" on="0"/>
        <pt x="348" y="687" on="0"/>
        <pt x="327" y="633" on="0"/>
        <pt x="315" y="587" on="0"/>
        <pt x="309" y="495" on="0"/>
        <pt x="308" y="426" on="0"/>
        <pt x="308" y="362" on="1"/>
        <pt x="308" y="327" on="0"/>
        <pt x="310" y="288" on="0"/>
        <pt x="316" y="238" on="0"/>
        <pt x="329" y="212" on="0"/>
        <pt x="351" y="181" on="0"/>
        <pt x="387" y="166" on="0"/>
        <pt x="435" y="149" on="0"/>
        <pt x="503" y="142" on="0"/>
        <pt x="587" y="138" on="0"/>
        <pt x="642" y="138" on="1"/>
        <pt x="834" y="138" on="0"/>
        <pt x="989" y="184" on="0"/>
      </contour>
    </TTGlyph>
    <TTGlyph name="aogonek" xMin="101" yMin="-551" xMax="1015" yMax="1128">
      <component glyphName="glyph00393" x="101" y="0" flags="0x0"/>
      <component glyphName="a" x="0" y="0" flags="0x1004"/>
      <component glyphName="ogonek" x="432" y="3" flags="0x1004"/>
    </TTGlyph>
    <TTGlyph name="aring" xMin="101" yMin="-15" xMax="960" yMax="1738">
      <component glyphName="glyph00393" x="101" y="0" flags="0x0"/>
      <component glyphName="a" x="0" y="0" flags="0x1004"/>
      <component glyphName="ring" x="184" y="1082" flags="0x1004"/>
    </TTGlyph>
    <TTGlyph name="asciicircum" xMin="121" yMin="1391" xMax="693" yMax="1806">
      <contour>
        <pt x="407" y="1627" on="1"/>
        <pt x="176" y="1391" on="1"/>
        <pt x="121" y="1445" on="1"/>
        <pt x="313" y="1754" on="1"/>
        <pt x="348" y="1806" on="0"/>
        <pt x="466" y="1806" on="0"/>
        <pt x="501" y="1754" on="1"/>
        <pt x="693" y="1445" on="1"/>
        <pt x="638" y="1391" on="1"/>
      </contour>
    </TTGlyph>
    <TTGlyph name="asciitilde" xMin="105" yMin="832" xMax="932" yMax="1132">
      <contour>
        <pt x="932" y="1047" on="1"/>
        <pt x="881" y="832" on="0"/>
        <pt x="705" y="832" on="1"/>
        <pt x="652" y="832" on="0"/>
        <pt x="530" y="874" on="0"/>
        <pt x="438" y="924" on="0"/>
        <pt x="325" y="966" on="0"/>
        <pt x="280" y="966" on="1"/>
        <pt x="202" y="966" on="0"/>
        <pt x="134" y="903" on="1"/>
        <pt x="105" y="945" on="1"/>
        <pt x="155" y="1132" on="0"/>
        <pt x="314" y="1132" on="1"/>
        <pt x="381" y="1132" on="0"/>
        <pt x="505" y="1095" on="0"/>
        <pt x="582" y="1051" on="0"/>
        <pt x="674" y="1014" on="0"/>
        <pt x="713" y="1014" on="1"/>
        <pt x="795" y="1014" on="0"/>
        <pt x="898" y="1097" on="1"/>
      </contour>
    </TTGlyph>
    <TTGlyph name="asterisk" xMin="67" yMin="574" xMax="964" yMax="1436">
      <contour>
        <pt x="698" y="574" on="1"/>
        <pt x="674" y="574" on="0"/>
        <pt x="629" y="622" on="0"/>
        <pt x="595" y="695" on="0"/>
        <pt x="561" y="803" on="0"/>
        <pt x="538" y="899" on="0"/>
        <pt x="524" y="957" on="1"/>
        <pt x="519" y="978" on="0"/>
        <pt x="517" y="988" on="1"/>
        <pt x="507" y="950" on="0"/>
        <pt x="482" y="854" on="0"/>
        <pt x="466" y="795" on="0"/>
        <pt x="447" y="723" on="0"/>
        <pt x="433" y="680" on="0"/>
        <pt x="414" y="633" on="0"/>
        <pt x="396" y="607" on="0"/>
        <pt x="374" y="583" on="0"/>
        <pt x="349" y="574" on="0"/>
        <pt x="334" y="574" on="1"/>
        <pt x="307" y="574" on="0"/>
        <pt x="255" y="621" on="0"/>
        <pt x="255" y="648" on="1"/>
        <pt x="255" y="671" on="0"/>
        <pt x="278" y="727" on="0"/>
        <pt x="306" y="773" on="0"/>
        <pt x="373" y="855" on="0"/>
        <pt x="414" y="901" on="0"/>
        <pt x="463" y="955" on="1"/>
        <pt x="488" y="983" on="0"/>
        <pt x="501" y="997" on="1"/>
        <pt x="488" y="993" on="0"/>
        <pt x="368" y="957" on="0"/>
        <pt x="326" y="945" on="0"/>
        <pt x="242" y="923" on="0"/>
        <pt x="190" y="915" on="0"/>
        <pt x="168" y="915" on="1"/>
        <pt x="67" y="915" on="0"/>
        <pt x="67" y="1006" on="1"/>
        <pt x="67" y="1096" on="0"/>
        <pt x="166" y="1096" on="1"/>
        <pt x="201" y="1096" on="0"/>
        <pt x="326" y="1065" on="0"/>
        <pt x="485" y="1016" on="0"/>
        <pt x="501" y="1012" on="1"/>
        <pt x="245" y="1289" on="0"/>
        <pt x="245" y="1344" on="1"/>
        <pt x="245" y="1384" on="0"/>
        <pt x="292" y="1436" on="0"/>
        <pt x="332" y="1436" on="1"/>
        <pt x="354" y="1436" on="0"/>
        <pt x="394" y="1407" on="0"/>
        <pt x="429" y="1336" on="0"/>
        <pt x="453" y="1280" on="0"/>
        <pt x="485" y="1160" on="0"/>
        <pt x="499" y="1104" on="0"/>
        <pt x="514" y="1035" on="1"/>
        <pt x="515" y="1031" on="0"/>
        <pt x="516" y="1025" on="0"/>
        <pt x="517" y="1022" on="1"/>
        <pt x="527" y="1060" on="0"/>
        <pt x="538" y="1114" on="1"/>
        <pt x="538" y="1115" on="0"/>
        <pt x="545" y="1150" on="0"/>
        <pt x="553" y="1193" on="0"/>
        <pt x="569" y="1253" on="0"/>
        <pt x="587" y="1310" on="0"/>
        <pt x="612" y="1367" on="0"/>
        <pt x="640" y="1409" on="0"/>
        <pt x="677" y="1436" on="0"/>
        <pt x="696" y="1436" on="1"/>
        <pt x="727" y="1436" on="0"/>
        <pt x="776" y="1388" on="0"/>
        <pt x="776" y="1353" on="1"/>
        <pt x="776" y="1308" on="0"/>
        <pt x="680" y="1167" on="0"/>
        <pt x="534" y="1012" on="1"/>
        <pt x="576" y="1025" on="0"/>
        <pt x="719" y="1069" on="0"/>
        <pt x="766" y="1083" on="0"/>
        <pt x="836" y="1096" on="0"/>
        <pt x="865" y="1096" on="1"/>
        <pt x="964" y="1096" on="0"/>
        <pt x="964" y="1006" on="1"/>
        <pt x="964" y="915" on="0"/>
        <pt x="861" y="915" on="1"/>
        <pt x="833" y="915" on="0"/>
        <pt x="736" y="936" on="0"/>
        <pt x="665" y="956" on="0"/>
        <pt x="546" y="994" on="0"/>
        <pt x="534" y="997" on="1"/>
        <pt x="790" y="715" on="0"/>
        <pt x="790" y="664" on="1"/>
        <pt x="790" y="624" on="0"/>
        <pt x="739" y="574" on="0"/>
      </contour>
    </TTGlyph>
    <TTGlyph name="at" xMin="107" yMin="-344" xMax="1863" yMax="1635">
      <contour>
        <pt x="614" y="1014" on="1"/>
        <pt x="614" y="1069" on="0"/>
        <pt x="640" y="1152" on="0"/>
        <pt x="697" y="1207" on="0"/>
        <pt x="766" y="1242" on="0"/>
        <pt x="872" y="1260" on="0"/>
        <pt x="975" y="1266" on="0"/>
        <pt x="1048" y="1266" on="1"/>
        <pt x="1436" y="1266" on="0"/>
        <pt x="1436" y="944" on="1"/>
        <pt x="1436" y="215" on="1"/>
        <pt x="1577" y="215" on="0"/>
        <pt x="1615" y="241" on="1"/>
        <pt x="1629" y="251" on="0"/>
        <pt x="1644" y="270" on="0"/>
        <pt x="1659" y="294" on="0"/>
        <pt x="1666" y="340" on="0"/>
        <pt x="1672" y="388" on="0"/>
        <pt x="1674" y="487" on="0"/>
        <pt x="1675" y="583" on="0"/>
        <pt x="1675" y="670" on="1"/>
        <pt x="1675" y="785" on="0"/>
        <pt x="1665" y="957" on="0"/>
        <pt x="1640" y="1122" on="0"/>
        <pt x="1595" y="1237" on="0"/>
        <pt x="1525" y="1339" on="0"/>
        <pt x="1428" y="1404" on="0"/>
        <pt x="1295" y="1452" on="0"/>
        <pt x="1126" y="1472" on="0"/>
        <pt x="1019" y="1472" on="1"/>
        <pt x="880" y="1472" on="0"/>
        <pt x="667" y="1432" on="0"/>
        <pt x="505" y="1344" on="0"/>
        <pt x="396" y="1216" on="0"/>
        <pt x="327" y="1030" on="0"/>
        <pt x="297" y="805" on="0"/>
        <pt x="297" y="659" on="1"/>
        <pt x="297" y="507" on="0"/>
        <pt x="321" y="280" on="0"/>
        <pt x="379" y="86" on="0"/>
        <pt x="474" y="-44" on="0"/>
        <pt x="618" y="-137" on="0"/>
        <pt x="813" y="-182" on="0"/>
        <pt x="942" y="-184" on="1"/>
        <pt x="1182" y="-184" on="0"/>
        <pt x="1571" y="-77" on="1"/>
        <pt x="1619" y="-224" on="1"/>
        <pt x="1344" y="-344" on="0"/>
        <pt x="1014" y="-344" on="1"/>
        <pt x="758" y="-344" on="0"/>
        <pt x="419" y="-244" on="0"/>
        <pt x="200" y="-10" on="0"/>
        <pt x="107" y="354" on="0"/>
        <pt x="107" y="627" on="1"/>
        <pt x="107" y="892" on="0"/>
        <pt x="203" y="1265" on="0"/>
        <pt x="416" y="1517" on="0"/>
        <pt x="756" y="1635" on="0"/>
        <pt x="1000" y="1635" on="1"/>
        <pt x="1132" y="1635" on="0"/>
        <pt x="1343" y="1610" on="0"/>
        <pt x="1515" y="1555" on="0"/>
        <pt x="1644" y="1475" on="0"/>
        <pt x="1742" y="1355" on="0"/>
        <pt x="1806" y="1211" on="0"/>
        <pt x="1846" y="1017" on="0"/>
        <pt x="1863" y="800" on="0"/>
        <pt x="1863" y="662" on="1"/>
        <pt x="1863" y="577" on="0"/>
        <pt x="1859" y="462" on="0"/>
        <pt x="1847" y="339" on="0"/>
        <pt x="1823" y="261" on="0"/>
        <pt x="1784" y="183" on="0"/>
        <pt x="1727" y="138" on="0"/>
        <pt x="1648" y="102" on="0"/>
        <pt x="1543" y="87" on="0"/>
        <pt x="1476" y="87" on="1"/>
        <pt x="1324" y="87" on="0"/>
        <pt x="1310" y="212" on="1"/>
        <pt x="1276" y="61" on="0"/>
        <pt x="893" y="61" on="1"/>
        <pt x="697" y="61" on="0"/>
        <pt x="551" y="208" on="0"/>
        <pt x="551" y="410" on="1"/>
        <pt x="551" y="599" on="0"/>
        <pt x="689" y="772" on="0"/>
        <pt x="858" y="772" on="1"/>
        <pt x="1015" y="772" on="0"/>
        <pt x="1239" y="732" on="1"/>
        <pt x="1239" y="959" on="1"/>
        <pt x="1239" y="1008" on="0"/>
        <pt x="1225" y="1067" on="0"/>
        <pt x="1187" y="1096" on="0"/>
        <pt x="1141" y="1105" on="0"/>
        <pt x="1100" y="1105" on="1"/>
        <pt x="891" y="1105" on="1"/>
        <pt x="840" y="1105" on="0"/>
        <pt x="785" y="1057" on="0"/>
        <pt x="785" y="992" on="1"/>
        <pt x="785" y="939" on="0"/>
        <pt x="789" y="903" on="1"/>
        <pt x="626" y="903" on="1"/>
        <pt x="614" y="963" on="0"/>
      </contour>
      <contour>
        <pt x="985" y="200" on="1"/>
        <pt x="1069" y="200" on="0"/>
        <pt x="1174" y="219" on="0"/>
        <pt x="1230" y="266" on="0"/>
        <pt x="1249" y="327" on="0"/>
        <pt x="1249" y="376" on="1"/>
        <pt x="1249" y="407" on="0"/>
        <pt x="1239" y="582" on="0"/>
        <pt x="1239" y="624" on="1"/>
        <pt x="1033" y="624" on="1"/>
        <pt x="1001" y="624" on="0"/>
        <pt x="904" y="625" on="0"/>
        <pt x="888" y="625" on="1"/>
        <pt x="863" y="625" on="0"/>
        <pt x="829" y="624" on="0"/>
        <pt x="797" y="617" on="0"/>
        <pt x="777" y="611" on="0"/>
        <pt x="758" y="591" on="0"/>
        <pt x="747" y="577" on="0"/>
        <pt x="738" y="540" on="0"/>
        <pt x="735" y="512" on="0"/>
        <pt x="732" y="453" on="0"/>
        <pt x="732" y="408" on="0"/>
        <pt x="732" y="366" on="1"/>
        <pt x="732" y="323" on="0"/>
        <pt x="741" y="275" on="0"/>
        <pt x="768" y="231" on="0"/>
        <pt x="825" y="211" on="0"/>
        <pt x="915" y="200" on="0"/>
      </contour>
    </TTGlyph>
    <TTGlyph name="atilde" xMin="101" yMin="-15" xMax="960" yMax="1465">
      <component glyphName="glyph00393" x="101" y="0" flags="0x0"/>
      <component glyphName="a" x="0" y="0" flags="0x1004"/>
      <component glyphName="tilde" x="54" y="318" flags="0x1004"/>
    </TTGlyph>
    <TTGlyph name="b" xMin="155" yMin="-15" xMax="1057" yMax="1535">
      <contour>
        <pt x="1057" y="611" on="1"/>
        <pt x="1057" y="535" on="0"/>
        <pt x="1055" y="435" on="0"/>
        <pt x="1049" y="317" on="0"/>
        <pt x="1037" y="242" on="0"/>
        <pt x="1017" y="157" on="0"/>
        <pt x="987" y="105" on="0"/>
        <pt x="945" y="51" on="0"/>
        <pt x="889" y="21" on="0"/>
        <pt x="817" y="-5" on="0"/>
        <pt x="727" y="-15" on="0"/>
        <pt x="672" y="-15" on="1"/>
        <pt x="410" y="-15" on="0"/>
        <pt x="353" y="138" on="1"/>
        <pt x="335" y="0" on="1"/>
        <pt x="155" y="0" on="1"/>
        <pt x="155" y="1519" on="1"/>
        <pt x="352" y="1535" on="1"/>
        <pt x="352" y="976" on="1"/>
        <pt x="385" y="1054" on="0"/>
        <pt x="531" y="1128" on="0"/>
        <pt x="656" y="1128" on="1"/>
        <pt x="724" y="1128" on="0"/>
        <pt x="833" y="1111" on="0"/>
        <pt x="914" y="1073" on="0"/>
        <pt x="974" y="1026" on="0"/>
        <pt x="1014" y="953" on="0"/>
        <pt x="1039" y="879" on="0"/>
        <pt x="1053" y="774" on="0"/>
        <pt x="1057" y="678" on="0"/>
      </contour>
      <contour>
        <pt x="860" y="761" on="1"/>
        <pt x="860" y="804" on="0"/>
        <pt x="859" y="847" on="0"/>
        <pt x="852" y="905" on="0"/>
        <pt x="840" y="929" on="0"/>
        <pt x="815" y="962" on="0"/>
        <pt x="780" y="974" on="0"/>
        <pt x="725" y="987" on="0"/>
        <pt x="657" y="990" on="0"/>
        <pt x="609" y="990" on="1"/>
        <pt x="508" y="990" on="0"/>
        <pt x="395" y="961" on="0"/>
        <pt x="370" y="927" on="1"/>
        <pt x="352" y="893" on="0"/>
        <pt x="352" y="773" on="1"/>
        <pt x="352" y="269" on="1"/>
        <pt x="352" y="187" on="0"/>
        <pt x="468" y="122" on="0"/>
        <pt x="610" y="122" on="1"/>
        <pt x="751" y="122" on="0"/>
        <pt x="804" y="147" on="1"/>
        <pt x="861" y="167" on="0"/>
        <pt x="861" y="349" on="1"/>
      </contour>
    </TTGlyph>
    <TTGlyph name="backslash" xMin="61" yMin="-26" xMax="603" yMax="1516">
      <contour>
        <pt x="603" y="-26" on="1"/>
        <pt x="404" y="-26" on="1"/>
        <pt x="61" y="1516" on="1"/>
        <pt x="260" y="1516" on="1"/>
      </contour>
    </TTGlyph>
    <TTGlyph name="bar" xMin="169" yMin="-98" xMax="344" yMax="1716">
      <contour>
        <pt x="169" y="1716" on="1"/>
        <pt x="344" y="1716" on="1"/>
        <pt x="344" y="-98" on="1"/>
        <pt x="169" y="-98" on="1"/>
      </contour>
    </TTGlyph>
    <TTGlyph name="braceleft" xMin="60" yMin="-172" xMax="657" yMax="1694">
      <contour>
        <pt x="656" y="1694" on="1"/>
        <pt x="656" y="1530" on="1"/>
        <pt x="554" y="1530" on="0"/>
        <pt x="451" y="1446" on="0"/>
        <pt x="429" y="1334" on="1"/>
        <pt x="409" y="1267" on="0"/>
        <pt x="384" y="1103" on="0"/>
        <pt x="371" y="989" on="0"/>
        <pt x="345" y="877" on="0"/>
        <pt x="287" y="799" on="0"/>
        <pt x="238" y="778" on="1"/>
        <pt x="286" y="759" on="0"/>
        <pt x="348" y="670" on="0"/>
        <pt x="377" y="547" on="0"/>
        <pt x="391" y="429" on="0"/>
        <pt x="406" y="283" on="0"/>
        <pt x="415" y="241" on="1"/>
        <pt x="435" y="111" on="0"/>
        <pt x="545" y="-8" on="0"/>
        <pt x="657" y="-8" on="1"/>
        <pt x="657" y="-172" on="1"/>
        <pt x="485" y="-172" on="0"/>
        <pt x="282" y="-40" on="0"/>
        <pt x="240" y="104" on="1"/>
        <pt x="230" y="139" on="0"/>
        <pt x="220" y="292" on="0"/>
        <pt x="209" y="436" on="0"/>
        <pt x="183" y="577" on="0"/>
        <pt x="115" y="664" on="0"/>
        <pt x="60" y="664" on="1"/>
        <pt x="60" y="858" on="1"/>
        <pt x="144" y="858" on="0"/>
        <pt x="179" y="976" on="1"/>
        <pt x="195" y="1027" on="0"/>
        <pt x="215" y="1188" on="1"/>
        <pt x="215" y="1192" on="0"/>
        <pt x="216" y="1196" on="1"/>
        <pt x="222" y="1241" on="0"/>
        <pt x="230" y="1297" on="0"/>
        <pt x="249" y="1389" on="0"/>
        <pt x="270" y="1450" on="0"/>
        <pt x="307" y="1530" on="0"/>
        <pt x="351" y="1583" on="0"/>
        <pt x="415" y="1640" on="0"/>
        <pt x="493" y="1673" on="0"/>
        <pt x="596" y="1694" on="0"/>
      </contour>
    </TTGlyph>
    <TTGlyph name="braceright" xMin="-12" yMin="-172" xMax="585" yMax="1694">
      <contour>
        <pt x="-12" y="-172" on="1"/>
        <pt x="-12" y="-8" on="1"/>
        <pt x="85" y="-8" on="0"/>
        <pt x="185" y="69" on="0"/>
        <pt x="211" y="171" on="1"/>
        <pt x="229" y="227" on="0"/>
        <pt x="249" y="430" on="0"/>
        <pt x="262" y="587" on="0"/>
        <pt x="322" y="733" on="0"/>
        <pt x="377" y="758" on="1"/>
        <pt x="343" y="775" on="0"/>
        <pt x="294" y="842" on="0"/>
        <pt x="267" y="941" on="0"/>
        <pt x="253" y="1028" on="0"/>
        <pt x="247" y="1091" on="1"/>
        <pt x="242" y="1164" on="0"/>
        <pt x="231" y="1264" on="0"/>
        <pt x="213" y="1363" on="0"/>
        <pt x="188" y="1426" on="0"/>
        <pt x="151" y="1483" on="0"/>
        <pt x="100" y="1513" on="0"/>
        <pt x="33" y="1530" on="0"/>
        <pt x="-11" y="1530" on="1"/>
        <pt x="-11" y="1694" on="1"/>
        <pt x="81" y="1694" on="0"/>
        <pt x="218" y="1650" on="0"/>
        <pt x="309" y="1575" on="0"/>
        <pt x="373" y="1448" on="0"/>
        <pt x="410" y="1308" on="0"/>
        <pt x="425" y="1207" on="1"/>
        <pt x="444" y="1082" on="1"/>
        <pt x="462" y="962" on="0"/>
        <pt x="520" y="858" on="0"/>
        <pt x="585" y="858" on="1"/>
        <pt x="585" y="664" on="1"/>
        <pt x="515" y="664" on="0"/>
        <pt x="455" y="559" on="0"/>
        <pt x="442" y="442" on="1"/>
        <pt x="430" y="304" on="1"/>
        <pt x="423" y="242" on="0"/>
        <pt x="409" y="155" on="0"/>
        <pt x="380" y="47" on="0"/>
        <pt x="341" y="-25" on="0"/>
        <pt x="275" y="-100" on="0"/>
        <pt x="189" y="-144" on="0"/>
        <pt x="65" y="-172" on="0"/>
      </contour>
    </TTGlyph>
    <TTGlyph name="bracketleft" xMin="173" yMin="-257" xMax="619" yMax="1653">
      <contour>
        <pt x="619" y="-257" on="1"/>
        <pt x="173" y="-257" on="1"/>
        <pt x="173" y="1653" on="1"/>
        <pt x="619" y="1653" on="1"/>
        <pt x="619" y="1502" on="1"/>
        <pt x="364" y="1502" on="1"/>
        <pt x="364" y="-105" on="1"/>
        <pt x="619" y="-105" on="1"/>
      </contour>
    </TTGlyph>
    <TTGlyph name="bracketright" xMin="-3" yMin="-257" xMax="442" yMax="1653">
      <contour>
        <pt x="442" y="-257" on="1"/>
        <pt x="-3" y="-257" on="1"/>
        <pt x="-3" y="-105" on="1"/>
        <pt x="251" y="-105" on="1"/>
        <pt x="251" y="1502" on="1"/>
        <pt x="-3" y="1502" on="1"/>
        <pt x="-3" y="1653" on="1"/>
        <pt x="442" y="1653" on="1"/>
      </contour>
    </TTGlyph>
    <TTGlyph name="breve" xMin="83" yMin="1448" xMax="674" yMax="1748">
      <contour>
        <pt x="83" y="1748" on="1"/>
        <pt x="225" y="1748" on="1"/>
        <pt x="224" y="1745" on="0"/>
        <pt x="224" y="1736" on="1"/>
        <pt x="224" y="1644" on="0"/>
        <pt x="287" y="1574" on="0"/>
        <pt x="378" y="1574" on="1"/>
        <pt x="470" y="1574" on="0"/>
        <pt x="532" y="1647" on="0"/>
        <pt x="532" y="1748" on="1"/>
        <pt x="674" y="1748" on="1"/>
        <pt x="674" y="1579" on="0"/>
        <pt x="521" y="1448" on="0"/>
        <pt x="341" y="1448" on="1"/>
        <pt x="223" y="1448" on="0"/>
        <pt x="83" y="1591" on="0"/>
      </contour>
    </TTGlyph>
    <TTGlyph name="brokenbar" xMin="162" yMin="-249" xMax="349" yMax="1631">
      <contour>
        <pt x="162" y="563" on="1"/>
        <pt x="349" y="563" on="1"/>
        <pt x="349" y="-249" on="1"/>
        <pt x="162" y="-249" on="1"/>
      </contour>
      <contour>
        <pt x="162" y="1631" on="1"/>
        <pt x="349" y="1631" on="1"/>
        <pt x="349" y="819" on="1"/>
        <pt x="162" y="819" on="1"/>
      </contour>
    </TTGlyph>
    <TTGlyph name="bullet" xMin="111" yMin="298" xMax="792" yMax="1030">
      <contour>
        <pt x="111" y="662" on="1"/>
        <pt x="111" y="759" on="0"/>
        <pt x="190" y="924" on="0"/>
        <pt x="352" y="1030" on="0"/>
        <pt x="459" y="1030" on="1"/>
        <pt x="564" y="1030" on="0"/>
        <pt x="718" y="927" on="0"/>
        <pt x="792" y="763" on="0"/>
        <pt x="792" y="664" on="1"/>
        <pt x="792" y="509" on="0"/>
        <pt x="612" y="298" on="0"/>
        <pt x="457" y="298" on="1"/>
        <pt x="299" y="298" on="0"/>
        <pt x="111" y="512" on="0"/>
      </contour>
    </TTGlyph>
    <TTGlyph name="c" xMin="124" yMin="-15" xMax="985" yMax="1128">
      <contour>
        <pt x="985" y="781" on="1"/>
        <pt x="823" y="754" on="1"/>
        <pt x="802" y="893" on="1"/>
        <pt x="794" y="941" on="0"/>
        <pt x="783" y="954" on="1"/>
        <pt x="757" y="984" on="0"/>
        <pt x="639" y="988" on="1"/>
        <pt x="611" y="989" on="0"/>
        <pt x="577" y="989" on="1"/>
        <pt x="441" y="989" on="0"/>
        <pt x="399" y="974" on="1"/>
        <pt x="353" y="966" on="0"/>
        <pt x="311" y="800" on="0"/>
        <pt x="311" y="680" on="1"/>
        <pt x="312" y="507" on="1"/>
        <pt x="312" y="471" on="0"/>
        <pt x="312" y="408" on="1"/>
        <pt x="312" y="326" on="0"/>
        <pt x="312" y="259" on="0"/>
        <pt x="330" y="174" on="0"/>
        <pt x="353" y="153" on="0"/>
        <pt x="417" y="125" on="0"/>
        <pt x="490" y="123" on="0"/>
        <pt x="559" y="123" on="1"/>
        <pt x="613" y="123" on="0"/>
        <pt x="692" y="131" on="0"/>
        <pt x="747" y="142" on="0"/>
        <pt x="782" y="169" on="0"/>
        <pt x="801" y="191" on="0"/>
        <pt x="811" y="238" on="0"/>
        <pt x="814" y="272" on="0"/>
        <pt x="818" y="341" on="0"/>
        <pt x="821" y="365" on="1"/>
        <pt x="985" y="337" on="1"/>
        <pt x="979" y="259" on="0"/>
        <pt x="964" y="165" on="0"/>
        <pt x="929" y="77" on="0"/>
        <pt x="876" y="32" on="0"/>
        <pt x="783" y="-4" on="0"/>
        <pt x="660" y="-15" on="0"/>
        <pt x="568" y="-15" on="1"/>
        <pt x="502" y="-15" on="0"/>
        <pt x="397" y="-7" on="0"/>
        <pt x="311" y="18" on="0"/>
        <pt x="247" y="41" on="0"/>
        <pt x="198" y="99" on="0"/>
        <pt x="165" y="141" on="0"/>
        <pt x="143" y="235" on="0"/>
        <pt x="131" y="301" on="0"/>
        <pt x="125" y="436" on="0"/>
        <pt x="124" y="530" on="0"/>
        <pt x="124" y="619" on="1"/>
        <pt x="124" y="699" on="0"/>
        <pt x="130" y="816" on="0"/>
        <pt x="148" y="923" on="0"/>
        <pt x="177" y="994" on="0"/>
        <pt x="226" y="1056" on="0"/>
        <pt x="289" y="1092" on="0"/>
        <pt x="382" y="1118" on="0"/>
        <pt x="493" y="1128" on="0"/>
        <pt x="567" y="1128" on="1"/>
        <pt x="662" y="1128" on="0"/>
        <pt x="791" y="1109" on="0"/>
        <pt x="891" y="1065" on="0"/>
        <pt x="949" y="984" on="0"/>
        <pt x="981" y="867" on="0"/>
      </contour>
    </TTGlyph>
    <TTGlyph name="cacute" xMin="124" yMin="-15" xMax="985" yMax="1583">
      <component glyphName="glyph00393" x="124" y="0" flags="0x0"/>
      <component glyphName="c" x="0" y="0" flags="0x1004"/>
      <component glyphName="acute" x="212" y="-57" flags="0x1004"/>
    </TTGlyph>
    <TTGlyph name="caron" xMin="121" yMin="1391" xMax="693" yMax="1806">
      <contour>
        <pt x="176" y="1806" on="1"/>
        <pt x="407" y="1570" on="1"/>
        <pt x="638" y="1806" on="1"/>
        <pt x="693" y="1752" on="1"/>
        <pt x="501" y="1443" on="1"/>
        <pt x="466" y="1391" on="0"/>
        <pt x="348" y="1391" on="0"/>
        <pt x="313" y="1443" on="1"/>
        <pt x="121" y="1752" on="1"/>
      </contour>
    </TTGlyph>
    <TTGlyph name="ccaron" xMin="124" yMin="-15" xMax="985" yMax="1645">
      <component glyphName="glyph00393" x="124" y="0" flags="0x0"/>
      <component glyphName="c" x="0" y="0" flags="0x1004"/>
      <component glyphName="caron" x="155" y="-161" flags="0x1004"/>
    </TTGlyph>
    <TTGlyph name="ccedilla" xMin="124" yMin="-549" xMax="985" yMax="1128">
      <component glyphName="glyph00393" x="124" y="0" flags="0x0"/>
      <component glyphName="c" x="0" y="0" flags="0x1004"/>
      <component glyphName="cedilla" x="180" y="3" flags="0x1004"/>
    </TTGlyph>
    <TTGlyph name="ccircumflex" xMin="124" yMin="-15" xMax="985" yMax="1645">
      <component glyphName="glyph00393" x="124" y="0" flags="0x0"/>
      <component glyphName="c" x="0" y="0" flags="0x1004"/>
      <component glyphName="circumflex" x="155" y="-161" flags="0x1004"/>
    </TTGlyph>
    <TTGlyph name="cdotaccent" xMin="124" yMin="-15" xMax="985" yMax="1458">
      <component glyphName="glyph00393" x="124" y="0" flags="0x0"/>
      <component glyphName="c" x="0" y="0" flags="0x1004"/>
      <component glyphName="dotaccent" x="335" y="23" flags="0x1004"/>
    </TTGlyph>
    <TTGlyph name="cedilla" xMin="124" yMin="-552" xMax="608" yMax="0">
      <contour>
        <pt x="329" y="0" on="1"/>
        <pt x="438" y="0" on="1"/>
        <pt x="389" y="-168" on="1"/>
        <pt x="445" y="-176" on="0"/>
        <pt x="515" y="-195" on="0"/>
        <pt x="579" y="-237" on="0"/>
        <pt x="608" y="-309" on="0"/>
        <pt x="608" y="-364" on="1"/>
        <pt x="608" y="-454" on="0"/>
        <pt x="466" y="-552" on="0"/>
        <pt x="363" y="-552" on="1"/>
        <pt x="220" y="-552" on="0"/>
        <pt x="124" y="-470" on="1"/>
        <pt x="171" y="-380" on="1"/>
        <pt x="282" y="-430" on="0"/>
        <pt x="333" y="-430" on="1"/>
        <pt x="392" y="-430" on="0"/>
        <pt x="392" y="-376" on="1"/>
        <pt x="392" y="-289" on="0"/>
        <pt x="254" y="-289" on="1"/>
        <pt x="262" y="-254" on="0"/>
        <pt x="291" y="-144" on="1"/>
      </contour>
    </TTGlyph>
    <TTGlyph name="cent" xMin="115" yMin="-72" xMax="999" yMax="1505">
      <contour>
        <pt x="198" y="200" on="1"/>
        <pt x="145" y="248" on="0"/>
        <pt x="115" y="456" on="0"/>
        <pt x="115" y="647" on="1"/>
        <pt x="115" y="676" on="0"/>
        <pt x="115" y="729" on="1"/>
        <pt x="115" y="825" on="0"/>
        <pt x="116" y="912" on="0"/>
        <pt x="121" y="1052" on="0"/>
        <pt x="137" y="1108" on="0"/>
        <pt x="162" y="1199" on="0"/>
        <pt x="206" y="1232" on="0"/>
        <pt x="265" y="1281" on="0"/>
        <pt x="349" y="1296" on="0"/>
        <pt x="455" y="1310" on="0"/>
        <pt x="525" y="1311" on="1"/>
        <pt x="525" y="1505" on="1"/>
        <pt x="598" y="1505" on="1"/>
        <pt x="598" y="1310" on="1"/>
        <pt x="755" y="1307" on="0"/>
        <pt x="930" y="1246" on="0"/>
        <pt x="999" y="1129" on="0"/>
        <pt x="999" y="1028" on="1"/>
        <pt x="999" y="1000" on="0"/>
        <pt x="995" y="922" on="0"/>
        <pt x="995" y="911" on="1"/>
        <pt x="807" y="911" on="1"/>
        <pt x="807" y="939" on="0"/>
        <pt x="809" y="1023" on="0"/>
        <pt x="809" y="1037" on="1"/>
        <pt x="809" y="1082" on="0"/>
        <pt x="798" y="1127" on="0"/>
        <pt x="749" y="1157" on="0"/>
        <pt x="674" y="1164" on="0"/>
        <pt x="598" y="1165" on="1"/>
        <pt x="598" y="260" on="1"/>
        <pt x="666" y="256" on="0"/>
        <pt x="686" y="256" on="1"/>
        <pt x="735" y="256" on="0"/>
        <pt x="782" y="290" on="0"/>
        <pt x="807" y="399" on="0"/>
        <pt x="807" y="510" on="1"/>
        <pt x="995" y="510" on="1"/>
        <pt x="997" y="476" on="0"/>
        <pt x="997" y="474" on="1"/>
        <pt x="997" y="407" on="0"/>
        <pt x="987" y="314" on="0"/>
        <pt x="959" y="234" on="0"/>
        <pt x="915" y="184" on="0"/>
        <pt x="841" y="146" on="0"/>
        <pt x="745" y="125" on="0"/>
        <pt x="677" y="120" on="1"/>
        <pt x="627" y="116" on="0"/>
        <pt x="598" y="116" on="1"/>
        <pt x="598" y="-72" on="1"/>
        <pt x="525" y="-72" on="1"/>
        <pt x="525" y="116" on="1"/>
        <pt x="284" y="120" on="0"/>
      </contour>
      <contour>
        <pt x="525" y="262" on="1"/>
        <pt x="525" y="1165" on="1"/>
        <pt x="510" y="1165" on="0"/>
        <pt x="461" y="1166" on="0"/>
        <pt x="451" y="1166" on="1"/>
        <pt x="416" y="1166" on="0"/>
        <pt x="376" y="1162" on="0"/>
        <pt x="341" y="1144" on="0"/>
        <pt x="325" y="1119" on="0"/>
        <pt x="313" y="1063" on="0"/>
        <pt x="310" y="997" on="0"/>
        <pt x="310" y="942" on="1"/>
        <pt x="310" y="894" on="0"/>
        <pt x="307" y="651" on="0"/>
        <pt x="307" y="590" on="1"/>
        <pt x="307" y="369" on="0"/>
        <pt x="322" y="320" on="1"/>
        <pt x="333" y="283" on="0"/>
        <pt x="419" y="262" on="0"/>
      </contour>
    </TTGlyph>
    <TTGlyph name="circumflex" xMin="121" yMin="1391" xMax="693" yMax="1806">
      <contour>
        <pt x="407" y="1627" on="1"/>
        <pt x="176" y="1391" on="1"/>
        <pt x="121" y="1445" on="1"/>
        <pt x="313" y="1754" on="1"/>
        <pt x="348" y="1806" on="0"/>
        <pt x="466" y="1806" on="0"/>
        <pt x="501" y="1754" on="1"/>
        <pt x="693" y="1445" on="1"/>
        <pt x="638" y="1391" on="1"/>
      </contour>
    </TTGlyph>
    <TTGlyph name="colon" xMin="133" yMin="136" xMax="413" yMax="1232">
      <contour>
        <pt x="413" y="360" on="0"/>
        <pt x="413" y="216" on="0"/>
        <pt x="329" y="136" on="0"/>
        <pt x="215" y="136" on="0"/>
        <pt x="133" y="216" on="0"/>
        <pt x="133" y="288" on="1"/>
        <pt x="133" y="361" on="0"/>
        <pt x="215" y="441" on="0"/>
        <pt x="271" y="441" on="1"/>
        <pt x="328" y="441" on="0"/>
      </contour>
      <contour>
        <pt x="133" y="1079" on="1"/>
        <pt x="133" y="1152" on="0"/>
        <pt x="215" y="1232" on="0"/>
        <pt x="329" y="1232" on="0"/>
        <pt x="413" y="1151" on="0"/>
        <pt x="413" y="1079" on="1"/>
        <pt x="413" y="1006" on="0"/>
        <pt x="331" y="925" on="0"/>
        <pt x="217" y="925" on="0"/>
        <pt x="133" y="1007" on="0"/>
      </contour>
    </TTGlyph>
    <TTGlyph name="comma" xMin="95" yMin="-231" xMax="411" yMax="309">
      <contour>
        <pt x="95" y="-159" on="1"/>
        <pt x="162" y="-159" on="0"/>
        <pt x="267" y="-65" on="0"/>
        <pt x="267" y="0" on="1"/>
        <pt x="204" y="0" on="0"/>
        <pt x="123" y="90" on="0"/>
        <pt x="123" y="154" on="1"/>
        <pt x="123" y="221" on="0"/>
        <pt x="202" y="309" on="0"/>
        <pt x="270" y="309" on="1"/>
        <pt x="334" y="309" on="0"/>
        <pt x="411" y="204" on="0"/>
        <pt x="411" y="130" on="1"/>
        <pt x="411" y="46" on="0"/>
        <pt x="343" y="-121" on="0"/>
        <pt x="222" y="-231" on="0"/>
        <pt x="155" y="-231" on="1"/>
        <pt x="110" y="-231" on="0"/>
        <pt x="95" y="-227" on="1"/>
      </contour>
    </TTGlyph>
    <TTGlyph name="copyright" xMin="94" yMin="0" xMax="1648" yMax="1532">
      <contour>
        <pt x="94" y="762" on="1"/>
        <pt x="94" y="911" on="0"/>
        <pt x="181" y="1164" on="0"/>
        <pt x="330" y="1344" on="0"/>
        <pt x="529" y="1471" on="0"/>
        <pt x="754" y="1532" on="0"/>
        <pt x="872" y="1532" on="1"/>
        <pt x="992" y="1532" on="0"/>
        <pt x="1217" y="1470" on="0"/>
        <pt x="1415" y="1342" on="0"/>
        <pt x="1563" y="1161" on="0"/>
        <pt x="1648" y="909" on="0"/>
        <pt x="1648" y="761" on="1"/>
        <pt x="1648" y="617" on="0"/>
        <pt x="1563" y="369" on="0"/>
        <pt x="1417" y="190" on="0"/>
        <pt x="1222" y="63" on="0"/>
        <pt x="999" y="0" on="0"/>
        <pt x="881" y="0" on="1"/>
        <pt x="757" y="0" on="0"/>
        <pt x="527" y="62" on="0"/>
        <pt x="327" y="188" on="0"/>
        <pt x="179" y="367" on="0"/>
        <pt x="94" y="616" on="0"/>
      </contour>
      <contour>
        <pt x="207" y="760" on="1"/>
        <pt x="207" y="602" on="0"/>
        <pt x="318" y="344" on="0"/>
        <pt x="503" y="180" on="0"/>
        <pt x="735" y="92" on="0"/>
        <pt x="861" y="92" on="1"/>
        <pt x="995" y="92" on="0"/>
        <pt x="1236" y="180" on="0"/>
        <pt x="1424" y="343" on="0"/>
        <pt x="1535" y="601" on="0"/>
        <pt x="1535" y="760" on="1"/>
        <pt x="1535" y="923" on="0"/>
        <pt x="1421" y="1187" on="0"/>
        <pt x="1232" y="1351" on="0"/>
        <pt x="997" y="1438" on="0"/>
        <pt x="870" y="1438" on="1"/>
        <pt x="769" y="1438" on="0"/>
        <pt x="578" y="1385" on="0"/>
        <pt x="408" y="1273" on="0"/>
        <pt x="281" y="1116" on="0"/>
        <pt x="207" y="892" on="0"/>
      </contour>
      <contour>
        <pt x="1129" y="644" on="1"/>
        <pt x="1255" y="644" on="1"/>
        <pt x="1255" y="569" on="0"/>
        <pt x="1252" y="475" on="0"/>
        <pt x="1237" y="379" on="0"/>
        <pt x="1215" y="326" on="0"/>
        <pt x="1171" y="274" on="0"/>
        <pt x="1115" y="251" on="0"/>
        <pt x="1024" y="231" on="0"/>
        <pt x="918" y="226" on="0"/>
        <pt x="842" y="226" on="1"/>
        <pt x="787" y="226" on="0"/>
        <pt x="703" y="232" on="0"/>
        <pt x="630" y="252" on="0"/>
        <pt x="578" y="274" on="0"/>
        <pt x="535" y="322" on="0"/>
        <pt x="508" y="368" on="0"/>
        <pt x="487" y="453" on="0"/>
        <pt x="476" y="529" on="0"/>
        <pt x="470" y="659" on="0"/>
        <pt x="468" y="775" on="0"/>
        <pt x="468" y="865" on="1"/>
        <pt x="468" y="959" on="0"/>
        <pt x="478" y="1083" on="0"/>
        <pt x="507" y="1195" on="0"/>
        <pt x="559" y="1260" on="0"/>
        <pt x="646" y="1308" on="0"/>
        <pt x="766" y="1327" on="0"/>
        <pt x="852" y="1327" on="1"/>
        <pt x="945" y="1327" on="0"/>
        <pt x="1057" y="1318" on="0"/>
        <pt x="1157" y="1285" on="0"/>
        <pt x="1207" y="1234" on="0"/>
        <pt x="1244" y="1134" on="0"/>
        <pt x="1255" y="1007" on="0"/>
        <pt x="1255" y="909" on="1"/>
        <pt x="1129" y="909" on="1"/>
        <pt x="1127" y="939" on="0"/>
        <pt x="1127" y="992" on="1"/>
        <pt x="1127" y="1048" on="1"/>
        <pt x="1127" y="1084" on="0"/>
        <pt x="1123" y="1125" on="0"/>
        <pt x="1106" y="1168" on="0"/>
        <pt x="1075" y="1188" on="0"/>
        <pt x="1019" y="1206" on="0"/>
        <pt x="939" y="1212" on="0"/>
        <pt x="879" y="1212" on="1"/>
        <pt x="813" y="1212" on="0"/>
        <pt x="728" y="1208" on="0"/>
        <pt x="666" y="1193" on="0"/>
        <pt x="635" y="1176" on="0"/>
        <pt x="617" y="1137" on="0"/>
        <pt x="613" y="1099" on="0"/>
        <pt x="613" y="1064" on="1"/>
        <pt x="613" y="785" on="1"/>
        <pt x="613" y="719" on="0"/>
        <pt x="606" y="541" on="0"/>
        <pt x="606" y="515" on="1"/>
        <pt x="606" y="457" on="0"/>
        <pt x="623" y="395" on="0"/>
        <pt x="685" y="353" on="0"/>
        <pt x="786" y="341" on="0"/>
        <pt x="879" y="341" on="1"/>
        <pt x="923" y="341" on="0"/>
        <pt x="987" y="345" on="0"/>
        <pt x="1039" y="351" on="0"/>
        <pt x="1074" y="368" on="0"/>
        <pt x="1099" y="383" on="0"/>
        <pt x="1113" y="416" on="0"/>
        <pt x="1122" y="443" on="0"/>
        <pt x="1125" y="496" on="0"/>
        <pt x="1126" y="537" on="0"/>
        <pt x="1128" y="613" on="0"/>
      </contour>
    </TTGlyph>
    <TTGlyph name="currency" xMin="123" yMin="218" xMax="1003" yMax="1311">
      <contour>
        <pt x="250" y="773" on="1"/>
        <pt x="250" y="606" on="0"/>
        <pt x="400" y="447" on="0"/>
        <pt x="564" y="447" on="1"/>
        <pt x="877" y="447" on="0"/>
        <pt x="877" y="772" on="1"/>
        <pt x="877" y="938" on="0"/>
        <pt x="729" y="1098" on="0"/>
        <pt x="564" y="1098" on="1"/>
        <pt x="250" y="1098" on="0"/>
      </contour>
      <contour>
        <pt x="123" y="287" on="1"/>
        <pt x="262" y="457" on="1"/>
        <pt x="145" y="568" on="0"/>
        <pt x="145" y="764" on="1"/>
        <pt x="145" y="959" on="0"/>
        <pt x="262" y="1070" on="1"/>
        <pt x="124" y="1241" on="1"/>
        <pt x="187" y="1311" on="1"/>
        <pt x="337" y="1130" on="1"/>
        <pt x="426" y="1189" on="0"/>
        <pt x="562" y="1189" on="1"/>
        <pt x="697" y="1189" on="0"/>
        <pt x="786" y="1133" on="1"/>
        <pt x="938" y="1310" on="1"/>
        <pt x="1002" y="1240" on="1"/>
        <pt x="864" y="1071" on="1"/>
        <pt x="984" y="958" on="0"/>
        <pt x="984" y="765" on="1"/>
        <pt x="984" y="571" on="0"/>
        <pt x="864" y="457" on="1"/>
        <pt x="1003" y="287" on="1"/>
        <pt x="939" y="218" on="1"/>
        <pt x="789" y="397" on="1"/>
        <pt x="698" y="349" on="0"/>
        <pt x="564" y="349" on="1"/>
        <pt x="424" y="349" on="0"/>
        <pt x="336" y="398" on="1"/>
        <pt x="186" y="218" on="1"/>
      </contour>
    </TTGlyph>
    <TTGlyph name="d" xMin="124" yMin="-15" xMax="1025" yMax="1535">
      <contour>
        <pt x="1025" y="0" on="1"/>
        <pt x="845" y="0" on="1"/>
        <pt x="826" y="138" on="1"/>
        <pt x="765" y="-15" on="0"/>
        <pt x="507" y="-15" on="1"/>
        <pt x="438" y="-15" on="0"/>
        <pt x="329" y="3" on="0"/>
        <pt x="250" y="47" on="0"/>
        <pt x="194" y="94" on="0"/>
        <pt x="157" y="183" on="0"/>
        <pt x="136" y="256" on="0"/>
        <pt x="126" y="386" on="0"/>
        <pt x="124" y="483" on="0"/>
        <pt x="124" y="566" on="1"/>
        <pt x="124" y="647" on="0"/>
        <pt x="129" y="765" on="0"/>
        <pt x="144" y="881" on="0"/>
        <pt x="169" y="960" on="0"/>
        <pt x="211" y="1034" on="0"/>
        <pt x="270" y="1079" on="0"/>
        <pt x="352" y="1114" on="0"/>
        <pt x="458" y="1128" on="0"/>
        <pt x="525" y="1128" on="1"/>
        <pt x="654" y="1128" on="0"/>
        <pt x="797" y="1059" on="0"/>
        <pt x="828" y="984" on="1"/>
        <pt x="828" y="1519" on="1"/>
        <pt x="1025" y="1535" on="1"/>
      </contour>
      <contour>
        <pt x="828" y="255" on="1"/>
        <pt x="828" y="838" on="1"/>
        <pt x="828" y="925" on="0"/>
        <pt x="720" y="990" on="0"/>
        <pt x="571" y="990" on="1"/>
        <pt x="455" y="990" on="0"/>
        <pt x="399" y="973" on="1"/>
        <pt x="353" y="959" on="0"/>
        <pt x="321" y="822" on="0"/>
        <pt x="321" y="706" on="1"/>
        <pt x="321" y="537" on="0"/>
        <pt x="327" y="233" on="1"/>
        <pt x="332" y="167" on="0"/>
        <pt x="429" y="122" on="0"/>
        <pt x="571" y="122" on="1"/>
        <pt x="711" y="122" on="0"/>
        <pt x="822" y="178" on="0"/>
      </contour>
    </TTGlyph>
    <TTGlyph name="dagger" xMin="20" yMin="8" xMax="826" yMax="1552">
      <contour>
        <pt x="364" y="23" on="1"/>
        <pt x="317" y="53" on="0"/>
        <pt x="317" y="146" on="1"/>
        <pt x="340" y="438" on="0"/>
        <pt x="368" y="743" on="1"/>
        <pt x="386" y="939" on="1"/>
        <pt x="386" y="939" on="0"/>
        <pt x="376" y="935" on="1"/>
        <pt x="366" y="931" on="0"/>
        <pt x="332" y="918" on="0"/>
        <pt x="289" y="902" on="0"/>
        <pt x="240" y="886" on="0"/>
        <pt x="194" y="873" on="0"/>
        <pt x="150" y="865" on="0"/>
        <pt x="135" y="865" on="1"/>
        <pt x="20" y="865" on="0"/>
        <pt x="20" y="972" on="1"/>
        <pt x="20" y="1020" on="0"/>
        <pt x="69" y="1084" on="0"/>
        <pt x="110" y="1084" on="1"/>
        <pt x="131" y="1084" on="0"/>
        <pt x="167" y="1082" on="0"/>
        <pt x="202" y="1075" on="0"/>
        <pt x="226" y="1070" on="0"/>
        <pt x="263" y="1057" on="0"/>
        <pt x="280" y="1051" on="0"/>
        <pt x="323" y="1033" on="0"/>
        <pt x="331" y="1030" on="1"/>
        <pt x="390" y="1007" on="1"/>
        <pt x="323" y="1306" on="0"/>
        <pt x="323" y="1398" on="1"/>
        <pt x="323" y="1478" on="0"/>
        <pt x="381" y="1552" on="0"/>
        <pt x="423" y="1552" on="1"/>
        <pt x="473" y="1552" on="0"/>
        <pt x="523" y="1478" on="0"/>
        <pt x="523" y="1390" on="1"/>
        <pt x="523" y="1324" on="0"/>
        <pt x="454" y="1007" on="1"/>
        <pt x="652" y="1084" on="0"/>
        <pt x="725" y="1084" on="1"/>
        <pt x="826" y="1084" on="0"/>
        <pt x="826" y="959" on="1"/>
        <pt x="826" y="914" on="0"/>
        <pt x="763" y="865" on="0"/>
        <pt x="710" y="865" on="1"/>
        <pt x="649" y="865" on="0"/>
        <pt x="459" y="939" on="1"/>
        <pt x="487" y="629" on="1"/>
        <pt x="512" y="352" on="0"/>
        <pt x="529" y="146" on="1"/>
        <pt x="529" y="8" on="0"/>
        <pt x="423" y="8" on="1"/>
        <pt x="388" y="8" on="0"/>
      </contour>
    </TTGlyph>
    <TTGlyph name="daggerdbl" xMin="65" yMin="-38" xMax="985" yMax="1552">
      <contour>
        <pt x="934" y="397" on="1"/>
        <pt x="908" y="381" on="0"/>
        <pt x="880" y="381" on="1"/>
        <pt x="819" y="381" on="0"/>
        <pt x="703" y="413" on="0"/>
        <pt x="590" y="467" on="0"/>
        <pt x="589" y="467" on="1"/>
        <pt x="603" y="420" on="1"/>
        <pt x="605" y="415" on="0"/>
        <pt x="624" y="351" on="0"/>
        <pt x="632" y="322" on="0"/>
        <pt x="649" y="260" on="0"/>
        <pt x="658" y="221" on="0"/>
        <pt x="669" y="170" on="0"/>
        <pt x="673" y="130" on="0"/>
        <pt x="673" y="114" on="1"/>
        <pt x="673" y="43" on="0"/>
        <pt x="593" y="-38" on="0"/>
        <pt x="459" y="-38" on="0"/>
        <pt x="378" y="43" on="0"/>
        <pt x="378" y="112" on="1"/>
        <pt x="378" y="159" on="0"/>
        <pt x="429" y="344" on="0"/>
        <pt x="435" y="374" on="1"/>
        <pt x="462" y="467" on="1"/>
        <pt x="263" y="381" on="0"/>
        <pt x="195" y="381" on="1"/>
        <pt x="133" y="381" on="0"/>
        <pt x="65" y="442" on="0"/>
        <pt x="65" y="500" on="1"/>
        <pt x="65" y="619" on="0"/>
        <pt x="196" y="619" on="1"/>
        <pt x="267" y="619" on="0"/>
        <pt x="462" y="535" on="1"/>
        <pt x="462" y="979" on="1"/>
        <pt x="262" y="895" on="0"/>
        <pt x="194" y="895" on="1"/>
        <pt x="65" y="895" on="0"/>
        <pt x="65" y="1013" on="1"/>
        <pt x="65" y="1071" on="0"/>
        <pt x="132" y="1134" on="0"/>
        <pt x="194" y="1134" on="1"/>
        <pt x="262" y="1134" on="0"/>
        <pt x="462" y="1047" on="1"/>
        <pt x="462" y="1049" on="0"/>
        <pt x="427" y="1164" on="0"/>
        <pt x="402" y="1252" on="0"/>
        <pt x="378" y="1368" on="0"/>
        <pt x="378" y="1400" on="1"/>
        <pt x="378" y="1471" on="0"/>
        <pt x="458" y="1552" on="0"/>
        <pt x="526" y="1552" on="1"/>
        <pt x="592" y="1552" on="0"/>
        <pt x="673" y="1470" on="0"/>
        <pt x="673" y="1402" on="1"/>
        <pt x="673" y="1367" on="0"/>
        <pt x="651" y="1268" on="0"/>
        <pt x="599" y="1085" on="0"/>
        <pt x="589" y="1047" on="1"/>
        <pt x="803" y="1134" on="0"/>
        <pt x="867" y="1134" on="1"/>
        <pt x="985" y="1134" on="0"/>
        <pt x="985" y="1000" on="1"/>
        <pt x="985" y="950" on="0"/>
        <pt x="914" y="895" on="0"/>
        <pt x="855" y="895" on="1"/>
        <pt x="782" y="895" on="0"/>
        <pt x="589" y="979" on="1"/>
        <pt x="589" y="535" on="1"/>
        <pt x="790" y="619" on="0"/>
        <pt x="858" y="619" on="1"/>
        <pt x="919" y="619" on="0"/>
        <pt x="985" y="557" on="0"/>
        <pt x="985" y="500" on="1"/>
        <pt x="985" y="432" on="0"/>
      </contour>
    </TTGlyph>
    <TTGlyph name="dcaron" xMin="124" yMin="-15" xMax="1482" yMax="1535">
      <component glyphName="glyph00393" x="124" y="0" flags="0x0"/>
      <component glyphName="d" x="0" y="0" flags="0x1004"/>
      <component glyphName="comma" x="1071" y="1226" flags="0x1004"/>
    </TTGlyph>
    <TTGlyph name="dcroat" xMin="113" yMin="-14" xMax="1158" yMax="1542">
      <contour>
        <pt x="113" y="371" on="1"/>
        <pt x="113" y="778" on="1"/>
        <pt x="113" y="968" on="0"/>
        <pt x="297" y="1133" on="0"/>
        <pt x="510" y="1133" on="1"/>
        <pt x="647" y="1133" on="0"/>
        <pt x="789" y="1064" on="0"/>
        <pt x="818" y="986" on="1"/>
        <pt x="818" y="1261" on="1"/>
        <pt x="561" y="1261" on="1"/>
        <pt x="561" y="1364" on="1"/>
        <pt x="818" y="1364" on="1"/>
        <pt x="818" y="1542" on="1"/>
        <pt x="1013" y="1542" on="1"/>
        <pt x="1013" y="1364" on="1"/>
        <pt x="1158" y="1364" on="1"/>
        <pt x="1158" y="1261" on="1"/>
        <pt x="1013" y="1261" on="1"/>
        <pt x="1013" y="0" on="1"/>
        <pt x="838" y="0" on="1"/>
        <pt x="816" y="144" on="1"/>
        <pt x="766" y="-14" on="0"/>
        <pt x="490" y="-14" on="1"/>
        <pt x="378" y="-14" on="0"/>
        <pt x="233" y="29" on="0"/>
        <pt x="147" y="126" on="0"/>
        <pt x="113" y="265" on="0"/>
      </contour>
      <contour>
        <pt x="560" y="1005" on="1"/>
        <pt x="493" y="1005" on="0"/>
        <pt x="424" y="1002" on="0"/>
        <pt x="354" y="989" on="0"/>
        <pt x="326" y="962" on="0"/>
        <pt x="308" y="916" on="0"/>
        <pt x="308" y="879" on="1"/>
        <pt x="308" y="221" on="1"/>
        <pt x="308" y="155" on="0"/>
        <pt x="404" y="114" on="0"/>
        <pt x="559" y="114" on="1"/>
        <pt x="712" y="114" on="0"/>
        <pt x="818" y="166" on="0"/>
        <pt x="818" y="246" on="1"/>
        <pt x="818" y="866" on="1"/>
        <pt x="818" y="952" on="0"/>
        <pt x="719" y="1005" on="0"/>
      </contour>
    </TTGlyph>
    <TTGlyph name="degree" xMin="111" yMin="1046" xMax="726" yMax="1597">
      <contour>
        <pt x="289" y="1389" on="0"/>
        <pt x="289" y="1253" on="0"/>
        <pt x="360" y="1155" on="0"/>
        <pt x="478" y="1155" on="0"/>
        <pt x="551" y="1253" on="0"/>
        <pt x="551" y="1389" on="0"/>
        <pt x="478" y="1486" on="0"/>
        <pt x="418" y="1486" on="1"/>
        <pt x="360" y="1486" on="0"/>
      </contour>
      <contour>
        <pt x="111" y="1202" on="0"/>
        <pt x="111" y="1442" on="0"/>
        <pt x="294" y="1597" on="0"/>
        <pt x="544" y="1597" on="0"/>
        <pt x="726" y="1440" on="0"/>
        <pt x="726" y="1202" on="0"/>
        <pt x="546" y="1046" on="0"/>
        <pt x="292" y="1046" on="0"/>
      </contour>
    </TTGlyph>
    <TTGlyph name="dieresis" xMin="117" yMin="117" xMax="869" yMax="371">
      <contour>
        <pt x="609" y="182" on="0"/>
        <pt x="609" y="306" on="0"/>
        <pt x="681" y="371" on="0"/>
        <pt x="799" y="371" on="0"/>
        <pt x="869" y="307" on="0"/>
        <pt x="869" y="181" on="0"/>
        <pt x="799" y="117" on="0"/>
        <pt x="681" y="117" on="0"/>
      </contour>
      <contour>
        <pt x="117" y="182" on="0"/>
        <pt x="117" y="306" on="0"/>
        <pt x="189" y="371" on="0"/>
        <pt x="307" y="371" on="0"/>
        <pt x="377" y="307" on="0"/>
        <pt x="377" y="181" on="0"/>
        <pt x="307" y="117" on="0"/>
        <pt x="189" y="117" on="0"/>
      </contour>
    </TTGlyph>
    <TTGlyph name="divide" xMin="133" yMin="134" xMax="413" yMax="1233">
      <contour>
        <pt x="273" y="925" on="1"/>
        <pt x="211" y="925" on="0"/>
        <pt x="133" y="1009" on="0"/>
        <pt x="133" y="1079" on="1"/>
        <pt x="133" y="1152" on="0"/>
        <pt x="212" y="1233" on="0"/>
        <pt x="287" y="1233" on="1"/>
        <pt x="338" y="1233" on="0"/>
        <pt x="413" y="1139" on="0"/>
        <pt x="413" y="1079" on="1"/>
        <pt x="413" y="1011" on="0"/>
        <pt x="338" y="925" on="0"/>
      </contour>
      <contour>
        <pt x="375" y="178" on="1"/>
        <pt x="337" y="134" on="0"/>
        <pt x="273" y="134" on="1"/>
        <pt x="211" y="134" on="0"/>
        <pt x="133" y="218" on="0"/>
        <pt x="133" y="288" on="1"/>
        <pt x="133" y="360" on="0"/>
        <pt x="212" y="442" on="0"/>
        <pt x="287" y="442" on="1"/>
        <pt x="338" y="442" on="0"/>
        <pt x="413" y="348" on="0"/>
        <pt x="413" y="288" on="1"/>
        <pt x="413" y="224" on="0"/>
      </contour>
    </TTGlyph>
    <TTGlyph name="dollar" xMin="131" yMin="-176" xMax="1156" yMax="1641">
      <contour>
        <pt x="608" y="-176" on="1"/>
        <pt x="608" y="1641" on="1"/>
        <pt x="702" y="1641" on="1"/>
        <pt x="702" y="-176" on="1"/>
      </contour>
      <contour>
        <pt x="1156" y="502" on="0"/>
        <pt x="1156" y="372" on="0"/>
        <pt x="1148" y="267" on="0"/>
        <pt x="1127" y="180" on="0"/>
        <pt x="1103" y="114" on="0"/>
        <pt x="1059" y="63" on="0"/>
        <pt x="1016" y="27" on="0"/>
        <pt x="947" y="2" on="0"/>
        <pt x="883" y="-13" on="0"/>
        <pt x="787" y="-21" on="0"/>
        <pt x="700" y="-24" on="0"/>
        <pt x="637" y="-24" on="1"/>
        <pt x="518" y="-24" on="0"/>
        <pt x="357" y="-10" on="0"/>
        <pt x="244" y="36" on="0"/>
        <pt x="182" y="85" on="0"/>
        <pt x="146" y="192" on="0"/>
        <pt x="135" y="290" on="0"/>
        <pt x="131" y="380" on="1"/>
        <pt x="316" y="410" on="1"/>
        <pt x="319" y="388" on="0"/>
        <pt x="322" y="348" on="1"/>
        <pt x="328" y="286" on="0"/>
        <pt x="339" y="235" on="0"/>
        <pt x="371" y="173" on="0"/>
        <pt x="439" y="154" on="0"/>
        <pt x="549" y="140" on="0"/>
        <pt x="641" y="140" on="1"/>
        <pt x="729" y="140" on="0"/>
        <pt x="839" y="149" on="0"/>
        <pt x="911" y="165" on="0"/>
        <pt x="944" y="201" on="0"/>
        <pt x="955" y="244" on="0"/>
        <pt x="955" y="281" on="1"/>
        <pt x="955" y="297" on="0"/>
        <pt x="955" y="326" on="1"/>
        <pt x="955" y="517" on="0"/>
        <pt x="934" y="637" on="0"/>
        <pt x="883" y="646" on="1"/>
        <pt x="385" y="733" on="1"/>
        <pt x="255" y="755" on="0"/>
        <pt x="153" y="909" on="0"/>
        <pt x="150" y="1081" on="1"/>
        <pt x="150" y="1173" on="0"/>
        <pt x="169" y="1304" on="0"/>
        <pt x="216" y="1403" on="0"/>
        <pt x="285" y="1463" on="0"/>
        <pt x="398" y="1500" on="0"/>
        <pt x="533" y="1513" on="0"/>
        <pt x="631" y="1513" on="1"/>
        <pt x="711" y="1513" on="0"/>
        <pt x="826" y="1506" on="0"/>
        <pt x="935" y="1488" on="0"/>
        <pt x="1007" y="1456" on="0"/>
        <pt x="1068" y="1405" on="0"/>
        <pt x="1102" y="1332" on="0"/>
        <pt x="1120" y="1234" on="0"/>
        <pt x="1120" y="1170" on="1"/>
        <pt x="942" y="1129" on="1"/>
        <pt x="932" y="1239" on="0"/>
        <pt x="929" y="1254" on="1"/>
        <pt x="917" y="1305" on="0"/>
        <pt x="872" y="1323" on="1"/>
        <pt x="822" y="1344" on="0"/>
        <pt x="663" y="1344" on="1"/>
        <pt x="576" y="1344" on="0"/>
        <pt x="463" y="1334" on="0"/>
        <pt x="391" y="1315" on="0"/>
        <pt x="356" y="1277" on="0"/>
        <pt x="344" y="1234" on="0"/>
        <pt x="344" y="1199" on="1"/>
        <pt x="344" y="1026" on="1"/>
        <pt x="344" y="934" on="0"/>
        <pt x="426" y="918" on="1"/>
        <pt x="784" y="857" on="1"/>
        <pt x="845" y="845" on="0"/>
        <pt x="902" y="832" on="0"/>
        <pt x="993" y="806" on="0"/>
        <pt x="1034" y="780" on="0"/>
        <pt x="1094" y="736" on="0"/>
        <pt x="1118" y="681" on="0"/>
        <pt x="1147" y="603" on="0"/>
      </contour>
    </TTGlyph>
    <TTGlyph name="dotaccent" xMin="128" yMin="1207" xMax="326" yMax="1435">
      <contour>
        <pt x="128" y="1207" on="1"/>
        <pt x="128" y="1245" on="0"/>
        <pt x="129" y="1397" on="0"/>
        <pt x="129" y="1435" on="1"/>
        <pt x="325" y="1435" on="1"/>
        <pt x="325" y="1397" on="0"/>
        <pt x="326" y="1245" on="0"/>
        <pt x="326" y="1207" on="1"/>
      </contour>
    </TTGlyph>
    <TTGlyph name="dotlessi" xMin="167" yMin="0" xMax="364" yMax="1097">
      <contour>
        <pt x="364" y="0" on="1"/>
        <pt x="167" y="0" on="1"/>
        <pt x="167" y="1097" on="1"/>
        <pt x="364" y="1097" on="1"/>
      </contour>
    </TTGlyph>
    <TTGlyph name="e" xMin="124" yMin="-15" xMax="1014" yMax="1128">
      <contour>
        <pt x="1014" y="564" on="1"/>
        <pt x="894" y="552" on="0"/>
        <pt x="865" y="550" on="1"/>
        <pt x="320" y="550" on="1"/>
        <pt x="321" y="405" on="0"/>
        <pt x="328" y="232" on="1"/>
        <pt x="333" y="165" on="0"/>
        <pt x="438" y="122" on="0"/>
        <pt x="590" y="122" on="1"/>
        <pt x="647" y="122" on="0"/>
        <pt x="729" y="131" on="0"/>
        <pt x="780" y="154" on="0"/>
        <pt x="809" y="175" on="0"/>
        <pt x="823" y="220" on="0"/>
        <pt x="827" y="251" on="0"/>
        <pt x="831" y="314" on="0"/>
        <pt x="834" y="334" on="1"/>
        <pt x="987" y="306" on="1"/>
        <pt x="985" y="236" on="0"/>
        <pt x="969" y="139" on="0"/>
        <pt x="931" y="65" on="0"/>
        <pt x="879" y="22" on="0"/>
        <pt x="791" y="-6" on="0"/>
        <pt x="685" y="-15" on="0"/>
        <pt x="607" y="-15" on="1"/>
        <pt x="507" y="-15" on="0"/>
        <pt x="359" y="8" on="0"/>
        <pt x="254" y="42" on="0"/>
        <pt x="186" y="119" on="0"/>
        <pt x="147" y="189" on="0"/>
        <pt x="129" y="325" on="0"/>
        <pt x="124" y="436" on="0"/>
        <pt x="124" y="534" on="1"/>
        <pt x="124" y="672" on="0"/>
        <pt x="131" y="826" on="0"/>
        <pt x="163" y="981" on="0"/>
        <pt x="217" y="1051" on="0"/>
        <pt x="323" y="1111" on="0"/>
        <pt x="467" y="1128" on="0"/>
        <pt x="578" y="1128" on="1"/>
        <pt x="655" y="1128" on="0"/>
        <pt x="767" y="1119" on="0"/>
        <pt x="861" y="1091" on="0"/>
        <pt x="922" y="1055" on="0"/>
        <pt x="969" y="985" on="0"/>
        <pt x="994" y="910" on="0"/>
        <pt x="1010" y="786" on="0"/>
        <pt x="1014" y="659" on="0"/>
      </contour>
      <contour>
        <pt x="321" y="655" on="1"/>
        <pt x="817" y="655" on="1"/>
        <pt x="815" y="783" on="0"/>
        <pt x="807" y="889" on="1"/>
        <pt x="803" y="950" on="0"/>
        <pt x="706" y="991" on="0"/>
        <pt x="577" y="991" on="1"/>
        <pt x="434" y="991" on="0"/>
        <pt x="396" y="975" on="1"/>
        <pt x="379" y="970" on="0"/>
        <pt x="354" y="945" on="0"/>
        <pt x="338" y="899" on="0"/>
        <pt x="329" y="859" on="0"/>
        <pt x="324" y="788" on="0"/>
        <pt x="322" y="749" on="0"/>
        <pt x="321" y="669" on="0"/>
      </contour>
    </TTGlyph>
    <TTGlyph name="eacute" xMin="124" yMin="-15" xMax="1014" yMax="1583">
      <component glyphName="glyph00393" x="124" y="0" flags="0x0"/>
      <component glyphName="e" x="0" y="0" flags="0x1004"/>
      <component glyphName="acute" x="222" y="-57" flags="0x1004"/>
    </TTGlyph>
    <TTGlyph name="ebreve" xMin="124" yMin="-15" xMax="1014" yMax="1530">
      <component glyphName="glyph00393" x="124" y="0" flags="0x0"/>
      <component glyphName="e" x="0" y="0" flags="0x1004"/>
      <component glyphName="breve" x="194" y="-218" flags="0x1004"/>
    </TTGlyph>
    <TTGlyph name="ecaron" xMin="124" yMin="-15" xMax="1014" yMax="1645">
      <component glyphName="glyph00393" x="124" y="0" flags="0x0"/>
      <component glyphName="e" x="0" y="0" flags="0x1004"/>
      <component glyphName="caron" x="166" y="-161" flags="0x1004"/>
    </TTGlyph>
    <TTGlyph name="ecircumflex" xMin="124" yMin="-15" xMax="1014" yMax="1645">
      <component glyphName="glyph00393" x="124" y="0" flags="0x0"/>
      <component glyphName="e" x="0" y="0" flags="0x1004"/>
      <component glyphName="circumflex" x="166" y="-161" flags="0x1004"/>
    </TTGlyph>
    <TTGlyph name="edieresis" xMin="124" yMin="-15" xMax="1014" yMax="1484">
      <component glyphName="glyph00393" x="124" y="0" flags="0x0"/>
      <component glyphName="e" x="0" y="0" flags="0x1004"/>
      <component glyphName="dieresis" x="80" y="1113" flags="0x1004"/>
    </TTGlyph>
    <TTGlyph name="edotaccent" xMin="124" yMin="-15" xMax="1014" yMax="1458">
      <component glyphName="glyph00393" x="124" y="0" flags="0x0"/>
      <component glyphName="e" x="0" y="0" flags="0x1004"/>
      <component glyphName="dotaccent" x="346" y="23" flags="0x1004"/>
    </TTGlyph>
    <TTGlyph name="egrave" xMin="124" yMin="-15" xMax="1014" yMax="1583">
      <component glyphName="glyph00393" x="124" y="0" flags="0x0"/>
      <component glyphName="e" x="0" y="0" flags="0x1004"/>
      <component glyphName="grave" x="240" y="-57" flags="0x1004"/>
    </TTGlyph>
    <TTGlyph name="eight" xMin="144" yMin="-16" xMax="1124" yMax="1506">
      <contour>
        <pt x="633" y="-16" on="1"/>
        <pt x="635" y="-16" on="1"/>
        <pt x="524" y="-16" on="0"/>
        <pt x="372" y="4" on="0"/>
        <pt x="249" y="55" on="0"/>
        <pt x="180" y="146" on="0"/>
        <pt x="144" y="284" on="0"/>
        <pt x="144" y="383" on="1"/>
        <pt x="144" y="550" on="0"/>
        <pt x="235" y="736" on="0"/>
        <pt x="326" y="798" on="1"/>
        <pt x="217" y="878" on="0"/>
        <pt x="217" y="1132" on="1"/>
        <pt x="217" y="1342" on="0"/>
        <pt x="412" y="1506" on="0"/>
        <pt x="856" y="1506" on="0"/>
        <pt x="1051" y="1342" on="0"/>
        <pt x="1051" y="1132" on="1"/>
        <pt x="1051" y="878" on="0"/>
        <pt x="942" y="798" on="1"/>
        <pt x="1033" y="736" on="0"/>
        <pt x="1124" y="550" on="0"/>
        <pt x="1124" y="383" on="1"/>
        <pt x="1124" y="284" on="0"/>
        <pt x="1088" y="146" on="0"/>
        <pt x="1019" y="55" on="0"/>
        <pt x="896" y="4" on="0"/>
        <pt x="744" y="-16" on="0"/>
      </contour>
      <contour>
        <pt x="633" y="711" on="1"/>
        <pt x="635" y="711" on="1"/>
        <pt x="572" y="711" on="0"/>
        <pt x="511" y="709" on="0"/>
        <pt x="428" y="702" on="0"/>
        <pt x="394" y="684" on="0"/>
        <pt x="350" y="655" on="0"/>
        <pt x="335" y="606" on="0"/>
        <pt x="323" y="540" on="0"/>
        <pt x="323" y="493" on="1"/>
        <pt x="323" y="459" on="0"/>
        <pt x="320" y="344" on="0"/>
        <pt x="320" y="320" on="1"/>
        <pt x="320" y="280" on="0"/>
        <pt x="332" y="226" on="0"/>
        <pt x="369" y="174" on="0"/>
        <pt x="437" y="145" on="0"/>
        <pt x="552" y="127" on="0"/>
        <pt x="716" y="127" on="0"/>
        <pt x="831" y="145" on="0"/>
        <pt x="899" y="174" on="0"/>
        <pt x="936" y="226" on="0"/>
        <pt x="948" y="280" on="0"/>
        <pt x="948" y="320" on="1"/>
        <pt x="948" y="344" on="0"/>
        <pt x="945" y="459" on="0"/>
        <pt x="945" y="493" on="1"/>
        <pt x="945" y="540" on="0"/>
        <pt x="933" y="606" on="0"/>
        <pt x="918" y="655" on="0"/>
        <pt x="874" y="684" on="0"/>
        <pt x="840" y="702" on="0"/>
        <pt x="757" y="709" on="0"/>
        <pt x="696" y="711" on="0"/>
      </contour>
      <contour>
        <pt x="633" y="1358" on="1"/>
        <pt x="635" y="1358" on="1"/>
        <pt x="587" y="1358" on="0"/>
        <pt x="524" y="1356" on="0"/>
        <pt x="467" y="1346" on="0"/>
        <pt x="435" y="1336" on="0"/>
        <pt x="408" y="1309" on="0"/>
        <pt x="396" y="1283" on="0"/>
        <pt x="387" y="1231" on="0"/>
        <pt x="386" y="1183" on="0"/>
        <pt x="386" y="1141" on="1"/>
        <pt x="386" y="904" on="0"/>
        <pt x="463" y="855" on="1"/>
        <pt x="633" y="855" on="1"/>
        <pt x="805" y="855" on="1"/>
        <pt x="882" y="904" on="0"/>
        <pt x="882" y="1141" on="1"/>
        <pt x="882" y="1183" on="0"/>
        <pt x="881" y="1231" on="0"/>
        <pt x="872" y="1283" on="0"/>
        <pt x="860" y="1309" on="0"/>
        <pt x="833" y="1336" on="0"/>
        <pt x="801" y="1346" on="0"/>
        <pt x="744" y="1356" on="0"/>
        <pt x="681" y="1358" on="0"/>
      </contour>
    </TTGlyph>
    <TTGlyph name="ellipsis" xMin="111" yMin="-37" xMax="1498" yMax="271">
      <contour>
        <pt x="1358" y="-37" on="1"/>
        <pt x="1295" y="-37" on="0"/>
        <pt x="1218" y="48" on="0"/>
        <pt x="1218" y="117" on="1"/>
        <pt x="1218" y="189" on="0"/>
        <pt x="1296" y="271" on="0"/>
        <pt x="1372" y="271" on="1"/>
        <pt x="1423" y="271" on="0"/>
        <pt x="1498" y="177" on="0"/>
        <pt x="1498" y="117" on="1"/>
        <pt x="1498" y="49" on="0"/>
        <pt x="1423" y="-37" on="0"/>
      </contour>
      <contour>
        <pt x="664" y="118" on="1"/>
        <pt x="664" y="183" on="0"/>
        <pt x="742" y="271" on="0"/>
        <pt x="804" y="271" on="1"/>
        <pt x="867" y="271" on="0"/>
        <pt x="945" y="186" on="0"/>
        <pt x="945" y="117" on="1"/>
        <pt x="945" y="49" on="0"/>
        <pt x="870" y="-37" on="0"/>
        <pt x="806" y="-37" on="1"/>
        <pt x="744" y="-37" on="0"/>
        <pt x="664" y="54" on="0"/>
      </contour>
      <contour>
        <pt x="252" y="-37" on="1"/>
        <pt x="191" y="-37" on="0"/>
        <pt x="111" y="51" on="0"/>
        <pt x="111" y="117" on="1"/>
        <pt x="111" y="184" on="0"/>
        <pt x="186" y="271" on="0"/>
        <pt x="252" y="271" on="1"/>
        <pt x="313" y="271" on="0"/>
        <pt x="392" y="181" on="0"/>
        <pt x="392" y="117" on="1"/>
        <pt x="392" y="49" on="0"/>
        <pt x="317" y="-37" on="0"/>
      </contour>
    </TTGlyph>
    <TTGlyph name="emacron" xMin="124" yMin="-15" xMax="1014" yMax="1357">
      <component glyphName="glyph00393" x="124" y="0" flags="0x0"/>
      <component glyphName="e" x="0" y="0" flags="0x1004"/>
      <component glyphName="macron" x="146" y="519" flags="0x1004"/>
    </TTGlyph>
    <TTGlyph name="emdash" xMin="131" yMin="580" xMax="1659" yMax="768">
      <contour>
        <pt x="1659" y="580" on="1"/>
        <pt x="131" y="580" on="1"/>
        <pt x="131" y="768" on="1"/>
        <pt x="1659" y="768" on="1"/>
      </contour>
    </TTGlyph>
    <TTGlyph name="endash" xMin="131" yMin="580" xMax="942" yMax="768">
      <contour>
        <pt x="942" y="580" on="1"/>
        <pt x="131" y="580" on="1"/>
        <pt x="131" y="768" on="1"/>
        <pt x="942" y="768" on="1"/>
      </contour>
    </TTGlyph>
    <TTGlyph name="eogonek" xMin="124" yMin="-551" xMax="1014" yMax="1128">
      <component glyphName="glyph00393" x="124" y="0" flags="0x0"/>
      <component glyphName="e" x="0" y="0" flags="0x1004"/>
      <component glyphName="ogonek" x="174" y="3" flags="0x1004"/>
    </TTGlyph>
    <TTGlyph name="equal" xMin="153" yMin="314" xMax="988" yMax="881">
      <contour>
        <pt x="988" y="692" on="1"/>
        <pt x="153" y="692" on="1"/>
        <pt x="153" y="881" on="1"/>
        <pt x="988" y="881" on="1"/>
      </contour>
      <contour>
        <pt x="988" y="314" on="1"/>
        <pt x="153" y="314" on="1"/>
        <pt x="153" y="503" on="1"/>
        <pt x="988" y="503" on="1"/>
      </contour>
    </TTGlyph>
    <TTGlyph name="eth" xMin="98" yMin="-24" xMax="1074" yMax="1587">
      <contour>
        <pt x="984" y="1587" on="1"/>
        <pt x="1044" y="1527" on="1"/>
        <pt x="886" y="1369" on="1"/>
        <pt x="926" y="1341" on="0"/>
        <pt x="985" y="1263" on="0"/>
        <pt x="1026" y="1187" on="0"/>
        <pt x="1052" y="1046" on="0"/>
        <pt x="1066" y="945" on="0"/>
        <pt x="1073" y="732" on="0"/>
        <pt x="1074" y="597" on="0"/>
        <pt x="1074" y="452" on="1"/>
        <pt x="1074" y="302" on="0"/>
        <pt x="1031" y="120" on="0"/>
        <pt x="916" y="13" on="0"/>
        <pt x="747" y="-24" on="0"/>
        <pt x="606" y="-24" on="1"/>
        <pt x="478" y="-24" on="0"/>
        <pt x="310" y="0" on="0"/>
        <pt x="189" y="53" on="0"/>
        <pt x="125" y="152" on="0"/>
        <pt x="98" y="288" on="0"/>
        <pt x="99" y="391" on="1"/>
        <pt x="100" y="599" on="1"/>
        <pt x="101" y="794" on="0"/>
        <pt x="285" y="966" on="0"/>
        <pt x="511" y="966" on="1"/>
        <pt x="848" y="966" on="0"/>
        <pt x="876" y="816" on="1"/>
        <pt x="866" y="1012" on="0"/>
        <pt x="825" y="1211" on="0"/>
        <pt x="779" y="1262" on="1"/>
        <pt x="622" y="1105" on="1"/>
        <pt x="562" y="1165" on="1"/>
        <pt x="709" y="1312" on="1"/>
        <pt x="695" y="1318" on="0"/>
        <pt x="664" y="1329" on="0"/>
        <pt x="624" y="1339" on="0"/>
        <pt x="591" y="1346" on="0"/>
        <pt x="537" y="1353" on="0"/>
        <pt x="502" y="1358" on="0"/>
        <pt x="433" y="1365" on="0"/>
        <pt x="394" y="1368" on="0"/>
        <pt x="309" y="1376" on="0"/>
        <pt x="287" y="1378" on="1"/>
        <pt x="305" y="1497" on="1"/>
        <pt x="660" y="1475" on="0"/>
        <pt x="808" y="1411" on="1"/>
      </contour>
      <contour>
        <pt x="606" y="838" on="1"/>
        <pt x="529" y="838" on="0"/>
        <pt x="436" y="835" on="0"/>
        <pt x="359" y="825" on="0"/>
        <pt x="323" y="810" on="0"/>
        <pt x="298" y="779" on="0"/>
        <pt x="293" y="744" on="0"/>
        <pt x="293" y="714" on="1"/>
        <pt x="292" y="214" on="1"/>
        <pt x="292" y="187" on="0"/>
        <pt x="299" y="153" on="0"/>
        <pt x="329" y="126" on="0"/>
        <pt x="363" y="114" on="0"/>
        <pt x="445" y="106" on="0"/>
        <pt x="528" y="104" on="0"/>
        <pt x="604" y="104" on="1"/>
        <pt x="676" y="104" on="0"/>
        <pt x="765" y="106" on="0"/>
        <pt x="829" y="119" on="0"/>
        <pt x="858" y="128" on="0"/>
        <pt x="875" y="161" on="0"/>
        <pt x="876" y="183" on="0"/>
        <pt x="876" y="212" on="1"/>
        <pt x="876" y="651" on="1"/>
        <pt x="876" y="694" on="0"/>
        <pt x="869" y="744" on="0"/>
        <pt x="840" y="796" on="0"/>
        <pt x="782" y="822" on="0"/>
        <pt x="682" y="838" on="0"/>
      </contour>
    </TTGlyph>
    <TTGlyph name="exclam" xMin="138" yMin="0" xMax="354" yMax="1556">
      <contour>
        <pt x="148" y="0" on="1"/>
        <pt x="148" y="38" on="0"/>
        <pt x="149" y="190" on="0"/>
        <pt x="149" y="228" on="1"/>
        <pt x="345" y="228" on="1"/>
        <pt x="345" y="190" on="0"/>
        <pt x="346" y="38" on="0"/>
        <pt x="346" y="0" on="1"/>
      </contour>
      <contour>
        <pt x="272" y="498" on="0"/>
        <pt x="220" y="498" on="0"/>
        <pt x="217" y="534" on="1"/>
        <pt x="138" y="1364" on="0"/>
        <pt x="138" y="1418" on="1"/>
        <pt x="138" y="1490" on="0"/>
        <pt x="186" y="1556" on="0"/>
        <pt x="306" y="1556" on="0"/>
        <pt x="354" y="1490" on="0"/>
        <pt x="354" y="1418" on="1"/>
        <pt x="354" y="1364" on="0"/>
        <pt x="275" y="534" on="1"/>
      </contour>
    </TTGlyph>
    <TTGlyph name="exclamdown" xMin="117" yMin="-33" xMax="414" yMax="1542">
      <contour>
        <pt x="414" y="1386" on="1"/>
        <pt x="414" y="1318" on="0"/>
        <pt x="332" y="1230" on="0"/>
        <pt x="265" y="1230" on="1"/>
        <pt x="202" y="1230" on="0"/>
        <pt x="117" y="1321" on="0"/>
        <pt x="117" y="1386" on="1"/>
        <pt x="117" y="1452" on="0"/>
        <pt x="197" y="1542" on="0"/>
        <pt x="265" y="1542" on="1"/>
        <pt x="328" y="1542" on="0"/>
        <pt x="414" y="1452" on="0"/>
      </contour>
      <contour>
        <pt x="298" y="-33" on="1"/>
        <pt x="208" y="-33" on="0"/>
        <pt x="167" y="25" on="1"/>
        <pt x="155" y="64" on="0"/>
        <pt x="155" y="126" on="1"/>
        <pt x="155" y="246" on="0"/>
        <pt x="196" y="674" on="0"/>
        <pt x="229" y="926" on="0"/>
        <pt x="237" y="982" on="1"/>
        <pt x="254" y="995" on="0"/>
        <pt x="279" y="995" on="1"/>
        <pt x="297" y="963" on="0"/>
        <pt x="372" y="438" on="0"/>
        <pt x="372" y="250" on="1"/>
        <pt x="372" y="82" on="0"/>
        <pt x="348" y="-22" on="0"/>
      </contour>
    </TTGlyph>
    <TTGlyph name="f" xMin="65" yMin="0" xMax="595" yMax="1522">
      <contour>
        <pt x="595" y="1505" on="1"/>
        <pt x="595" y="1362" on="1"/>
        <pt x="541" y="1365" on="0"/>
        <pt x="491" y="1365" on="1"/>
        <pt x="429" y="1365" on="0"/>
        <pt x="416" y="1359" on="1"/>
        <pt x="394" y="1348" on="0"/>
        <pt x="391" y="1292" on="1"/>
        <pt x="390" y="1271" on="0"/>
        <pt x="390" y="1235" on="1"/>
        <pt x="390" y="1220" on="0"/>
        <pt x="391" y="1129" on="0"/>
        <pt x="391" y="1097" on="1"/>
        <pt x="589" y="1097" on="1"/>
        <pt x="589" y="984" on="1"/>
        <pt x="391" y="984" on="1"/>
        <pt x="391" y="0" on="1"/>
        <pt x="194" y="0" on="1"/>
        <pt x="194" y="984" on="1"/>
        <pt x="65" y="984" on="1"/>
        <pt x="65" y="1097" on="1"/>
        <pt x="194" y="1097" on="1"/>
        <pt x="194" y="1152" on="0"/>
        <pt x="195" y="1221" on="0"/>
        <pt x="199" y="1305" on="0"/>
        <pt x="205" y="1355" on="0"/>
        <pt x="218" y="1413" on="0"/>
        <pt x="235" y="1446" on="0"/>
        <pt x="261" y="1482" on="0"/>
        <pt x="294" y="1500" on="0"/>
        <pt x="338" y="1516" on="0"/>
        <pt x="391" y="1522" on="0"/>
        <pt x="425" y="1522" on="1"/>
        <pt x="506" y="1522" on="0"/>
      </contour>
    </TTGlyph>
    <TTGlyph name="five" xMin="144" yMin="-16" xMax="1088" yMax="1484">
      <contour>
        <pt x="1088" y="460" on="1"/>
        <pt x="1088" y="359" on="0"/>
        <pt x="1067" y="214" on="0"/>
        <pt x="1016" y="106" on="0"/>
        <pt x="943" y="40" on="0"/>
        <pt x="824" y="-1" on="0"/>
        <pt x="683" y="-16" on="0"/>
        <pt x="583" y="-16" on="1"/>
        <pt x="523" y="-16" on="0"/>
        <pt x="431" y="-10" on="0"/>
        <pt x="335" y="6" on="0"/>
        <pt x="267" y="34" on="0"/>
        <pt x="204" y="79" on="0"/>
        <pt x="166" y="143" on="0"/>
        <pt x="144" y="232" on="0"/>
        <pt x="144" y="289" on="1"/>
        <pt x="144" y="299" on="0"/>
        <pt x="146" y="342" on="0"/>
        <pt x="146" y="354" on="1"/>
        <pt x="297" y="375" on="1"/>
        <pt x="302" y="316" on="0"/>
        <pt x="312" y="252" on="0"/>
        <pt x="336" y="189" on="0"/>
        <pt x="369" y="162" on="0"/>
        <pt x="435" y="139" on="0"/>
        <pt x="518" y="133" on="0"/>
        <pt x="584" y="133" on="1"/>
        <pt x="670" y="133" on="0"/>
        <pt x="791" y="157" on="0"/>
        <pt x="861" y="196" on="0"/>
        <pt x="899" y="263" on="0"/>
        <pt x="911" y="331" on="0"/>
        <pt x="911" y="381" on="1"/>
        <pt x="911" y="402" on="0"/>
        <pt x="908" y="499" on="0"/>
        <pt x="908" y="526" on="1"/>
        <pt x="908" y="578" on="0"/>
        <pt x="907" y="632" on="0"/>
        <pt x="898" y="700" on="0"/>
        <pt x="884" y="730" on="0"/>
        <pt x="853" y="768" on="0"/>
        <pt x="812" y="782" on="0"/>
        <pt x="746" y="797" on="0"/>
        <pt x="665" y="800" on="0"/>
        <pt x="608" y="800" on="1"/>
        <pt x="564" y="800" on="0"/>
        <pt x="510" y="798" on="0"/>
        <pt x="444" y="789" on="0"/>
        <pt x="404" y="769" on="0"/>
        <pt x="363" y="736" on="0"/>
        <pt x="339" y="685" on="0"/>
        <pt x="333" y="649" on="1"/>
        <pt x="159" y="662" on="1"/>
        <pt x="159" y="1484" on="1"/>
        <pt x="1001" y="1484" on="1"/>
        <pt x="1001" y="1330" on="1"/>
        <pt x="356" y="1330" on="1"/>
        <pt x="324" y="761" on="1"/>
        <pt x="339" y="798" on="0"/>
        <pt x="366" y="846" on="0"/>
        <pt x="416" y="900" on="0"/>
        <pt x="480" y="931" on="0"/>
        <pt x="582" y="951" on="0"/>
        <pt x="648" y="951" on="1"/>
        <pt x="742" y="951" on="0"/>
        <pt x="881" y="928" on="0"/>
        <pt x="979" y="873" on="0"/>
        <pt x="1040" y="800" on="0"/>
        <pt x="1075" y="683" on="0"/>
        <pt x="1088" y="553" on="0"/>
      </contour>
    </TTGlyph>
    <TTGlyph name="florin" xMin="45" yMin="-319" xMax="618" yMax="1561">
      <contour>
        <pt x="618" y="1543" on="1"/>
        <pt x="618" y="1389" on="1"/>
        <pt x="579" y="1392" on="0"/>
        <pt x="540" y="1392" on="1"/>
        <pt x="506" y="1392" on="0"/>
        <pt x="464" y="1389" on="0"/>
        <pt x="432" y="1374" on="0"/>
        <pt x="418" y="1362" on="0"/>
        <pt x="410" y="1322" on="0"/>
        <pt x="409" y="1292" on="0"/>
        <pt x="409" y="1256" on="1"/>
        <pt x="410" y="887" on="1"/>
        <pt x="608" y="887" on="1"/>
        <pt x="608" y="757" on="1"/>
        <pt x="410" y="757" on="1"/>
        <pt x="410" y="-56" on="1"/>
        <pt x="410" y="-110" on="0"/>
        <pt x="401" y="-184" on="0"/>
        <pt x="376" y="-253" on="0"/>
        <pt x="329" y="-293" on="0"/>
        <pt x="252" y="-318" on="0"/>
        <pt x="197" y="-319" on="1"/>
        <pt x="158" y="-319" on="0"/>
        <pt x="45" y="-299" on="1"/>
        <pt x="45" y="-167" on="1"/>
        <pt x="213" y="-167" on="1"/>
        <pt x="213" y="757" on="1"/>
        <pt x="51" y="757" on="1"/>
        <pt x="51" y="887" on="1"/>
        <pt x="213" y="887" on="1"/>
        <pt x="212" y="1259" on="1"/>
        <pt x="211" y="1425" on="0"/>
        <pt x="318" y="1561" on="0"/>
        <pt x="442" y="1561" on="1"/>
        <pt x="524" y="1561" on="0"/>
      </contour>
    </TTGlyph>
    <TTGlyph name="four" xMin="45" yMin="0" xMax="991" yMax="1482">
      <contour>
        <pt x="991" y="390" on="1"/>
        <pt x="852" y="390" on="1"/>
        <pt x="852" y="0" on="1"/>
        <pt x="667" y="0" on="1"/>
        <pt x="667" y="389" on="1"/>
        <pt x="45" y="389" on="1"/>
        <pt x="45" y="539" on="1"/>
        <pt x="563" y="1482" on="1"/>
        <pt x="852" y="1482" on="1"/>
        <pt x="852" y="521" on="1"/>
        <pt x="991" y="521" on="1"/>
      </contour>
      <contour>
        <pt x="667" y="1379" on="1"/>
        <pt x="650" y="1344" on="0"/>
        <pt x="582" y="1209" on="0"/>
        <pt x="570" y="1185" on="1"/>
        <pt x="335" y="713" on="1"/>
        <pt x="319" y="680" on="0"/>
        <pt x="253" y="551" on="0"/>
        <pt x="238" y="521" on="1"/>
        <pt x="667" y="521" on="1"/>
      </contour>
    </TTGlyph>
    <TTGlyph name="fraction" xMin="-25" yMin="0" xMax="764" yMax="1490">
      <contour>
        <pt x="764" y="1490" on="1"/>
        <pt x="115" y="0" on="1"/>
        <pt x="-25" y="0" on="1"/>
        <pt x="621" y="1490" on="1"/>
      </contour>
    </TTGlyph>
    <TTGlyph name="g" xMin="124" yMin="-357" xMax="1018" yMax="1125">
      <contour>
        <pt x="1018" y="1097" on="1"/>
        <pt x="1018" y="139" on="1"/>
        <pt x="1018" y="40" on="0"/>
        <pt x="1005" y="-96" on="0"/>
        <pt x="970" y="-214" on="0"/>
        <pt x="910" y="-285" on="0"/>
        <pt x="811" y="-337" on="0"/>
        <pt x="677" y="-357" on="0"/>
        <pt x="583" y="-357" on="1"/>
        <pt x="387" y="-357" on="0"/>
        <pt x="271" y="-316" on="1"/>
        <pt x="284" y="-180" on="1"/>
        <pt x="396" y="-211" on="0"/>
        <pt x="550" y="-211" on="1"/>
        <pt x="623" y="-211" on="0"/>
        <pt x="724" y="-195" on="0"/>
        <pt x="781" y="-171" on="0"/>
        <pt x="812" y="-126" on="0"/>
        <pt x="821" y="-82" on="0"/>
        <pt x="821" y="-48" on="1"/>
        <pt x="820" y="131" on="1"/>
        <pt x="793" y="61" on="0"/>
        <pt x="661" y="-3" on="0"/>
        <pt x="541" y="-3" on="1"/>
        <pt x="455" y="-3" on="0"/>
        <pt x="327" y="21" on="0"/>
        <pt x="237" y="57" on="0"/>
        <pt x="178" y="134" on="0"/>
        <pt x="144" y="203" on="0"/>
        <pt x="128" y="332" on="0"/>
        <pt x="124" y="435" on="0"/>
        <pt x="124" y="524" on="1"/>
        <pt x="124" y="637" on="0"/>
        <pt x="128" y="765" on="0"/>
        <pt x="142" y="914" on="0"/>
        <pt x="174" y="990" on="0"/>
        <pt x="225" y="1069" on="0"/>
        <pt x="307" y="1103" on="0"/>
        <pt x="418" y="1125" on="0"/>
        <pt x="495" y="1125" on="1"/>
        <pt x="626" y="1125" on="0"/>
        <pt x="784" y="1054" on="0"/>
        <pt x="820" y="975" on="1"/>
        <pt x="839" y="1097" on="1"/>
      </contour>
      <contour>
        <pt x="821" y="223" on="1"/>
        <pt x="821" y="833" on="1"/>
        <pt x="821" y="917" on="0"/>
        <pt x="710" y="990" on="0"/>
        <pt x="567" y="990" on="1"/>
        <pt x="427" y="990" on="0"/>
        <pt x="375" y="965" on="1"/>
        <pt x="319" y="938" on="0"/>
        <pt x="319" y="746" on="1"/>
        <pt x="319" y="457" on="0"/>
        <pt x="327" y="242" on="1"/>
        <pt x="330" y="195" on="0"/>
        <pt x="373" y="151" on="0"/>
        <pt x="477" y="134" on="0"/>
        <pt x="588" y="134" on="1"/>
        <pt x="811" y="134" on="0"/>
      </contour>
    </TTGlyph>
    <TTGlyph name="gbreve" xMin="124" yMin="-357" xMax="1018" yMax="1530">
      <component glyphName="glyph00393" x="124" y="0" flags="0x0"/>
      <component glyphName="g" x="0" y="0" flags="0x1004"/>
      <component glyphName="breve" x="112" y="-218" flags="0x1004"/>
    </TTGlyph>
    <TTGlyph name="gcircumflex" xMin="124" yMin="-357" xMax="1018" yMax="1645">
      <component glyphName="glyph00393" x="124" y="0" flags="0x0"/>
      <component glyphName="g" x="0" y="0" flags="0x1004"/>
      <component glyphName="circumflex" x="83" y="-161" flags="0x1004"/>
    </TTGlyph>
    <TTGlyph name="gcommaaccent" xMin="115" yMin="-357" xMax="1009" yMax="1819">
      <contour>
        <pt x="1009" y="1097" on="1"/>
        <pt x="1009" y="139" on="1"/>
        <pt x="1009" y="40" on="0"/>
        <pt x="996" y="-96" on="0"/>
        <pt x="961" y="-214" on="0"/>
        <pt x="901" y="-285" on="0"/>
        <pt x="802" y="-337" on="0"/>
        <pt x="668" y="-357" on="0"/>
        <pt x="574" y="-357" on="1"/>
        <pt x="378" y="-357" on="0"/>
        <pt x="262" y="-316" on="1"/>
        <pt x="275" y="-180" on="1"/>
        <pt x="387" y="-211" on="0"/>
        <pt x="541" y="-211" on="1"/>
        <pt x="614" y="-211" on="0"/>
        <pt x="715" y="-195" on="0"/>
        <pt x="772" y="-171" on="0"/>
        <pt x="803" y="-126" on="0"/>
        <pt x="812" y="-82" on="0"/>
        <pt x="812" y="-48" on="1"/>
        <pt x="812" y="-37" on="0"/>
        <pt x="811" y="13" on="0"/>
        <pt x="811" y="26" on="1"/>
        <pt x="811" y="131" on="1"/>
        <pt x="784" y="61" on="0"/>
        <pt x="652" y="-3" on="0"/>
        <pt x="532" y="-3" on="1"/>
        <pt x="446" y="-3" on="0"/>
        <pt x="318" y="21" on="0"/>
        <pt x="228" y="57" on="0"/>
        <pt x="169" y="134" on="0"/>
        <pt x="135" y="203" on="0"/>
        <pt x="119" y="332" on="0"/>
        <pt x="115" y="435" on="0"/>
        <pt x="115" y="524" on="1"/>
        <pt x="115" y="637" on="0"/>
        <pt x="119" y="765" on="0"/>
        <pt x="133" y="914" on="0"/>
        <pt x="165" y="990" on="0"/>
        <pt x="216" y="1069" on="0"/>
        <pt x="298" y="1103" on="0"/>
        <pt x="409" y="1125" on="0"/>
        <pt x="486" y="1125" on="1"/>
        <pt x="617" y="1125" on="0"/>
        <pt x="775" y="1054" on="0"/>
        <pt x="811" y="975" on="1"/>
        <pt x="830" y="1097" on="1"/>
      </contour>
      <contour>
        <pt x="812" y="223" on="1"/>
        <pt x="812" y="833" on="1"/>
        <pt x="812" y="917" on="0"/>
        <pt x="701" y="990" on="0"/>
        <pt x="558" y="990" on="1"/>
        <pt x="418" y="990" on="0"/>
        <pt x="366" y="965" on="1"/>
        <pt x="310" y="938" on="0"/>
        <pt x="310" y="746" on="1"/>
        <pt x="310" y="457" on="0"/>
        <pt x="318" y="242" on="1"/>
        <pt x="321" y="195" on="0"/>
        <pt x="364" y="151" on="0"/>
        <pt x="468" y="134" on="0"/>
        <pt x="579" y="134" on="1"/>
        <pt x="802" y="134" on="0"/>
      </contour>
      <contour>
        <pt x="569" y="1819" on="1"/>
        <pt x="648" y="1819" on="0"/>
        <pt x="741" y="1701" on="0"/>
        <pt x="741" y="1603" on="1"/>
        <pt x="741" y="1470" on="0"/>
        <pt x="560" y="1268" on="0"/>
        <pt x="428" y="1268" on="1"/>
        <pt x="428" y="1328" on="1"/>
        <pt x="485" y="1330" on="0"/>
        <pt x="556" y="1423" on="0"/>
        <pt x="556" y="1493" on="1"/>
        <pt x="414" y="1500" on="0"/>
        <pt x="414" y="1663" on="1"/>
        <pt x="414" y="1713" on="0"/>
        <pt x="502" y="1819" on="0"/>
      </contour>
    </TTGlyph>
    <TTGlyph name="gdotaccent" xMin="124" yMin="-357" xMax="1018" yMax="1458">
      <component glyphName="glyph00393" x="124" y="0" flags="0x0"/>
      <component glyphName="g" x="0" y="0" flags="0x1004"/>
      <component glyphName="dotaccent" x="263" y="23" flags="0x1004"/>
    </TTGlyph>
    <TTGlyph name="germandbls" xMin="152" yMin="-185" xMax="1117" yMax="1497">
      <contour>
        <pt x="1117" y="401" on="1"/>
        <pt x="1117" y="329" on="0"/>
        <pt x="1095" y="214" on="0"/>
        <pt x="1043" y="132" on="0"/>
        <pt x="988" y="72" on="0"/>
        <pt x="887" y="35" on="0"/>
        <pt x="806" y="12" on="0"/>
        <pt x="664" y="2" on="0"/>
        <pt x="563" y="0" on="0"/>
        <pt x="476" y="0" on="1"/>
        <pt x="476" y="162" on="1"/>
        <pt x="518" y="162" on="0"/>
        <pt x="680" y="160" on="0"/>
        <pt x="708" y="160" on="1"/>
        <pt x="761" y="160" on="0"/>
        <pt x="818" y="165" on="0"/>
        <pt x="873" y="193" on="0"/>
        <pt x="896" y="234" on="0"/>
        <pt x="915" y="323" on="0"/>
        <pt x="919" y="431" on="0"/>
        <pt x="919" y="522" on="1"/>
        <pt x="919" y="565" on="0"/>
        <pt x="916" y="622" on="0"/>
        <pt x="893" y="671" on="0"/>
        <pt x="878" y="699" on="0"/>
        <pt x="818" y="721" on="0"/>
        <pt x="780" y="730" on="0"/>
        <pt x="670" y="736" on="0"/>
        <pt x="596" y="737" on="0"/>
        <pt x="511" y="737" on="1"/>
        <pt x="508" y="737" on="0"/>
        <pt x="506" y="737" on="1"/>
        <pt x="506" y="890" on="1"/>
        <pt x="551" y="890" on="0"/>
        <pt x="674" y="885" on="0"/>
        <pt x="693" y="885" on="1"/>
        <pt x="721" y="885" on="0"/>
        <pt x="759" y="889" on="0"/>
        <pt x="793" y="903" on="0"/>
        <pt x="813" y="920" on="0"/>
        <pt x="830" y="959" on="0"/>
        <pt x="837" y="999" on="0"/>
        <pt x="843" y="1071" on="0"/>
        <pt x="844" y="1143" on="0"/>
        <pt x="844" y="1257" on="0"/>
        <pt x="814" y="1309" on="0"/>
        <pt x="702" y="1337" on="0"/>
        <pt x="584" y="1337" on="1"/>
        <pt x="462" y="1337" on="0"/>
        <pt x="428" y="1325" on="1"/>
        <pt x="383" y="1310" on="0"/>
        <pt x="369" y="1253" on="1"/>
        <pt x="357" y="1202" on="0"/>
        <pt x="357" y="1001" on="1"/>
        <pt x="357" y="931" on="0"/>
        <pt x="357" y="916" on="1"/>
        <pt x="357" y="735" on="0"/>
        <pt x="358" y="11" on="0"/>
        <pt x="358" y="-169" on="1"/>
        <pt x="159" y="-185" on="1"/>
        <pt x="159" y="-54" on="0"/>
        <pt x="152" y="479" on="0"/>
        <pt x="152" y="613" on="1"/>
        <pt x="152" y="931" on="0"/>
        <pt x="165" y="1132" on="1"/>
        <pt x="178" y="1344" on="0"/>
        <pt x="364" y="1497" on="0"/>
        <pt x="600" y="1497" on="1"/>
        <pt x="834" y="1497" on="0"/>
        <pt x="1037" y="1339" on="0"/>
        <pt x="1037" y="1141" on="1"/>
        <pt x="1037" y="848" on="0"/>
        <pt x="885" y="827" on="1"/>
        <pt x="989" y="820" on="0"/>
        <pt x="1117" y="612" on="0"/>
      </contour>
    </TTGlyph>
    <TTGlyph name="glyph00393" xMin="0" yMin="0" xMax="0" yMax="0">
      <contour>
        <pt x="0" y="0" on="1"/>
      </contour>
    </TTGlyph>
    <TTGlyph name="grave" xMin="91" yMin="1287" xMax="574" yMax="1640">
      <contour>
        <pt x="278" y="1605" on="1"/>
        <pt x="295" y="1591" on="0"/>
        <pt x="443" y="1443" on="0"/>
        <pt x="508" y="1376" on="1"/>
        <pt x="574" y="1308" on="1"/>
        <pt x="557" y="1287" on="1"/>
        <pt x="464" y="1322" on="1"/>
        <pt x="371" y="1357" on="0"/>
        <pt x="173" y="1431" on="0"/>
        <pt x="162" y="1436" on="1"/>
        <pt x="127" y="1451" on="0"/>
        <pt x="91" y="1509" on="0"/>
        <pt x="91" y="1540" on="1"/>
        <pt x="91" y="1581" on="0"/>
        <pt x="147" y="1640" on="0"/>
        <pt x="194" y="1640" on="1"/>
        <pt x="238" y="1640" on="0"/>
      </contour>
    </TTGlyph>
    <TTGlyph name="greater" xMin="121" yMin="234" xMax="819" yMax="1281">
      <contour>
        <pt x="819" y="667" on="1"/>
        <pt x="121" y="234" on="1"/>
        <pt x="121" y="461" on="1"/>
        <pt x="641" y="757" on="1"/>
        <pt x="121" y="1045" on="1"/>
        <pt x="121" y="1281" on="1"/>
        <pt x="819" y="832" on="1"/>
      </contour>
    </TTGlyph>
    <TTGlyph name="guillemotleft" xMin="80" yMin="253" xMax="1049" yMax="1199">
      <contour>
        <pt x="480" y="775" on="1"/>
        <pt x="954" y="1199" on="1"/>
        <pt x="1049" y="1086" on="1"/>
        <pt x="628" y="726" on="1"/>
        <pt x="1049" y="366" on="1"/>
        <pt x="954" y="253" on="1"/>
        <pt x="480" y="677" on="1"/>
      </contour>
      <contour>
        <pt x="80" y="775" on="1"/>
        <pt x="555" y="1199" on="1"/>
        <pt x="650" y="1086" on="1"/>
        <pt x="229" y="726" on="1"/>
        <pt x="650" y="366" on="1"/>
        <pt x="555" y="253" on="1"/>
        <pt x="80" y="677" on="1"/>
      </contour>
    </TTGlyph>
    <TTGlyph name="guillemotright" xMin="130" yMin="253" xMax="1099" yMax="1199">
      <contour>
        <pt x="700" y="775" on="1"/>
        <pt x="700" y="677" on="1"/>
        <pt x="226" y="253" on="1"/>
        <pt x="130" y="366" on="1"/>
        <pt x="552" y="726" on="1"/>
        <pt x="130" y="1086" on="1"/>
        <pt x="226" y="1199" on="1"/>
      </contour>
      <contour>
        <pt x="1099" y="775" on="1"/>
        <pt x="1099" y="677" on="1"/>
        <pt x="624" y="253" on="1"/>
        <pt x="530" y="366" on="1"/>
        <pt x="950" y="726" on="1"/>
        <pt x="530" y="1086" on="1"/>
        <pt x="624" y="1199" on="1"/>
      </contour>
    </TTGlyph>
    <TTGlyph name="guilsinglleft" xMin="80" yMin="220" xMax="650" yMax="1166">
      <contour>
        <pt x="80" y="742" on="1"/>
        <pt x="555" y="1166" on="1"/>
        <pt x="650" y="1053" on="1"/>
        <pt x="229" y="693" on="1"/>
        <pt x="650" y="333" on="1"/>
        <pt x="555" y="220" on="1"/>
        <pt x="80" y="644" on="1"/>
      </contour>
    </TTGlyph>
    <TTGlyph name="guilsinglright" xMin="80" yMin="220" xMax="650" yMax="1166">
      <contour>
        <pt x="650" y="742" on="1"/>
        <pt x="650" y="644" on="1"/>
        <pt x="175" y="220" on="1"/>
        <pt x="80" y="333" on="1"/>
        <pt x="501" y="693" on="1"/>
        <pt x="80" y="1053" on="1"/>
        <pt x="175" y="1166" on="1"/>
      </contour>
    </TTGlyph>
    <TTGlyph name="h" xMin="155" yMin="0" xMax="1031" yMax="1502">
      <contour>
        <pt x="1030" y="0" on="1"/>
        <pt x="833" y="0" on="1"/>
        <pt x="833" y="666" on="1"/>
        <pt x="833" y="702" on="0"/>
        <pt x="836" y="812" on="0"/>
        <pt x="836" y="830" on="1"/>
        <pt x="836" y="880" on="0"/>
        <pt x="821" y="934" on="0"/>
        <pt x="767" y="976" on="0"/>
        <pt x="669" y="990" on="0"/>
        <pt x="584" y="990" on="1"/>
        <pt x="544" y="990" on="0"/>
        <pt x="473" y="981" on="0"/>
        <pt x="409" y="960" on="0"/>
        <pt x="369" y="922" on="0"/>
        <pt x="367" y="896" on="1"/>
        <pt x="353" y="716" on="0"/>
        <pt x="353" y="572" on="1"/>
        <pt x="353" y="0" on="1"/>
        <pt x="155" y="0" on="1"/>
        <pt x="155" y="1486" on="1"/>
        <pt x="353" y="1502" on="1"/>
        <pt x="353" y="1014" on="1"/>
        <pt x="425" y="1128" on="0"/>
        <pt x="651" y="1128" on="1"/>
        <pt x="710" y="1127" on="0"/>
        <pt x="805" y="1114" on="0"/>
        <pt x="879" y="1096" on="0"/>
        <pt x="935" y="1064" on="0"/>
        <pt x="975" y="1030" on="0"/>
        <pt x="1003" y="979" on="0"/>
        <pt x="1019" y="931" on="0"/>
        <pt x="1028" y="861" on="0"/>
        <pt x="1031" y="800" on="0"/>
        <pt x="1031" y="756" on="1"/>
        <pt x="1031" y="737" on="0"/>
        <pt x="1030" y="652" on="0"/>
        <pt x="1030" y="629" on="1"/>
      </contour>
    </TTGlyph>
    <TTGlyph name="hbar" xMin="36" yMin="0" xMax="1061" yMax="1502">
      <contour>
        <pt x="1061" y="0" on="1"/>
        <pt x="864" y="0" on="1"/>
        <pt x="864" y="666" on="1"/>
        <pt x="864" y="702" on="0"/>
        <pt x="865" y="812" on="0"/>
        <pt x="865" y="830" on="1"/>
        <pt x="865" y="880" on="0"/>
        <pt x="850" y="934" on="0"/>
        <pt x="796" y="976" on="0"/>
        <pt x="699" y="990" on="0"/>
        <pt x="614" y="990" on="1"/>
        <pt x="574" y="990" on="0"/>
        <pt x="503" y="981" on="0"/>
        <pt x="439" y="960" on="0"/>
        <pt x="399" y="922" on="0"/>
        <pt x="397" y="896" on="1"/>
        <pt x="383" y="716" on="0"/>
        <pt x="383" y="572" on="1"/>
        <pt x="383" y="0" on="1"/>
        <pt x="185" y="0" on="1"/>
        <pt x="185" y="1245" on="1"/>
        <pt x="36" y="1245" on="1"/>
        <pt x="36" y="1372" on="1"/>
        <pt x="185" y="1372" on="1"/>
        <pt x="185" y="1486" on="1"/>
        <pt x="383" y="1502" on="1"/>
        <pt x="383" y="1372" on="1"/>
        <pt x="633" y="1372" on="1"/>
        <pt x="633" y="1245" on="1"/>
        <pt x="383" y="1245" on="1"/>
        <pt x="383" y="1014" on="1"/>
        <pt x="455" y="1128" on="0"/>
        <pt x="681" y="1128" on="1"/>
        <pt x="740" y="1127" on="0"/>
        <pt x="835" y="1114" on="0"/>
        <pt x="909" y="1096" on="0"/>
        <pt x="965" y="1064" on="0"/>
        <pt x="1005" y="1030" on="0"/>
        <pt x="1033" y="979" on="0"/>
        <pt x="1049" y="931" on="0"/>
        <pt x="1058" y="861" on="0"/>
        <pt x="1061" y="800" on="0"/>
        <pt x="1061" y="756" on="1"/>
      </contour>
    </TTGlyph>
    <TTGlyph name="hcircumflex" xMin="155" yMin="0" xMax="1031" yMax="2019">
      <component glyphName="glyph00393" x="155" y="0" flags="0x0"/>
      <component glyphName="h" x="0" y="0" flags="0x1004"/>
      <component glyphName="circumflex" x="197" y="213" flags="0x1004"/>
    </TTGlyph>
    <TTGlyph name="hungarumlaut" xMin="91" yMin="1287" xMax="1003" yMax="1640">
      <contour>
        <pt x="387" y="1605" on="1"/>
        <pt x="427" y="1640" on="0"/>
        <pt x="471" y="1640" on="1"/>
        <pt x="518" y="1640" on="0"/>
        <pt x="574" y="1581" on="0"/>
        <pt x="574" y="1540" on="1"/>
        <pt x="574" y="1509" on="0"/>
        <pt x="538" y="1451" on="0"/>
        <pt x="503" y="1436" on="1"/>
        <pt x="492" y="1431" on="0"/>
        <pt x="294" y="1357" on="0"/>
        <pt x="201" y="1322" on="1"/>
        <pt x="108" y="1287" on="1"/>
        <pt x="91" y="1308" on="1"/>
        <pt x="348" y="1574" on="0"/>
      </contour>
      <contour>
        <pt x="816" y="1605" on="1"/>
        <pt x="856" y="1640" on="0"/>
        <pt x="900" y="1640" on="1"/>
        <pt x="947" y="1640" on="0"/>
        <pt x="1003" y="1581" on="0"/>
        <pt x="1003" y="1540" on="1"/>
        <pt x="1003" y="1509" on="0"/>
        <pt x="967" y="1451" on="0"/>
        <pt x="932" y="1436" on="1"/>
        <pt x="921" y="1431" on="0"/>
        <pt x="723" y="1357" on="0"/>
        <pt x="630" y="1322" on="1"/>
        <pt x="537" y="1287" on="1"/>
        <pt x="520" y="1308" on="1"/>
        <pt x="777" y="1574" on="0"/>
      </contour>
    </TTGlyph>
    <TTGlyph name="hyphen" xMin="132" yMin="538" xMax="719" yMax="677">
      <contour>
        <pt x="132" y="538" on="1"/>
        <pt x="132" y="677" on="1"/>
        <pt x="719" y="677" on="1"/>
        <pt x="719" y="538" on="1"/>
      </contour>
    </TTGlyph>
    <TTGlyph name="i" xMin="163" yMin="0" xMax="360" yMax="1521">
      <contour>
        <pt x="360" y="0" on="1"/>
        <pt x="163" y="0" on="1"/>
        <pt x="163" y="1097" on="1"/>
        <pt x="360" y="1097" on="1"/>
      </contour>
      <contour>
        <pt x="360" y="1521" on="1"/>
        <pt x="360" y="1348" on="1"/>
        <pt x="163" y="1348" on="1"/>
        <pt x="163" y="1521" on="1"/>
      </contour>
    </TTGlyph>
    <TTGlyph name="iacute" xMin="24" yMin="0" xMax="507" yMax="1583">
      <component glyphName="glyph00393" x="24" y="0" flags="0x0"/>
      <component glyphName="dotlessi" x="0" y="0" flags="0x1004"/>
      <component glyphName="acute" x="-85" y="-57" flags="0x1004"/>
    </TTGlyph>
    <TTGlyph name="ibreve" xMin="-30" yMin="0" xMax="561" yMax="1530">
      <component glyphName="glyph00393" x="0" y="0" flags="0x0"/>
      <component glyphName="dotlessi" x="0" y="0" flags="0x1004"/>
      <component glyphName="breve" x="-113" y="-218" flags="0x1004"/>
    </TTGlyph>
    <TTGlyph name="icircumflex" xMin="-21" yMin="0" xMax="551" yMax="1645">
      <component glyphName="glyph00393" x="0" y="0" flags="0x0"/>
      <component glyphName="dotlessi" x="0" y="0" flags="0x1004"/>
      <component glyphName="circumflex" x="-142" y="-161" flags="0x1004"/>
    </TTGlyph>
    <TTGlyph name="idieresis" xMin="-111" yMin="0" xMax="641" yMax="1484">
      <component glyphName="glyph00393" x="0" y="0" flags="0x0"/>
      <component glyphName="dotlessi" x="0" y="0" flags="0x1004"/>
      <component glyphName="dieresis" x="-228" y="1113" flags="0x1004"/>
    </TTGlyph>
    <TTGlyph name="igrave" xMin="24" yMin="0" xMax="507" yMax="1583">
      <component glyphName="glyph00393" x="24" y="0" flags="0x0"/>
      <component glyphName="dotlessi" x="0" y="0" flags="0x1004"/>
      <component glyphName="grave" x="-67" y="-57" flags="0x1004"/>
    </TTGlyph>
    <TTGlyph name="ij" xMin="163" yMin="-302" xMax="879" yMax="1521">
      <component glyphName="glyph00393" x="163" y="0" flags="0x0"/>
      <component glyphName="i" x="0" y="0" flags="0x1004"/>
      <component glyphName="j" x="533" y="0" flags="0x1004"/>
    </TTGlyph>
    <TTGlyph name="imacron" xMin="-33" yMin="0" xMax="564" yMax="1357">
      <component glyphName="glyph00393" x="0" y="0" flags="0x0"/>
      <component glyphName="dotlessi" x="0" y="0" flags="0x1004"/>
      <component glyphName="macron" x="-162" y="519" flags="0x1004"/>
    </TTGlyph>
    <TTGlyph name="iogonek" xMin="-50" yMin="-536" xMax="421" yMax="1521">
      <component glyphName="glyph00393" x="0" y="0" flags="0x0"/>
      <component glyphName="i" x="0" y="0" flags="0x1004"/>
      <component glyphName="ogonek" x="-162" y="18" flags="0x1004"/>
    </TTGlyph>
    <TTGlyph name="itilde" xMin="-73" yMin="0" xMax="604" yMax="1465">
      <component glyphName="glyph00393" x="0" y="0" flags="0x0"/>
      <component glyphName="dotlessi" x="0" y="0" flags="0x1004"/>
      <component glyphName="tilde" x="-238" y="318" flags="0x1004"/>
    </TTGlyph>
    <TTGlyph name="j" xMin="-21" yMin="-302" xMax="346" yMax="1521">
      <contour>
        <pt x="345" y="1097" on="1"/>
        <pt x="345" y="61" on="1"/>
        <pt x="345" y="-139" on="0"/>
        <pt x="236" y="-302" on="0"/>
        <pt x="90" y="-302" on="1"/>
        <pt x="46" y="-302" on="0"/>
        <pt x="-16" y="-294" on="1"/>
        <pt x="-21" y="-172" on="1"/>
        <pt x="-9" y="-171" on="0"/>
        <pt x="36" y="-171" on="0"/>
        <pt x="61" y="-170" on="0"/>
        <pt x="97" y="-164" on="0"/>
        <pt x="118" y="-150" on="0"/>
        <pt x="139" y="-128" on="0"/>
        <pt x="148" y="-90" on="0"/>
        <pt x="148" y="-64" on="1"/>
        <pt x="148" y="1097" on="1"/>
      </contour>
      <contour>
        <pt x="346" y="1521" on="1"/>
        <pt x="346" y="1348" on="1"/>
        <pt x="147" y="1348" on="1"/>
        <pt x="147" y="1521" on="1"/>
      </contour>
    </TTGlyph>
    <TTGlyph name="jcircumflex" xMin="-39" yMin="-302" xMax="533" yMax="1645">
      <component glyphName="glyph00393" x="0" y="0" flags="0x0"/>
      <component glyphName="uni0237" x="0" y="0" flags="0x1004"/>
      <component glyphName="circumflex" x="-160" y="-161" flags="0x1004"/>
    </TTGlyph>
    <TTGlyph name="k" xMin="155" yMin="0" xMax="1044" yMax="1502">
      <contour>
        <pt x="1044" y="0" on="1"/>
        <pt x="827" y="0" on="1"/>
        <pt x="445" y="572" on="1"/>
        <pt x="353" y="469" on="1"/>
        <pt x="353" y="0" on="1"/>
        <pt x="155" y="0" on="1"/>
        <pt x="155" y="1486" on="1"/>
        <pt x="353" y="1502" on="1"/>
        <pt x="353" y="782" on="1"/>
        <pt x="353" y="757" on="0"/>
        <pt x="352" y="649" on="0"/>
        <pt x="352" y="625" on="1"/>
        <pt x="384" y="659" on="0"/>
        <pt x="503" y="791" on="0"/>
        <pt x="523" y="812" on="1"/>
        <pt x="784" y="1097" on="1"/>
        <pt x="1008" y="1097" on="1"/>
        <pt x="595" y="658" on="1"/>
      </contour>
    </TTGlyph>
    <TTGlyph name="kcommaaccent" xMin="155" yMin="-653" xMax="1044" yMax="1502">
      <component glyphName="glyph00393" x="155" y="0" flags="0x0"/>
      <component glyphName="k" x="0" y="0" flags="0x1004"/>
      <component glyphName="uni0326" x="271" y="38" flags="0x1004"/>
    </TTGlyph>
    <TTGlyph name="kgreenlandic" xMin="166" yMin="0" xMax="1055" yMax="1098">
      <contour>
        <pt x="1055" y="0" on="1"/>
        <pt x="838" y="0" on="1"/>
        <pt x="456" y="542" on="1"/>
        <pt x="364" y="439" on="1"/>
        <pt x="364" y="0" on="1"/>
        <pt x="166" y="0" on="1"/>
        <pt x="166" y="1082" on="1"/>
        <pt x="364" y="1098" on="1"/>
        <pt x="364" y="752" on="1"/>
        <pt x="364" y="727" on="0"/>
        <pt x="363" y="619" on="0"/>
        <pt x="363" y="595" on="1"/>
        <pt x="395" y="629" on="0"/>
        <pt x="514" y="761" on="0"/>
        <pt x="534" y="782" on="1"/>
        <pt x="795" y="1097" on="1"/>
        <pt x="1019" y="1097" on="1"/>
        <pt x="606" y="628" on="1"/>
      </contour>
    </TTGlyph>
    <TTGlyph name="l" xMin="162" yMin="0" xMax="359" yMax="1502">
      <contour>
        <pt x="359" y="0" on="1"/>
        <pt x="162" y="0" on="1"/>
        <pt x="162" y="1486" on="1"/>
        <pt x="359" y="1502" on="1"/>
      </contour>
    </TTGlyph>
    <TTGlyph name="lacute" xMin="123" yMin="0" xMax="606" yMax="1957">
      <component glyphName="glyph00393" x="123" y="0" flags="0x0"/>
      <component glyphName="l" x="0" y="0" flags="0x1004"/>
      <component glyphName="acute" x="14" y="317" flags="0x1004"/>
    </TTGlyph>
    <TTGlyph name="lcaron" xMin="162" yMin="0" xMax="834" yMax="1502">
      <component glyphName="glyph00393" x="162" y="0" flags="0x0"/>
      <component glyphName="l" x="0" y="0" flags="0x1004"/>
      <component glyphName="comma" x="423" y="1193" flags="0x1004"/>
    </TTGlyph>
    <TTGlyph name="lcommaaccent" xMin="103" yMin="-653" xMax="430" yMax="1502">
      <component glyphName="glyph00393" x="103" y="0" flags="0x0"/>
      <component glyphName="l" x="0" y="0" flags="0x1004"/>
      <component glyphName="uni0326" x="-73" y="38" flags="0x1004"/>
    </TTGlyph>
    <TTGlyph name="ldot" xMin="162" yMin="0" xMax="938" yMax="1502">
      <component glyphName="glyph00393" x="162" y="0" flags="0x0"/>
      <component glyphName="l" x="0" y="0" flags="0x1004"/>
      <component glyphName="periodcentered" x="533" y="0" flags="0x1004"/>
    </TTGlyph>
    <TTGlyph name="less" xMin="65" yMin="234" xMax="761" yMax="1281">
      <contour>
        <pt x="761" y="234" on="1"/>
        <pt x="65" y="667" on="1"/>
        <pt x="65" y="832" on="1"/>
        <pt x="761" y="1281" on="1"/>
        <pt x="761" y="1045" on="1"/>
        <pt x="242" y="758" on="1"/>
        <pt x="761" y="462" on="1"/>
      </contour>
    </TTGlyph>
    <TTGlyph name="logicalnot" xMin="102" yMin="262" xMax="1026" yMax="797">
      <contour>
        <pt x="102" y="797" on="1"/>
        <pt x="1026" y="797" on="1"/>
        <pt x="1026" y="262" on="1"/>
        <pt x="877" y="262" on="1"/>
        <pt x="877" y="647" on="1"/>
        <pt x="102" y="647" on="1"/>
      </contour>
    </TTGlyph>
    <TTGlyph name="lslash" xMin="71" yMin="0" xMax="583" yMax="1544">
      <contour>
        <pt x="583" y="848" on="1"/>
        <pt x="421" y="751" on="1"/>
        <pt x="421" y="0" on="1"/>
        <pt x="225" y="0" on="1"/>
        <pt x="225" y="635" on="1"/>
        <pt x="71" y="545" on="1"/>
        <pt x="71" y="738" on="1"/>
        <pt x="225" y="829" on="1"/>
        <pt x="225" y="1528" on="1"/>
        <pt x="421" y="1544" on="1"/>
        <pt x="421" y="945" on="1"/>
        <pt x="583" y="1041" on="1"/>
      </contour>
    </TTGlyph>
    <TTGlyph name="m" xMin="153" yMin="0" xMax="1609" yMax="1128">
      <contour>
        <pt x="1609" y="0" on="1"/>
        <pt x="1412" y="0" on="1"/>
        <pt x="1412" y="666" on="1"/>
        <pt x="1412" y="779" on="0"/>
        <pt x="1415" y="838" on="1"/>
        <pt x="1415" y="874" on="0"/>
        <pt x="1405" y="919" on="0"/>
        <pt x="1371" y="967" on="0"/>
        <pt x="1293" y="990" on="0"/>
        <pt x="1232" y="990" on="1"/>
        <pt x="1165" y="990" on="0"/>
        <pt x="1074" y="973" on="0"/>
        <pt x="1019" y="944" on="0"/>
        <pt x="989" y="890" on="0"/>
        <pt x="980" y="831" on="0"/>
        <pt x="980" y="784" on="1"/>
        <pt x="980" y="762" on="0"/>
        <pt x="983" y="649" on="0"/>
        <pt x="983" y="614" on="1"/>
        <pt x="983" y="0" on="1"/>
        <pt x="786" y="0" on="1"/>
        <pt x="786" y="702" on="1"/>
        <pt x="786" y="707" on="0"/>
        <pt x="786" y="716" on="1"/>
        <pt x="786" y="784" on="0"/>
        <pt x="784" y="843" on="0"/>
        <pt x="771" y="922" on="0"/>
        <pt x="746" y="950" on="0"/>
        <pt x="694" y="982" on="0"/>
        <pt x="620" y="990" on="0"/>
        <pt x="563" y="990" on="1"/>
        <pt x="527" y="990" on="0"/>
        <pt x="462" y="981" on="0"/>
        <pt x="402" y="961" on="0"/>
        <pt x="364" y="923" on="0"/>
        <pt x="363" y="897" on="1"/>
        <pt x="350" y="764" on="0"/>
        <pt x="350" y="605" on="1"/>
        <pt x="350" y="0" on="1"/>
        <pt x="153" y="0" on="1"/>
        <pt x="153" y="1097" on="1"/>
        <pt x="333" y="1097" on="1"/>
        <pt x="352" y="977" on="1"/>
        <pt x="392" y="1058" on="0"/>
        <pt x="542" y="1126" on="0"/>
        <pt x="657" y="1126" on="1"/>
        <pt x="770" y="1126" on="0"/>
        <pt x="904" y="1054" on="0"/>
        <pt x="935" y="972" on="1"/>
        <pt x="1015" y="1128" on="0"/>
        <pt x="1251" y="1128" on="1"/>
        <pt x="1328" y="1128" on="0"/>
        <pt x="1437" y="1111" on="0"/>
        <pt x="1519" y="1065" on="0"/>
        <pt x="1568" y="1001" on="0"/>
        <pt x="1598" y="894" on="0"/>
        <pt x="1609" y="766" on="0"/>
        <pt x="1609" y="673" on="1"/>
      </contour>
    </TTGlyph>
    <TTGlyph name="macron" xMin="129" yMin="711" xMax="726" yMax="838">
      <contour>
        <pt x="129" y="838" on="1"/>
        <pt x="726" y="838" on="1"/>
        <pt x="726" y="711" on="1"/>
        <pt x="129" y="711" on="1"/>
      </contour>
    </TTGlyph>
    <TTGlyph name="multiply" xMin="68" yMin="288" xMax="758" yMax="1052">
      <contour>
        <pt x="292" y="670" on="1"/>
        <pt x="291" y="671" on="0"/>
        <pt x="270" y="695" on="1"/>
        <pt x="68" y="920" on="1"/>
        <pt x="71" y="923" on="0"/>
        <pt x="147" y="1008" on="1"/>
        <pt x="187" y="1052" on="1"/>
        <pt x="413" y="802" on="1"/>
        <pt x="640" y="1052" on="1"/>
        <pt x="758" y="920" on="1"/>
        <pt x="535" y="670" on="1"/>
        <pt x="758" y="420" on="1"/>
        <pt x="640" y="288" on="1"/>
        <pt x="413" y="538" on="1"/>
        <pt x="187" y="288" on="1"/>
        <pt x="184" y="291" on="0"/>
        <pt x="108" y="376" on="1"/>
        <pt x="68" y="420" on="1"/>
      </contour>
    </TTGlyph>
    <TTGlyph name="n" xMin="153" yMin="0" xMax="1021" yMax="1128">
      <contour>
        <pt x="1021" y="0" on="1"/>
        <pt x="824" y="0" on="1"/>
        <pt x="824" y="664" on="1"/>
        <pt x="824" y="728" on="0"/>
        <pt x="823" y="805" on="0"/>
        <pt x="816" y="883" on="0"/>
        <pt x="808" y="922" on="0"/>
        <pt x="787" y="961" on="0"/>
        <pt x="765" y="975" on="0"/>
        <pt x="723" y="988" on="0"/>
        <pt x="681" y="990" on="0"/>
        <pt x="646" y="990" on="1"/>
        <pt x="570" y="990" on="0"/>
        <pt x="463" y="973" on="0"/>
        <pt x="395" y="943" on="0"/>
        <pt x="358" y="889" on="0"/>
        <pt x="344" y="826" on="0"/>
        <pt x="344" y="780" on="1"/>
        <pt x="344" y="754" on="0"/>
        <pt x="350" y="625" on="0"/>
        <pt x="350" y="585" on="1"/>
        <pt x="350" y="0" on="1"/>
        <pt x="153" y="0" on="1"/>
        <pt x="153" y="1097" on="1"/>
        <pt x="333" y="1097" on="1"/>
        <pt x="352" y="974" on="1"/>
        <pt x="378" y="1056" on="0"/>
        <pt x="556" y="1128" on="0"/>
        <pt x="679" y="1128" on="1"/>
        <pt x="737" y="1128" on="0"/>
        <pt x="827" y="1114" on="0"/>
        <pt x="897" y="1081" on="0"/>
        <pt x="948" y="1039" on="0"/>
        <pt x="983" y="970" on="0"/>
        <pt x="1005" y="898" on="0"/>
        <pt x="1017" y="790" on="0"/>
        <pt x="1021" y="683" on="0"/>
        <pt x="1021" y="609" on="1"/>
      </contour>
    </TTGlyph>
    <TTGlyph name="nacute" xMin="153" yMin="0" xMax="1021" yMax="1583">
      <component glyphName="glyph00393" x="153" y="0" flags="0x0"/>
      <component glyphName="n" x="0" y="0" flags="0x1004"/>
      <component glyphName="acute" x="236" y="-57" flags="0x1004"/>
    </TTGlyph>
    <TTGlyph name="ncaron" xMin="153" yMin="0" xMax="1021" yMax="1645">
      <component glyphName="glyph00393" x="153" y="0" flags="0x0"/>
      <component glyphName="n" x="0" y="0" flags="0x1004"/>
      <component glyphName="caron" x="180" y="-161" flags="0x1004"/>
    </TTGlyph>
    <TTGlyph name="ncommaaccent" xMin="153" yMin="-653" xMax="1021" yMax="1128">
      <component glyphName="glyph00393" x="153" y="0" flags="0x0"/>
      <component glyphName="n" x="0" y="0" flags="0x1004"/>
      <component glyphName="uni0326" x="248" y="38" flags="0x1004"/>
    </TTGlyph>
    <TTGlyph name="nine" xMin="125" yMin="-2" xMax="1118" yMax="1506">
      <contour>
        <pt x="1118" y="841" on="1"/>
        <pt x="1118" y="495" on="0"/>
        <pt x="1109" y="393" on="1"/>
        <pt x="1093" y="198" on="0"/>
        <pt x="1024" y="115" on="1"/>
        <pt x="947" y="22" on="0"/>
        <pt x="760" y="4" on="1"/>
        <pt x="702" y="-2" on="0"/>
        <pt x="627" y="-2" on="1"/>
        <pt x="568" y="-2" on="0"/>
        <pt x="489" y="0" on="0"/>
        <pt x="385" y="9" on="0"/>
        <pt x="316" y="25" on="0"/>
        <pt x="243" y="56" on="0"/>
        <pt x="200" y="100" on="0"/>
        <pt x="172" y="165" on="0"/>
        <pt x="172" y="207" on="1"/>
        <pt x="172" y="262" on="0"/>
        <pt x="181" y="317" on="1"/>
        <pt x="262" y="326" on="0"/>
        <pt x="340" y="338" on="1"/>
        <pt x="340" y="299" on="0"/>
        <pt x="341" y="259" on="0"/>
        <pt x="349" y="206" on="0"/>
        <pt x="362" y="182" on="0"/>
        <pt x="390" y="152" on="0"/>
        <pt x="428" y="141" on="0"/>
        <pt x="489" y="128" on="0"/>
        <pt x="564" y="125" on="0"/>
        <pt x="617" y="125" on="1"/>
        <pt x="711" y="127" on="0"/>
        <pt x="816" y="142" on="0"/>
        <pt x="885" y="183" on="0"/>
        <pt x="910" y="245" on="0"/>
        <pt x="916" y="302" on="1"/>
        <pt x="926" y="532" on="0"/>
        <pt x="930" y="719" on="1"/>
        <pt x="840" y="553" on="0"/>
        <pt x="605" y="553" on="1"/>
        <pt x="510" y="553" on="0"/>
        <pt x="377" y="567" on="0"/>
        <pt x="264" y="604" on="0"/>
        <pt x="194" y="666" on="0"/>
        <pt x="145" y="768" on="0"/>
        <pt x="125" y="906" on="0"/>
        <pt x="125" y="1002" on="1"/>
        <pt x="125" y="1106" on="0"/>
        <pt x="143" y="1256" on="0"/>
        <pt x="188" y="1371" on="0"/>
        <pt x="256" y="1443" on="0"/>
        <pt x="365" y="1488" on="0"/>
        <pt x="500" y="1506" on="0"/>
        <pt x="595" y="1506" on="1"/>
        <pt x="719" y="1506" on="0"/>
        <pt x="883" y="1485" on="0"/>
        <pt x="1004" y="1418" on="0"/>
        <pt x="1070" y="1334" on="0"/>
        <pt x="1108" y="1167" on="0"/>
        <pt x="1118" y="989" on="0"/>
      </contour>
      <contour>
        <pt x="933" y="1080" on="1"/>
        <pt x="933" y="1147" on="0"/>
        <pt x="930" y="1208" on="0"/>
        <pt x="912" y="1291" on="0"/>
        <pt x="875" y="1323" on="0"/>
        <pt x="805" y="1359" on="0"/>
        <pt x="699" y="1369" on="0"/>
        <pt x="620" y="1369" on="1"/>
        <pt x="489" y="1369" on="0"/>
        <pt x="357" y="1335" on="0"/>
        <pt x="312" y="1271" on="0"/>
        <pt x="309" y="1206" on="1"/>
        <pt x="305" y="1056" on="0"/>
        <pt x="305" y="979" on="1"/>
        <pt x="305" y="913" on="0"/>
        <pt x="308" y="850" on="0"/>
        <pt x="328" y="774" on="0"/>
        <pt x="365" y="746" on="0"/>
        <pt x="438" y="715" on="0"/>
        <pt x="541" y="707" on="0"/>
        <pt x="621" y="706" on="1"/>
        <pt x="788" y="706" on="0"/>
        <pt x="926" y="779" on="0"/>
        <pt x="931" y="870" on="1"/>
        <pt x="933" y="939" on="0"/>
      </contour>
    </TTGlyph>
    <TTGlyph name="ntilde" xMin="153" yMin="0" xMax="1021" yMax="1465">
      <component glyphName="glyph00393" x="153" y="0" flags="0x0"/>
      <component glyphName="n" x="0" y="0" flags="0x1004"/>
      <component glyphName="tilde" x="84" y="318" flags="0x1004"/>
    </TTGlyph>
    <TTGlyph name="numbersign" xMin="37" yMin="0" xMax="1389" yMax="1490">
      <contour>
        <pt x="1275" y="406" on="1"/>
        <pt x="996" y="406" on="1"/>
        <pt x="926" y="0" on="1"/>
        <pt x="750" y="0" on="1"/>
        <pt x="820" y="406" on="1"/>
        <pt x="492" y="406" on="1"/>
        <pt x="420" y="0" on="1"/>
        <pt x="243" y="0" on="1"/>
        <pt x="312" y="406" on="1"/>
        <pt x="37" y="406" on="1"/>
        <pt x="64" y="561" on="1"/>
        <pt x="338" y="561" on="1"/>
        <pt x="405" y="963" on="1"/>
        <pt x="135" y="963" on="1"/>
        <pt x="162" y="1131" on="1"/>
        <pt x="434" y="1131" on="1"/>
        <pt x="498" y="1490" on="1"/>
        <pt x="680" y="1490" on="1"/>
        <pt x="617" y="1131" on="1"/>
        <pt x="939" y="1131" on="1"/>
        <pt x="1001" y="1490" on="1"/>
        <pt x="1177" y="1490" on="1"/>
        <pt x="1116" y="1131" on="1"/>
        <pt x="1389" y="1131" on="1"/>
        <pt x="1366" y="963" on="1"/>
        <pt x="1088" y="963" on="1"/>
        <pt x="1021" y="561" on="1"/>
        <pt x="1298" y="561" on="1"/>
      </contour>
      <contour>
        <pt x="844" y="561" on="1"/>
        <pt x="912" y="963" on="1"/>
        <pt x="588" y="963" on="1"/>
        <pt x="519" y="561" on="1"/>
      </contour>
    </TTGlyph>
</ttFont>
